{
copyright = "Copyright (c) 2022 by Thanos Poulakidas. All rights reserved.";
designer = "Thanos Poulakidas";
familyName = Geom;
customParameters = (
{
name = glyphOrder;
value = (
.notdef,
uni0000,
uni000D,
space,
quotedbl,
numbersign,
dollar,
percent,
ampersand,
quotesingle,
parenleft,
parenright,
asterisk,
plus,
comma,
hyphen,
period,
slash,
zero,
one,
two,
three,
four,
five,
six,
seven,
eight,
nine,
colon,
semicolon,
less,
equal,
greater,
question,
at,
A,
B,
C,
D,
E,
F,
G,
H,
I,
J,
K,
L,
M,
N,
O,
P,
Q,
R,
S,
T,
U,
V,
W,
X,
Y,
Z,
bracketleft,
backslash,
bracketright,
asciicircum,
underscore,
grave,
a,
b,
c,
d,
e,
f,
g,
h,
i,
j,
k,
l,
m,
n,
o,
p,
q,
r,
s,
t,
u,
v,
w,
x,
y,
z,
braceleft,
bar,
braceright,
asciitilde,
Euro,
quotesinglbase,
florin,
quotedblbase,
ellipsis,
dagger,
daggerdbl,
circumflex,
perthousand,
guilsinglleft,
quoteleft,
quoteright,
quotedblleft,
quotedblright,
bullet,
endash,
emdash,
tilde,
trademark,
guilsinglright,
exclamdown,
cent,
sterling,
currency,
yen,
brokenbar,
section,
dieresis,
copyright,
ordfeminine,
guillemotleft,
logicalnot,
registered,
degree,
plusminus,
acute,
paragraph,
cedilla,
ordmasculine,
guillemotright,
onequarter,
onehalf,
threequarters,
questiondown,
germandbls,
divide,
oslash,
fraction,
fi,
fl,
breve,
dotaccent,
ring,
hungarumlaut,
ogonek,
caron,
dotlessi,
greaterequal,
radical,
notequal,
product,
summation,
lessequal,
uni02C9,
lozenge,
minus,
uni2215,
approxequal,
integral,
uni2113,
partialdiff,
uni2206,
infinity,
uni2126,
uni2219,
estimated,
exclam,
Alpha,
Epsilon,
Eta,
Iota,
Kappa,
Mu,
Nu,
Omicron,
Chi,
Tau,
Rho,
Upsilon,
uni0394,
uni03A9,
Lambda,
Beta,
Zeta,
Pi,
Xi,
Sigma,
Psi,
omicron,
kappa,
nu,
tonos,
Alphatonos,
Epsilontonos,
Etatonos,
Iotatonos,
Omicrontonos,
Upsilontonos,
Gamma,
Theta,
Iotadieresis,
Upsilondieresis,
dieresistonos,
alpha,
rho,
iota,
eta,
gamma,
upsilon,
beta,
pi,
uni03BC,
tau,
Phi,
chi,
sigma,
theta,
lambda,
psi,
epsilon,
delta,
alphatonos,
etatonos,
iotatonos,
omicrontonos,
upsilontonos,

glyphs = (
{
glyphname = .notdef;
layers = (
{
hints = (
{
horizontal = 1;
place = "{0, 57}";
type = Stem;
},
{
horizontal = 1;
place = "{663, 57}";
type = Stem;
},
{
place = "{-6, 66}";
type = Stem;
},
{
place = "{454, 65}";
type = Stem;
}
);
layerId = "52A54639-B708-4391-8FEC-DE0E18BC7F23";
paths = (
{
closed = 1;
nodes = (
"-6 0 LINE",
"519 0 LINE",
"519 720 LINE",
"-6 720 LINE"
);
},
{
closed = 1;
nodes = (
"256 419 LINE",
"92 663 LINE",
"421 663 LINE"
);
},
{
closed = 1;
nodes = (
"60 599 LINE",
"219 360 LINE",
"60 124 LINE"
);
},
{
closed = 1;
nodes = (
"294 360 LINE",
"454 598 LINE",
"454 124 LINE"
);
},
{
closed = 1;
nodes = (
"92 57 LINE",
"256 303 LINE",
"421 57 LINE"
);
}
);
width = 515;
}
);
},
{
glyphname = quotedbl;
layers = (
{
hints = (
{
place = "{49, 327}";
type = Stem;
},
{
horizontal = 1;
place = "{426, 281}";
type = Stem;
},
{
horizontal = 1;
place = "{707, -20}";
target = down;
type = TopGhost;
}
);
layerId = "52A54639-B708-4391-8FEC-DE0E18BC7F23";
paths = (
{
closed = 1;
nodes = (
"112 426 LINE",
"174 662 LINE",
"184 707 LINE",
"75 707 LINE",
"49 426 LINE"
);
},
{
closed = 1;
nodes = (
"241 426 LINE",
"304 426 LINE",
"366 662 LINE",
"376 707 LINE",
"267 707 LINE"
);
}
);
width = 425;
}
);
unicode = 0022;
},
{
glyphname = numbersign;
layers = (
{
hints = (
{
horizontal = 1;
place = "{0, 21}";
target = up;
type = BottomGhost;
},
{
horizontal = 1;
place = "{184, 86}";
type = Stem;
},
{
horizontal = 1;
place = "{440, 87}";
type = Stem;
},
{
horizontal = 1;
place = "{705, -20}";
target = down;
type = TopGhost;
},
{
place = "{39, 577}";
type = Stem;
}
);
layerId = "52A54639-B708-4391-8FEC-DE0E18BC7F23";
paths = (
{
closed = 1;
nodes = (
"111 0 LINE",
"196 0 LINE",
"224 184 LINE",
"381 184 LINE",
"353 0 LINE",
"438 0 LINE",
"466 184 LINE",
"583 184 LINE",
"583 271 LINE",
"479 271 LINE",
"507 440 LINE",
"616 440 LINE",
"616 527 LINE",
"521 527 LINE",
"546 705 LINE",
"462 705 LINE",
"436 527 LINE",
"279 527 LINE",
"305 705 LINE",
"221 705 LINE",
"193 527 LINE",
"72 527 LINE",
"72 440 LINE",
"180 440 LINE",
"153 271 LINE",
"39 271 LINE",
"39 185 LINE",
"140 185 LINE"
);
},
{
closed = 1;
nodes = (
"422 440 LINE",
"395 270 LINE",
"237 270 LINE",
"264 440 LINE"
);
}
);
width = 654;
}
);
unicode = 0023;
},
{
glyphname = dollar;
layers = (
{
hints = (
{
place = "{94, 97}";
type = Stem;
},
{
place = "{296, 70}";
type = Stem;
},
{
place = "{475, 97}";
type = Stem;
},
{
horizontal = 1;
place = "{-3, 81}";
type = Stem;
},
{
horizontal = 1;
place = "{624, 150}";
type = Stem;
},
{
horizontal = 1;
place = "{709, -20}";
target = down;
type = TopGhost;
}
);
layerId = "52A54639-B708-4391-8FEC-DE0E18BC7F23";
paths = (
{
closed = 1;
nodes = (
"295 -96 LINE",
"366 -96 LINE",
"366 -3 LINE",
"487 10 OFFCURVE",
"572 87 OFFCURVE",
"572 195 CURVE SMOOTH",
"572 291 OFFCURVE",
"506 348 OFFCURVE",
"365 396 CURVE",
"365 624 LINE",
"412 619 OFFCURVE",
"455 594 OFFCURVE",
"480 559 CURVE",
"538 620 LINE",
"507 661 OFFCURVE",
"454 701 OFFCURVE",
"367 709 CURVE",
"367 774 LINE",
"295 774 LINE",
"295 709 LINE",
"178 698 OFFCURVE",
"94 625 OFFCURVE",
"94 519 CURVE SMOOTH",
"94 414 OFFCURVE",
"168 354 OFFCURVE",
"296 314 CURVE",
"296 78 LINE",
"224 83 OFFCURVE",
"167 120 OFFCURVE",
"124 165 CURVE",
"66 101 LINE",
"121 42 OFFCURVE",
"200 -3 OFFCURVE",
"295 -3 CURVE"
);
},
{
closed = 1;
nodes = (
"191 581 OFFCURVE",
"227 618 OFFCURVE",
"296 626 CURVE",
"296 418 LINE",
"231 446 OFFCURVE",
"191 474 OFFCURVE",
"191 529 CURVE SMOOTH"
);
},
{
closed = 1;
nodes = (
"475 130 OFFCURVE",
"441 91 OFFCURVE",
"366 79 CURVE",
"366 294 LINE",
"456 265 OFFCURVE",
"475 219 OFFCURVE",
"475 182 CURVE SMOOTH"
);
}
);
width = 644;
}
);
unicode = 0024;
},
{
glyphname = percent;
layers = (
{
hints = (
{
place = "{30, 77}";
type = Stem;
},
{
place = "{290, 76}";
type = Stem;
},
{
place = "{458, 77}";
type = Stem;
},
{
place = "{717, 77}";
type = Stem;
},
{
horizontal = 1;
place = "{-11, 69}";
type = Stem;
},
{
horizontal = 1;
place = "{-16, 21}";
target = up;
type = BottomGhost;
},
{
horizontal = 1;
place = "{-3, 21}";
target = up;
type = BottomGhost;
},
{
horizontal = 1;
place = "{283, 68}";
type = Stem;
},
{
horizontal = 1;
place = "{356, 69}";
type = Stem;
},
{
horizontal = 1;
place = "{653, 68}";
type = Stem;
},
{
horizontal = 1;
place = "{708, -20}";
target = down;
type = TopGhost;
}
);
layerId = "52A54639-B708-4391-8FEC-DE0E18BC7F23";
paths = (
{
closed = 1;
nodes = (
"366 641 OFFCURVE",
"300 721 OFFCURVE",
"199 721 CURVE SMOOTH",
"101 721 OFFCURVE",
"30 640 OFFCURVE",
"30 540 CURVE SMOOTH",
"30 437 OFFCURVE",
"99 356 OFFCURVE",
"198 356 CURVE SMOOTH",
"298 356 OFFCURVE",
"366 439 OFFCURVE",
"366 541 CURVE SMOOTH"
);
},
{
closed = 1;
nodes = (
"694 708 LINE",
"617 719 LINE",
"125 -3 LINE",
"202 -16 LINE"
);
},
{
closed = 1;
nodes = (
"290 472 OFFCURVE",
"256 425 OFFCURVE",
"199 425 CURVE SMOOTH",
"143 425 OFFCURVE",
"107 471 OFFCURVE",
"107 540 CURVE SMOOTH",
"107 605 OFFCURVE",
"142 653 OFFCURVE",
"198 653 CURVE SMOOTH",
"250 653 OFFCURVE",
"290 607 OFFCURVE",
"290 536 CURVE SMOOTH"
);
},
{
closed = 1;
nodes = (
"794 272 OFFCURVE",
"727 351 OFFCURVE",
"626 351 CURVE SMOOTH",
"529 351 OFFCURVE",
"458 271 OFFCURVE",
"458 170 CURVE SMOOTH",
"458 71 OFFCURVE",
"525 -11 OFFCURVE",
"625 -11 CURVE SMOOTH",
"725 -11 OFFCURVE",
"794 71 OFFCURVE",
"794 171 CURVE SMOOTH"
);
},
{
closed = 1;
nodes = (
"717 106 OFFCURVE",
"683 58 OFFCURVE",
"626 58 CURVE SMOOTH",
"574 58 OFFCURVE",
"535 101 OFFCURVE",
"535 170 CURVE SMOOTH",
"535 238 OFFCURVE",
"569 283 OFFCURVE",
"625 283 CURVE SMOOTH",
"680 283 OFFCURVE",
"717 238 OFFCURVE",
"717 170 CURVE SMOOTH"
);
}
);
width = 826;
}
);
unicode = 0025;
},
{
glyphname = ampersand;
layers = (
{
hints = (
{
place = "{32, 105}";
type = Stem;
},
{
place = "{132, 94}";
type = Stem;
},
{
place = "{398, 92}";
type = Stem;
},
{
horizontal = 1;
place = "{-11, 80}";
type = Stem;
},
{
horizontal = 1;
place = "{-5, 21}";
target = up;
type = BottomGhost;
},
{
horizontal = 1;
place = "{640, 79}";
type = Stem;
}
);
layerId = "52A54639-B708-4391-8FEC-DE0E18BC7F23";
paths = (
{
closed = 1;
nodes = (
"558 373 LINE",
"534 320 OFFCURVE",
"510 274 OFFCURVE",
"478 227 CURVE",
"337 383 LINE",
"428 422 OFFCURVE",
"490 474 OFFCURVE",
"490 563 CURVE SMOOTH",
"490 648 OFFCURVE",
"419 719 OFFCURVE",
"314 719 CURVE SMOOTH",
"210 719 OFFCURVE",
"132 652 OFFCURVE",
"132 556 CURVE SMOOTH",
"132 501 OFFCURVE",
"158 454 OFFCURVE",
"197 403 CURVE",
"93 363 OFFCURVE",
"32 293 OFFCURVE",
"32 192 CURVE SMOOTH",
"32 68 OFFCURVE",
"131 -11 OFFCURVE",
"259 -11 CURVE SMOOTH",
"347 -11 OFFCURVE",
"413 25 OFFCURVE",
"473 86 CURVE",
"561 -5 LINE",
"667 16 LINE",
"535 161 LINE",
"574 217 OFFCURVE",
"610 282 OFFCURVE",
"641 346 CURVE"
);
},
{
closed = 1;
nodes = (
"361 640 OFFCURVE",
"398 607 OFFCURVE",
"398 558 CURVE SMOOTH",
"398 506 OFFCURVE",
"350 464 OFFCURVE",
"286 439 CURVE",
"249 483 OFFCURVE",
"226 519 OFFCURVE",
"226 555 CURVE SMOOTH",
"226 607 OFFCURVE",
"264 640 OFFCURVE",
"313 640 CURVE SMOOTH"
);
},
{
closed = 1;
nodes = (
"417 152 LINE",
"377 104 OFFCURVE",
"327 69 OFFCURVE",
"267 69 CURVE SMOOTH",
"190 69 OFFCURVE",
"137 125 OFFCURVE",
"137 197 CURVE SMOOTH",
"137 262 OFFCURVE",
"177 307 OFFCURVE",
"249 340 CURVE"
);
}
);
width = 671;
}
);
unicode = 0026;
},
{
glyphname = quotesingle;
layers = (
{
hints = (
{
horizontal = 1;
place = "{707, -20}";
target = down;
type = TopGhost;
},
{
place = "{49, 136}";
type = Stem;
}
);
layerId = "52A54639-B708-4391-8FEC-DE0E18BC7F23";
paths = (
{
closed = 1;
nodes = (
"49 426 LINE",
"112 426 LINE",
"175 662 LINE",
"185 707 LINE",
"74 707 LINE"
);
}
);
width = 233;
}
);
unicode = 0027;
},
{
glyphname = parenleft;
layers = (
{
hints = (
{
horizontal = 1;
place = "{-158, 890}";
type = Stem;
},
{
place = "{66, 99}";
type = Stem;
}
);
layerId = "52A54639-B708-4391-8FEC-DE0E18BC7F23";
paths = (
{
closed = 1;
nodes = (
"165 438 OFFCURVE",
"225 555 OFFCURVE",
"352 671 CURVE",
"299 732 LINE",
"150 609 OFFCURVE",
"66 469 OFFCURVE",
"66 285 CURVE SMOOTH",
"66 97 OFFCURVE",
"155 -48 OFFCURVE",
"300 -158 CURVE",
"351 -99 LINE",
"226 17 OFFCURVE",
"165 132 OFFCURVE",
"165 285 CURVE SMOOTH"
);
}
);
width = 376;
}
);
unicode = 0028;
},
{
glyphname = parenright;
layers = (
{
hints = (
{
horizontal = 1;
place = "{-158, 890}";
type = Stem;
},
{
place = "{213, 99}";
type = Stem;
}
);
layerId = "52A54639-B708-4391-8FEC-DE0E18BC7F23";
paths = (
{
closed = 1;
nodes = (
"213 134 OFFCURVE",
"155 17 OFFCURVE",
"26 -99 CURVE",
"78 -158 LINE",
"226 -42 OFFCURVE",
"312 98 OFFCURVE",
"312 285 CURVE SMOOTH",
"312 467 OFFCURVE",
"231 606 OFFCURVE",
"78 732 CURVE",
"25 671 LINE",
"157 555 OFFCURVE",
"213 436 OFFCURVE",
"213 285 CURVE SMOOTH"
);
}
);
width = 379;
}
);
unicode = 0029;
},
{
glyphname = asterisk;
layers = (
{
hints = (
{
horizontal = 1;
place = "{423, 300}";
type = Stem;
},
{
place = "{155, 65}";
type = Stem;
}
);
layerId = "52A54639-B708-4391-8FEC-DE0E18BC7F23";
paths = (
{
closed = 1;
nodes = (
"135 599 LINE",
"31 563 LINE",
"52 502 LINE",
"155 537 LINE",
"155 423 LINE",
"220 423 LINE",
"220 536 LINE",
"322 502 LINE",
"342 563 LINE",
"241 598 LINE",
"304 688 LINE",
"252 723 LINE",
"188 637 LINE",
"123 723 LINE",
"70 686 LINE"
);
}
);
width = 374;
}
);
unicode = 002A;
},
{
glyphname = plus;
layers = (
{
hints = (
{
horizontal = 1;
place = "{301, 90}";
type = Stem;
},
{
place = "{242, 93}";
type = Stem;
}
);
layerId = "52A54639-B708-4391-8FEC-DE0E18BC7F23";
paths = (
{
closed = 1;
nodes = (
"335 592 LINE",
"242 592 LINE",
"242 391 LINE",
"42 391 LINE",
"42 301 LINE",
"242 301 LINE",
"242 99 LINE",
"335 99 LINE",
"335 301 LINE",
"537 301 LINE",
"537 391 LINE",
"335 391 LINE"
);
}
);
width = 578;
}
);
unicode = 002B;
},
{
glyphname = comma;
layers = (
{
hints = (
{
horizontal = 1;
place = "{-143, 276}";
type = Stem;
},
{
place = "{13, 158}";
type = Stem;
}
);
layerId = "52A54639-B708-4391-8FEC-DE0E18BC7F23";
paths = (
{
closed = 1;
nodes = (
"171 133 LINE",
"60 133 LINE",
"13 -143 LINE",
"93 -143 LINE"
);
}
);
width = 206;
}
);
unicode = 002C;
},
{
glyphname = hyphen;
layers = (
{
hints = (
{
horizontal = 1;
place = "{233, 92}";
type = Stem;
},
{
place = "{31, 281}";
type = Stem;
}
);
layerId = "52A54639-B708-4391-8FEC-DE0E18BC7F23";
paths = (
{
closed = 1;
nodes = (
"312 325 LINE",
"31 325 LINE",
"31 233 LINE",
"312 233 LINE"
);
}
);
width = 344;
}
);
unicode = 002D;
},
{
glyphname = period;
layers = (
{
hints = (
{
horizontal = 1;
place = "{-11, 137}";
type = Stem;
},
{
place = "{54, 136}";
type = Stem;
}
);
layerId = "52A54639-B708-4391-8FEC-DE0E18BC7F23";
paths = (
{
closed = 1;
nodes = (
"54 19 OFFCURVE",
"85 -11 OFFCURVE",
"122 -11 CURVE SMOOTH",
"159 -11 OFFCURVE",
"190 19 OFFCURVE",
"190 58 CURVE SMOOTH",
"190 98 OFFCURVE",
"159 126 OFFCURVE",
"122 126 CURVE SMOOTH",
"85 126 OFFCURVE",
"54 98 OFFCURVE",
"54 58 CURVE SMOOTH"
);
}
);
width = 227;
}
);
unicode = 002E;
},
{
glyphname = slash;
layers = (
{
hints = (
{
horizontal = 1;
place = "{-96, 882}";
type = Stem;
},
{
place = "{3, 515}";
type = Stem;
}
);
layerId = "52A54639-B708-4391-8FEC-DE0E18BC7F23";
paths = (
{
closed = 1;
nodes = (
"518 773 LINE",
"435 786 LINE",
"3 -86 LINE",
"86 -96 LINE"
);
}
);
width = 516;
}
);
unicode = 002F;
},
{
glyphname = zero;
layers = (
{
hints = (
{
horizontal = 1;
place = "{-14, 92}";
type = Stem;
},
{
horizontal = 1;
place = "{626, 92}";
type = Stem;
},
{
place = "{37, 105}";
type = Stem;
},
{
place = "{483, 105}";
type = Stem;
}
);
layerId = "52A54639-B708-4391-8FEC-DE0E18BC7F23";
paths = (
{
closed = 1;
nodes = (
"134 718 OFFCURVE",
"37 565 OFFCURVE",
"37 353 CURVE SMOOTH",
"37 134 OFFCURVE",
"134 -14 OFFCURVE",
"312 -14 CURVE SMOOTH",
"493 -14 OFFCURVE",
"588 141 OFFCURVE",
"588 352 CURVE SMOOTH",
"588 568 OFFCURVE",
"491 718 OFFCURVE",
"313 718 CURVE SMOOTH"
);
},
{
closed = 1;
nodes = (
"420 626 OFFCURVE",
"483 515 OFFCURVE",
"483 352 CURVE SMOOTH",
"483 193 OFFCURVE",
"421 78 OFFCURVE",
"314 78 CURVE SMOOTH",
"202 78 OFFCURVE",
"142 189 OFFCURVE",
"142 356 CURVE SMOOTH",
"142 513 OFFCURVE",
"204 626 OFFCURVE",
"312 626 CURVE SMOOTH"
);
}
);
width = 625;
}
);
unicode = 0030;
},
{
glyphname = one;
layers = (
{
hints = (
{
horizontal = 1;
place = "{0, 21}";
target = up;
type = BottomGhost;
},
{
horizontal = 1;
place = "{612, 96}";
type = Stem;
},
{
place = "{220, 102}";
type = Stem;
}
);
layerId = "52A54639-B708-4391-8FEC-DE0E18BC7F23";
paths = (
{
closed = 1;
nodes = (
"322 708 LINE",
"104 708 LINE",
"104 612 LINE",
"220 612 LINE",
"220 0 LINE",
"322 0 LINE"
);
}
);
width = 518;
}
);
unicode = 0031;
},
{
glyphname = two;
layers = (
{
hints = (
{
horizontal = 1;
place = "{0, 90}";
type = Stem;
},
{
horizontal = 1;
place = "{626, 91}";
type = Stem;
},
{
place = "{417, 106}";
type = Stem;
}
);
layerId = "52A54639-B708-4391-8FEC-DE0E18BC7F23";
paths = (
{
closed = 1;
nodes = (
"166 717 OFFCURVE",
"78 651 OFFCURVE",
"57 503 CURVE",
"164 503 LINE",
"175 577 OFFCURVE",
"223 626 OFFCURVE",
"300 626 CURVE SMOOTH",
"384 626 OFFCURVE",
"417 577 OFFCURVE",
"417 525 CURVE SMOOTH",
"417 473 OFFCURVE",
"384 410 OFFCURVE",
"305 313 CURVE",
"46 0 LINE",
"536 0 LINE",
"536 90 LINE",
"242 90 LINE",
"385 262 LINE SMOOTH",
"481 379 OFFCURVE",
"523 448 OFFCURVE",
"523 522 CURVE SMOOTH",
"523 632 OFFCURVE",
"430 717 OFFCURVE",
"300 717 CURVE SMOOTH"
);
}
);
width = 591;
}
);
unicode = 0032;
},
{
glyphname = three;
layers = (
{
hints = (
{
horizontal = 1;
place = "{-13, 91}";
type = Stem;
},
{
horizontal = 1;
place = "{364, 74}";
type = Stem;
},
{
horizontal = 1;
place = "{626, 89}";
type = Stem;
},
{
place = "{437, 102}";
type = Stem;
}
);
layerId = "52A54639-B708-4391-8FEC-DE0E18BC7F23";
paths = (
{
closed = 1;
nodes = (
"513 630 LINE",
"513 715 LINE",
"85 715 LINE",
"85 626 LINE",
"385 626 LINE",
"181 412 LINE",
"195 358 LINE",
"218 363 OFFCURVE",
"247 364 OFFCURVE",
"269 364 CURVE SMOOTH",
"364 364 OFFCURVE",
"437 323 OFFCURVE",
"437 222 CURVE SMOOTH",
"437 132 OFFCURVE",
"375 78 OFFCURVE",
"291 78 CURVE SMOOTH",
"208 78 OFFCURVE",
"156 124 OFFCURVE",
"123 208 CURVE",
"43 148 LINE",
"84 52 OFFCURVE",
"171 -13 OFFCURVE",
"292 -13 CURVE SMOOTH",
"436 -13 OFFCURVE",
"539 92 OFFCURVE",
"539 224 CURVE SMOOTH",
"539 356 OFFCURVE",
"446 433 OFFCURVE",
"323 438 CURVE"
);
}
);
width = 606;
}
);
unicode = 0033;
},
{
glyphname = four;
layers = (
{
hints = (
{
place = "{405, 100}";
type = Stem;
},
{
horizontal = 1;
place = "{0, 21}";
target = up;
type = BottomGhost;
},
{
horizontal = 1;
place = "{150, 85}";
type = Stem;
},
{
horizontal = 1;
place = "{609, 102}";
type = Stem;
},
{
horizontal = 1;
place = "{711, -20}";
target = down;
type = TopGhost;
}
);
layerId = "52A54639-B708-4391-8FEC-DE0E18BC7F23";
paths = (
{
closed = 1;
nodes = (
"366 711 LINE",
"18 237 LINE",
"37 150 LINE",
"405 150 LINE",
"405 0 LINE",
"505 0 LINE",
"505 150 LINE",
"601 150 LINE",
"601 235 LINE",
"505 235 LINE",
"505 711 LINE"
);
},
{
closed = 1;
nodes = (
"405 235 LINE",
"133 235 LINE",
"405 609 LINE"
);
}
);
width = 624;
}
);
unicode = 0034;
},
{
glyphname = five;
layers = (
{
hints = (
{
horizontal = 1;
place = "{-13, 90}";
type = Stem;
},
{
horizontal = 1;
place = "{360, 87}";
type = Stem;
},
{
horizontal = 1;
place = "{615, 89}";
type = Stem;
},
{
place = "{432, 103}";
type = Stem;
}
);
layerId = "52A54639-B708-4391-8FEC-DE0E18BC7F23";
paths = (
{
closed = 1;
nodes = (
"166 339 LINE",
"199 352 OFFCURVE",
"231 360 OFFCURVE",
"267 360 CURVE SMOOTH",
"361 360 OFFCURVE",
"432 302 OFFCURVE",
"432 221 CURVE SMOOTH",
"432 136 OFFCURVE",
"373 77 OFFCURVE",
"276 77 CURVE SMOOTH",
"211 77 OFFCURVE",
"154 106 OFFCURVE",
"103 154 CURVE",
"44 85 LINE",
"109 24 OFFCURVE",
"176 -13 OFFCURVE",
"276 -13 CURVE SMOOTH",
"432 -13 OFFCURVE",
"535 81 OFFCURVE",
"535 225 CURVE SMOOTH",
"535 363 OFFCURVE",
"425 447 OFFCURVE",
"294 447 CURVE SMOOTH",
"255 447 OFFCURVE",
"223 438 OFFCURVE",
"186 426 CURVE",
"205 615 LINE",
"504 615 LINE",
"510 704 LINE",
"123 704 LINE",
"93 375 LINE"
);
}
);
width = 601;
}
);
unicode = 0035;
},
{
glyphname = six;
layers = (
{
hints = (
{
horizontal = 1;
place = "{-14, 85}";
type = Stem;
},
{
horizontal = 1;
place = "{353, 80}";
type = Stem;
},
{
horizontal = 1;
place = "{706, -20}";
target = down;
type = TopGhost;
},
{
place = "{35, 104}";
type = Stem;
},
{
place = "{436, 103}";
type = Stem;
}
);
layerId = "52A54639-B708-4391-8FEC-DE0E18BC7F23";
paths = (
{
closed = 1;
nodes = (
"301 706 LINE",
"138 458 LINE",
"67 355 OFFCURVE",
"35 294 OFFCURVE",
"35 224 CURVE SMOOTH",
"35 77 OFFCURVE",
"146 -14 OFFCURVE",
"291 -14 CURVE SMOOTH",
"432 -14 OFFCURVE",
"539 82 OFFCURVE",
"539 219 CURVE SMOOTH",
"539 351 OFFCURVE",
"443 433 OFFCURVE",
"320 433 CURVE SMOOTH",
"275 433 OFFCURVE",
"245 428 OFFCURVE",
"208 402 CURVE",
"414 706 LINE"
);
},
{
closed = 1;
nodes = (
"139 290 OFFCURVE",
"199 353 OFFCURVE",
"289 353 CURVE SMOOTH",
"377 353 OFFCURVE",
"436 296 OFFCURVE",
"436 216 CURVE SMOOTH",
"436 132 OFFCURVE",
"376 71 OFFCURVE",
"289 71 CURVE SMOOTH",
"206 71 OFFCURVE",
"139 134 OFFCURVE",
"139 213 CURVE SMOOTH"
);
}
);
width = 572;
}
);
unicode = 0036;
},
{
glyphname = seven;
layers = (
{
hints = (
{
horizontal = 1;
place = "{0, 21}";
target = up;
type = BottomGhost;
},
{
horizontal = 1;
place = "{615, 89}";
type = Stem;
},
{
place = "{58, 489}";
type = Stem;
}
);
layerId = "52A54639-B708-4391-8FEC-DE0E18BC7F23";
paths = (
{
closed = 1;
nodes = (
"547 617 LINE",
"547 704 LINE",
"58 704 LINE",
"58 615 LINE",
"437 615 LINE",
"99 0 LINE",
"212 0 LINE"
);
}
);
width = 595;
}
);
unicode = 0037;
},
{
glyphname = eight;
layers = (
{
hints = (
{
place = "{38, 103}";
type = Stem;
},
{
place = "{64, 99}";
type = Stem;
},
{
place = "{422, 99}";
type = Stem;
},
{
place = "{443, 103}";
type = Stem;
},
{
horizontal = 1;
place = "{-12, 84}";
type = Stem;
},
{
horizontal = 1;
place = "{324, 81}";
type = Stem;
},
{
horizontal = 1;
place = "{633, 84}";
type = Stem;
}
);
layerId = "52A54639-B708-4391-8FEC-DE0E18BC7F23";
paths = (
{
closed = 1;
nodes = (
"521 638 OFFCURVE",
"416 717 OFFCURVE",
"292 717 CURVE SMOOTH",
"165 717 OFFCURVE",
"64 638 OFFCURVE",
"64 529 CURVE SMOOTH",
"64 456 OFFCURVE",
"104 401 OFFCURVE",
"172 369 CURVE",
"87 333 OFFCURVE",
"38 274 OFFCURVE",
"38 191 CURVE SMOOTH",
"38 75 OFFCURVE",
"147 -12 OFFCURVE",
"292 -12 CURVE SMOOTH",
"435 -12 OFFCURVE",
"546 69 OFFCURVE",
"546 193 CURVE SMOOTH",
"546 274 OFFCURVE",
"495 335 OFFCURVE",
"411 368 CURVE",
"478 403 OFFCURVE",
"521 453 OFFCURVE",
"521 526 CURVE SMOOTH"
);
},
{
closed = 1;
nodes = (
"163 585 OFFCURVE",
"218 633 OFFCURVE",
"292 633 CURVE SMOOTH",
"365 633 OFFCURVE",
"422 585 OFFCURVE",
"422 521 CURVE SMOOTH",
"422 453 OFFCURVE",
"364 405 OFFCURVE",
"292 405 CURVE SMOOTH",
"220 405 OFFCURVE",
"163 455 OFFCURVE",
"163 520 CURVE SMOOTH"
);
},
{
closed = 1;
nodes = (
"141 272 OFFCURVE",
"203 324 OFFCURVE",
"292 324 CURVE SMOOTH",
"380 324 OFFCURVE",
"443 272 OFFCURVE",
"443 199 CURVE SMOOTH",
"443 130 OFFCURVE",
"383 72 OFFCURVE",
"292 72 CURVE SMOOTH",
"199 72 OFFCURVE",
"141 130 OFFCURVE",
"141 199 CURVE SMOOTH"
);
}
);
width = 583;
}
);
unicode = 0038;
},
{
glyphname = nine;
layers = (
{
hints = (
{
horizontal = 1;
place = "{-2, 21}";
target = up;
type = BottomGhost;
},
{
horizontal = 1;
place = "{268, 84}";
type = Stem;
},
{
horizontal = 1;
place = "{634, 86}";
type = Stem;
},
{
place = "{40, 104}";
type = Stem;
},
{
place = "{440, 104}";
type = Stem;
}
);
layerId = "52A54639-B708-4391-8FEC-DE0E18BC7F23";
paths = (
{
closed = 1;
nodes = (
"278 -2 LINE",
"449 253 LINE SMOOTH",
"500 328 OFFCURVE",
"544 398 OFFCURVE",
"544 480 CURVE SMOOTH",
"544 627 OFFCURVE",
"435 720 OFFCURVE",
"288 720 CURVE SMOOTH",
"149 720 OFFCURVE",
"40 622 OFFCURVE",
"40 486 CURVE SMOOTH",
"40 357 OFFCURVE",
"140 268 OFFCURVE",
"262 268 CURVE SMOOTH",
"307 268 OFFCURVE",
"335 277 OFFCURVE",
"371 304 CURVE",
"166 -2 LINE"
);
},
{
closed = 1;
nodes = (
"440 416 OFFCURVE",
"377 352 OFFCURVE",
"291 352 CURVE SMOOTH",
"204 352 OFFCURVE",
"144 411 OFFCURVE",
"144 492 CURVE SMOOTH",
"144 571 OFFCURVE",
"203 634 OFFCURVE",
"290 634 CURVE SMOOTH",
"373 634 OFFCURVE",
"440 571 OFFCURVE",
"440 492 CURVE SMOOTH"
);
}
);
width = 580;
}
);
unicode = 0039;
},
{
glyphname = colon;
layers = (
{
hints = (
{
horizontal = 1;
place = "{-11, 138}";
type = Stem;
},
{
horizontal = 1;
place = "{364, 137}";
type = Stem;
},
{
place = "{54, 137}";
type = Stem;
}
);
layerId = "52A54639-B708-4391-8FEC-DE0E18BC7F23";
paths = (
{
closed = 1;
nodes = (
"54 392 OFFCURVE",
"82 364 OFFCURVE",
"123 364 CURVE SMOOTH",
"159 364 OFFCURVE",
"191 392 OFFCURVE",
"191 433 CURVE SMOOTH",
"191 473 OFFCURVE",
"159 501 OFFCURVE",
"123 501 CURVE SMOOTH",
"82 501 OFFCURVE",
"54 473 OFFCURVE",
"54 433 CURVE SMOOTH"
);
},
{
closed = 1;
nodes = (
"54 19 OFFCURVE",
"82 -11 OFFCURVE",
"123 -11 CURVE SMOOTH",
"159 -11 OFFCURVE",
"191 19 OFFCURVE",
"191 59 CURVE SMOOTH",
"191 99 OFFCURVE",
"159 127 OFFCURVE",
"123 127 CURVE SMOOTH",
"82 127 OFFCURVE",
"54 99 OFFCURVE",
"54 59 CURVE SMOOTH"
);
}
);
width = 228;
}
);
unicode = 003A;
},
{
glyphname = semicolon;
layers = (
{
hints = (
{
horizontal = 1;
place = "{364, 137}";
type = Stem;
},
{
place = "{42, 138}";
type = Stem;
}
);
layerId = "52A54639-B708-4391-8FEC-DE0E18BC7F23";
paths = (
{
closed = 1;
nodes = (
"42 392 OFFCURVE",
"71 364 OFFCURVE",
"111 364 CURVE SMOOTH",
"147 364 OFFCURVE",
"180 392 OFFCURVE",
"180 433 CURVE SMOOTH",
"180 473 OFFCURVE",
"147 501 OFFCURVE",
"111 501 CURVE SMOOTH",
"71 501 OFFCURVE",
"42 473 OFFCURVE",
"42 433 CURVE SMOOTH"
);
},
{
closed = 1;
nodes = (
"173 133 LINE",
"61 133 LINE",
"14 -143 LINE",
"94 -143 LINE"
);
}
);
width = 210;
}
);
unicode = 003B;
},
{
glyphname = less;
layers = (
{
hints = (
{
horizontal = 1;
place = "{77, 534}";
type = Stem;
},
{
place = "{67, 481}";
type = Stem;
}
);
layerId = "52A54639-B708-4391-8FEC-DE0E18BC7F23";
paths = (
{
closed = 1;
nodes = (
"548 611 LINE",
"67 388 LINE",
"67 300 LINE",
"548 77 LINE",
"548 172 LINE",
"171 345 LINE",
"548 515 LINE"
);
}
);
width = 615;
}
);
unicode = 003C;
},
{
glyphname = equal;
layers = (
{
hints = (
{
horizontal = 1;
place = "{186, 90}";
type = Stem;
},
{
horizontal = 1;
place = "{432, 91}";
type = Stem;
},
{
place = "{42, 477}";
type = Stem;
}
);
layerId = "52A54639-B708-4391-8FEC-DE0E18BC7F23";
paths = (
{
closed = 1;
nodes = (
"42 523 LINE",
"42 432 LINE",
"519 432 LINE",
"519 523 LINE"
);
},
{
closed = 1;
nodes = (
"42 276 LINE",
"42 186 LINE",
"519 186 LINE",
"519 276 LINE"
);
}
);
width = 561;
}
);
unicode = 003D;
},
{
glyphname = greater;
layers = (
{
hints = (
{
horizontal = 1;
place = "{78, 533}";
type = Stem;
},
{
place = "{67, 480}";
type = Stem;
}
);
layerId = "52A54639-B708-4391-8FEC-DE0E18BC7F23";
paths = (
{
closed = 1;
nodes = (
"67 514 LINE",
"443 344 LINE",
"67 174 LINE",
"67 78 LINE",
"547 299 LINE",
"547 389 LINE",
"67 611 LINE"
);
}
);
width = 614;
}
);
unicode = 003E;
},
{
glyphname = question;
layers = (
{
hints = (
{
place = "{132, 136}";
type = Stem;
},
{
place = "{146, 97}";
type = Stem;
},
{
place = "{306, 100}";
type = Stem;
},
{
horizontal = 1;
place = "{-10, 131}";
type = Stem;
},
{
horizontal = 1;
place = "{625, 91}";
type = Stem;
}
);
layerId = "52A54639-B708-4391-8FEC-DE0E18BC7F23";
paths = (
{
closed = 1;
nodes = (
"269 625 OFFCURVE",
"306 582 OFFCURVE",
"306 536 CURVE SMOOTH",
"306 491 OFFCURVE",
"274 459 OFFCURVE",
"238 427 CURVE SMOOTH",
"195 387 OFFCURVE",
"146 338 OFFCURVE",
"146 254 CURVE SMOOTH",
"146 195 LINE",
"243 195 LINE",
"243 227 LINE SMOOTH",
"243 292 OFFCURVE",
"264 323 OFFCURVE",
"312 366 CURVE",
"365 411 OFFCURVE",
"406 465 OFFCURVE",
"406 544 CURVE SMOOTH",
"406 647 OFFCURVE",
"329 716 OFFCURVE",
"219 716 CURVE SMOOTH",
"148 716 OFFCURVE",
"87 687 OFFCURVE",
"52 643 CURVE",
"52 536 LINE",
"100 600 OFFCURVE",
"153 625 OFFCURVE",
"205 625 CURVE SMOOTH"
);
},
{
closed = 1;
nodes = (
"132 15 OFFCURVE",
"163 -10 OFFCURVE",
"200 -10 CURVE SMOOTH",
"237 -10 OFFCURVE",
"268 15 OFFCURVE",
"268 56 CURVE SMOOTH",
"268 92 OFFCURVE",
"237 121 OFFCURVE",
"200 121 CURVE SMOOTH",
"163 121 OFFCURVE",
"132 92 OFFCURVE",
"132 56 CURVE SMOOTH"
);
}
);
width = 451;
}
);
unicode = 003F;
},
{
glyphname = at;
layers = (
{
hints = (
{
place = "{47, 52}";
type = Stem;
},
{
place = "{230, 92}";
type = Stem;
},
{
place = "{558, 77}";
type = Stem;
},
{
place = "{812, 50}";
type = Stem;
},
{
horizontal = 1;
place = "{-105, 45}";
type = Stem;
},
{
horizontal = 1;
place = "{100, 52}";
type = Stem;
},
{
horizontal = 1;
place = "{102, 76}";
type = Stem;
},
{
horizontal = 1;
place = "{445, 78}";
type = Stem;
},
{
horizontal = 1;
place = "{501, -20}";
target = down;
type = TopGhost;
},
{
horizontal = 1;
place = "{673, 45}";
type = Stem;
}
);
layerId = "52A54639-B708-4391-8FEC-DE0E18BC7F23";
paths = (
{
closed = 1;
nodes = (
"720 13 LINE",
"643 -36 OFFCURVE",
"570 -60 OFFCURVE",
"477 -60 CURVE SMOOTH",
"248 -60 OFFCURVE",
"99 99 OFFCURVE",
"99 305 CURVE SMOOTH",
"99 513 OFFCURVE",
"253 673 OFFCURVE",
"463 673 CURVE SMOOTH",
"664 673 OFFCURVE",
"812 528 OFFCURVE",
"812 343 CURVE SMOOTH",
"812 227 OFFCURVE",
"760 152 OFFCURVE",
"696 152 CURVE SMOOTH",
"653 152 OFFCURVE",
"635 188 OFFCURVE",
"635 237 CURVE",
"674 501 LINE",
"589 510 LINE",
"579 446 LINE",
"554 490 OFFCURVE",
"514 523 OFFCURVE",
"447 523 CURVE SMOOTH",
"328 523 OFFCURVE",
"230 418 OFFCURVE",
"230 290 CURVE SMOOTH",
"230 179 OFFCURVE",
"306 102 OFFCURVE",
"406 102 CURVE SMOOTH",
"474 102 OFFCURVE",
"521 137 OFFCURVE",
"556 184 CURVE",
"575 131 OFFCURVE",
"610 100 OFFCURVE",
"674 100 CURVE SMOOTH",
"778 100 OFFCURVE",
"862 191 OFFCURVE",
"862 352 CURVE SMOOTH",
"862 556 OFFCURVE",
"685 718 OFFCURVE",
"463 718 CURVE SMOOTH",
"228 718 OFFCURVE",
"47 534 OFFCURVE",
"47 303 CURVE SMOOTH",
"47 74 OFFCURVE",
"224 -105 OFFCURVE",
"470 -105 CURVE SMOOTH",
"574 -105 OFFCURVE",
"663 -74 OFFCURVE",
"743 -21 CURVE"
);
},
{
closed = 1;
nodes = (
"520 445 OFFCURVE",
"558 398 OFFCURVE",
"558 334 CURVE SMOOTH",
"558 255 OFFCURVE",
"498 178 OFFCURVE",
"422 178 CURVE SMOOTH",
"361 178 OFFCURVE",
"322 226 OFFCURVE",
"322 295 CURVE SMOOTH",
"322 376 OFFCURVE",
"379 445 OFFCURVE",
"456 445 CURVE SMOOTH"
);
}
);
width = 903;
}
);
unicode = 0040;
},
{
glyphname = A;
layers = (
{
hints = (
{
horizontal = 1;
place = "{0, 21}";
target = up;
type = BottomGhost;
},
{
horizontal = 1;
place = "{185, 88}";
type = Stem;
},
{
horizontal = 1;
place = "{705, -20}";
target = down;
type = TopGhost;
},
{
place = "{24, 703}";
type = Stem;
}
);
layerId = "52A54639-B708-4391-8FEC-DE0E18BC7F23";
paths = (
{
closed = 1;
nodes = (
"537 185 LINE",
"615 0 LINE",
"727 0 LINE",
"420 705 LINE",
"331 705 LINE",
"24 0 LINE",
"134 0 LINE",
"213 185 LINE"
);
},
{
closed = 1;
nodes = (
"375 584 LINE",
"501 273 LINE",
"249 273 LINE"
);
}
);
width = 751;
}
);
unicode = 0041;
},
{
glyphname = B;
layers = (
{
hints = (
{
place = "{78, 101}";
type = Stem;
},
{
place = "{447, 102}";
type = Stem;
},
{
place = "{505, 103}";
type = Stem;
},
{
horizontal = 1;
place = "{0, 88}";
type = Stem;
},
{
horizontal = 1;
place = "{316, 84}";
type = Stem;
},
{
horizontal = 1;
place = "{617, 87}";
type = Stem;
}
);
layerId = "52A54639-B708-4391-8FEC-DE0E18BC7F23";
paths = (
{
closed = 1;
nodes = (
"78 0 LINE",
"328 0 LINE SMOOTH",
"525 0 OFFCURVE",
"608 86 OFFCURVE",
"608 194 CURVE SMOOTH",
"608 282 OFFCURVE",
"558 347 OFFCURVE",
"446 366 CURVE",
"514 391 OFFCURVE",
"549 451 OFFCURVE",
"549 527 CURVE SMOOTH",
"549 656 OFFCURVE",
"432 704 OFFCURVE",
"305 704 CURVE SMOOTH",
"78 704 LINE"
);
},
{
closed = 1;
nodes = (
"179 617 LINE",
"306 617 LINE SMOOTH",
"391 617 OFFCURVE",
"447 583 OFFCURVE",
"447 510 CURVE SMOOTH",
"447 447 OFFCURVE",
"402 400 OFFCURVE",
"305 400 CURVE SMOOTH",
"179 400 LINE"
);
},
{
closed = 1;
nodes = (
"179 316 LINE",
"309 316 LINE SMOOTH",
"453 316 OFFCURVE",
"505 275 OFFCURVE",
"505 202 CURVE SMOOTH",
"505 129 OFFCURVE",
"453 88 OFFCURVE",
"336 88 CURVE SMOOTH",
"179 88 LINE"
);
}
);
width = 650;
}
);
unicode = 0042;
},
{
glyphname = C;
layers = (
{
hints = (
{
horizontal = 1;
place = "{-14, 94}";
type = Stem;
},
{
horizontal = 1;
place = "{625, 93}";
type = Stem;
},
{
place = "{38, 106}";
type = Stem;
}
);
layerId = "52A54639-B708-4391-8FEC-DE0E18BC7F23";
paths = (
{
closed = 1;
nodes = (
"632 187 LINE",
"566 129 OFFCURVE",
"499 80 OFFCURVE",
"401 80 CURVE SMOOTH",
"248 80 OFFCURVE",
"144 200 OFFCURVE",
"144 352 CURVE SMOOTH",
"144 502 OFFCURVE",
"248 625 OFFCURVE",
"401 625 CURVE SMOOTH",
"506 625 OFFCURVE",
"570 587 OFFCURVE",
"619 532 CURVE",
"619 645 LINE",
"563 688 OFFCURVE",
"496 718 OFFCURVE",
"403 718 CURVE SMOOTH",
"192 718 OFFCURVE",
"38 557 OFFCURVE",
"38 351 CURVE SMOOTH",
"38 144 OFFCURVE",
"194 -14 OFFCURVE",
"399 -14 CURVE SMOOTH",
"496 -14 OFFCURVE",
"568 21 OFFCURVE",
"632 74 CURVE"
);
}
);
width = 665;
}
);
unicode = 0043;
},
{
glyphname = D;
layers = (
{
hints = (
{
horizontal = 1;
place = "{0, 92}";
type = Stem;
},
{
horizontal = 1;
place = "{611, 93}";
type = Stem;
},
{
place = "{78, 103}";
type = Stem;
},
{
place = "{578, 108}";
type = Stem;
}
);
layerId = "52A54639-B708-4391-8FEC-DE0E18BC7F23";
paths = (
{
closed = 1;
nodes = (
"78 0 LINE",
"305 0 LINE SMOOTH",
"536 0 OFFCURVE",
"686 148 OFFCURVE",
"686 353 CURVE SMOOTH",
"686 565 OFFCURVE",
"528 704 OFFCURVE",
"307 704 CURVE SMOOTH",
"78 704 LINE"
);
},
{
closed = 1;
nodes = (
"181 611 LINE",
"343 611 LINE SMOOTH",
"493 611 OFFCURVE",
"578 479 OFFCURVE",
"578 351 CURVE SMOOTH",
"578 199 OFFCURVE",
"479 92 OFFCURVE",
"303 92 CURVE SMOOTH",
"181 92 LINE"
);
}
);
width = 724;
}
);
unicode = 0044;
},
{
glyphname = E;
layers = (
{
hints = (
{
horizontal = 1;
place = "{0, 91}";
type = Stem;
},
{
horizontal = 1;
place = "{314, 88}";
type = Stem;
},
{
horizontal = 1;
place = "{613, 91}";
type = Stem;
},
{
place = "{78, 103}";
type = Stem;
}
);
layerId = "52A54639-B708-4391-8FEC-DE0E18BC7F23";
paths = (
{
closed = 1;
nodes = (
"181 314 LINE",
"525 314 LINE",
"525 402 LINE",
"181 402 LINE",
"181 613 LINE",
"555 613 LINE",
"555 704 LINE",
"78 704 LINE",
"78 0 LINE",
"565 0 LINE",
"565 91 LINE",
"181 91 LINE"
);
}
);
width = 603;
}
);
unicode = 0045;
},
{
glyphname = F;
layers = (
{
hints = (
{
horizontal = 1;
place = "{-2, 21}";
target = up;
type = BottomGhost;
},
{
horizontal = 1;
place = "{303, 90}";
type = Stem;
},
{
horizontal = 1;
place = "{613, 91}";
type = Stem;
},
{
place = "{78, 103}";
type = Stem;
}
);
layerId = "52A54639-B708-4391-8FEC-DE0E18BC7F23";
paths = (
{
closed = 1;
nodes = (
"181 303 LINE",
"520 303 LINE",
"520 393 LINE",
"181 393 LINE",
"181 613 LINE",
"552 613 LINE",
"552 704 LINE",
"78 704 LINE",
"78 -2 LINE",
"181 -2 LINE"
);
}
);
width = 602;
}
);
unicode = 0046;
},
{
glyphname = G;
layers = (
{
hints = (
{
horizontal = 1;
place = "{-16, 93}";
type = Stem;
},
{
horizontal = 1;
place = "{312, 89}";
type = Stem;
},
{
horizontal = 1;
place = "{626, 92}";
type = Stem;
},
{
place = "{38, 104}";
type = Stem;
},
{
place = "{463, 179}";
type = Stem;
},
{
place = "{662, 97}";
type = Stem;
}
);
layerId = "52A54639-B708-4391-8FEC-DE0E18BC7F23";
paths = (
{
closed = 1;
nodes = (
"662 312 LINE",
"662 168 OFFCURVE",
"551 77 OFFCURVE",
"411 77 CURVE SMOOTH",
"258 77 OFFCURVE",
"142 195 OFFCURVE",
"142 352 CURVE SMOOTH",
"142 500 OFFCURVE",
"271 626 OFFCURVE",
"426 626 CURVE SMOOTH",
"518 626 OFFCURVE",
"591 589 OFFCURVE",
"642 540 CURVE",
"642 653 LINE",
"574 700 OFFCURVE",
"496 718 OFFCURVE",
"419 718 CURVE SMOOTH",
"207 718 OFFCURVE",
"38 556 OFFCURVE",
"38 352 CURVE SMOOTH",
"38 148 OFFCURVE",
"193 -16 OFFCURVE",
"405 -16 CURVE SMOOTH",
"637 -16 OFFCURVE",
"759 149 OFFCURVE",
"759 372 CURVE SMOOTH",
"759 401 LINE",
"463 401 LINE",
"463 312 LINE"
);
}
);
width = 818;
}
);
unicode = 0047;
},
{
glyphname = H;
layers = (
{
hints = (
{
horizontal = 1;
place = "{0, 21}";
target = up;
type = BottomGhost;
},
{
horizontal = 1;
place = "{311, 94}";
type = Stem;
},
{
horizontal = 1;
place = "{705, -20}";
target = down;
type = TopGhost;
},
{
place = "{78, 102}";
type = Stem;
},
{
place = "{540, 102}";
type = Stem;
}
);
layerId = "52A54639-B708-4391-8FEC-DE0E18BC7F23";
paths = (
{
closed = 1;
nodes = (
"78 0 LINE",
"180 0 LINE",
"180 311 LINE",
"540 311 LINE",
"540 0 LINE",
"642 0 LINE",
"642 705 LINE",
"540 705 LINE",
"540 405 LINE",
"180 405 LINE",
"180 705 LINE",
"78 705 LINE"
);
}
);
width = 719;
}
);
unicode = 0048;
},
{
glyphname = I;
layers = (
{
hints = (
{
horizontal = 1;
place = "{0, 21}";
target = up;
type = BottomGhost;
},
{
horizontal = 1;
place = "{704, -20}";
target = down;
type = TopGhost;
},
{
place = "{78, 102}";
type = Stem;
}
);
layerId = "52A54639-B708-4391-8FEC-DE0E18BC7F23";
paths = (
{
closed = 1;
nodes = (
"180 704 LINE",
"78 704 LINE",
"78 0 LINE",
"180 0 LINE"
);
}
);
width = 257;
}
);
unicode = 0049;
},
{
glyphname = J;
layers = (
{
hints = (
{
horizontal = 1;
place = "{-11, 92}";
type = Stem;
},
{
horizontal = 1;
place = "{704, -20}";
target = down;
type = TopGhost;
},
{
place = "{216, 104}";
type = Stem;
}
);
layerId = "52A54639-B708-4391-8FEC-DE0E18BC7F23";
paths = (
{
closed = 1;
nodes = (
"3 25 LINE",
"22 13 OFFCURVE",
"43 3 OFFCURVE",
"67 -4 CURVE SMOOTH",
"79 -8 OFFCURVE",
"88 -9 OFFCURVE",
"101 -10 CURVE SMOOTH",
"106 -11 OFFCURVE",
"111 -11 OFFCURVE",
"118 -11 CURVE",
"119 -11 LINE",
"122 -11 LINE SMOOTH",
"245 -11 OFFCURVE",
"317 66 OFFCURVE",
"320 210 CURVE",
"320 258 LINE",
"320 704 LINE",
"216 704 LINE",
"216 215 LINE SMOOTH",
"216 116 OFFCURVE",
"182 81 OFFCURVE",
"119 81 CURVE SMOOTH",
"99 81 OFFCURVE",
"79 84 OFFCURVE",
"60 92 CURVE SMOOTH",
"40 100 OFFCURVE",
"22 112 OFFCURVE",
"3 124 CURVE"
);
}
);
width = 391;
}
);
unicode = 004A;
},
{
glyphname = K;
layers = (
{
hints = (
{
horizontal = 1;
place = "{0, 21}";
target = up;
type = BottomGhost;
},
{
horizontal = 1;
place = "{704, -20}";
target = down;
type = TopGhost;
},
{
place = "{78, 102}";
type = Stem;
}
);
layerId = "52A54639-B708-4391-8FEC-DE0E18BC7F23";
paths = (
{
closed = 1;
nodes = (
"180 704 LINE",
"78 704 LINE",
"78 0 LINE",
"180 0 LINE",
"180 336 LINE",
"467 0 LINE",
"596 0 LINE",
"274 379 LINE",
"571 704 LINE",
"443 704 LINE",
"180 410 LINE"
);
}
);
width = 587;
}
);
unicode = 004B;
},
{
glyphname = L;
layers = (
{
hints = (
{
horizontal = 1;
place = "{0, 92}";
type = Stem;
},
{
horizontal = 1;
place = "{704, -20}";
target = down;
type = TopGhost;
},
{
place = "{78, 103}";
type = Stem;
}
);
layerId = "52A54639-B708-4391-8FEC-DE0E18BC7F23";
paths = (
{
closed = 1;
nodes = (
"181 704 LINE",
"78 704 LINE",
"78 0 LINE",
"525 0 LINE",
"525 92 LINE",
"181 92 LINE"
);
}
);
width = 548;
}
);
unicode = 004C;
},
{
glyphname = M;
layers = (
{
hints = (
{
horizontal = 1;
place = "{0, 21}";
target = up;
type = BottomGhost;
},
{
place = "{59, 102}";
type = Stem;
},
{
place = "{676, 102}";
type = Stem;
}
);
layerId = "52A54639-B708-4391-8FEC-DE0E18BC7F23";
paths = (
{
closed = 1;
nodes = (
"418 149 LINE",
"676 538 LINE",
"676 0 LINE",
"778 0 LINE",
"778 700 LINE",
"676 700 LINE",
"419 304 LINE",
"162 700 LINE",
"59 700 LINE",
"59 0 LINE",
"161 0 LINE",
"161 538 LINE"
);
}
);
width = 838;
}
);
unicode = 004D;
},
{
glyphname = N;
layers = (
{
hints = (
{
horizontal = 1;
place = "{0, 21}";
target = up;
type = BottomGhost;
},
{
horizontal = 1;
place = "{704, -20}";
target = down;
type = TopGhost;
},
{
place = "{78, 100}";
type = Stem;
},
{
place = "{576, 100}";
type = Stem;
}
);
layerId = "52A54639-B708-4391-8FEC-DE0E18BC7F23";
paths = (
{
closed = 1;
nodes = (
"179 700 LINE",
"78 700 LINE",
"78 0 LINE",
"178 0 LINE",
"178 545 LINE",
"578 0 LINE",
"676 0 LINE",
"676 704 LINE",
"576 704 LINE",
"576 160 LINE"
);
}
);
width = 753;
}
);
unicode = 004E;
},
{
glyphname = O;
layers = (
{
hints = (
{
horizontal = 1;
place = "{-14, 93}";
type = Stem;
},
{
horizontal = 1;
place = "{625, 93}";
type = Stem;
},
{
place = "{38, 105}";
type = Stem;
},
{
place = "{667, 106}";
type = Stem;
}
);
layerId = "52A54639-B708-4391-8FEC-DE0E18BC7F23";
paths = (
{
closed = 1;
nodes = (
"773 553 OFFCURVE",
"618 718 OFFCURVE",
"407 718 CURVE SMOOTH",
"194 718 OFFCURVE",
"38 554 OFFCURVE",
"38 351 CURVE SMOOTH",
"38 148 OFFCURVE",
"192 -14 OFFCURVE",
"405 -14 CURVE SMOOTH",
"616 -14 OFFCURVE",
"773 151 OFFCURVE",
"773 354 CURVE SMOOTH"
);
},
{
closed = 1;
nodes = (
"667 202 OFFCURVE",
"558 79 OFFCURVE",
"406 79 CURVE SMOOTH",
"251 79 OFFCURVE",
"143 201 OFFCURVE",
"143 354 CURVE SMOOTH",
"143 503 OFFCURVE",
"251 625 OFFCURVE",
"406 625 CURVE SMOOTH",
"558 625 OFFCURVE",
"667 501 OFFCURVE",
"667 350 CURVE SMOOTH"
);
}
);
width = 811;
}
);
unicode = 004F;
},
{
glyphname = P;
layers = (
{
hints = (
{
horizontal = 1;
place = "{-2, 21}";
target = up;
type = BottomGhost;
},
{
horizontal = 1;
place = "{266, 89}";
type = Stem;
},
{
horizontal = 1;
place = "{614, 90}";
type = Stem;
},
{
place = "{78, 104}";
type = Stem;
},
{
place = "{470, 104}";
type = Stem;
}
);
layerId = "52A54639-B708-4391-8FEC-DE0E18BC7F23";
paths = (
{
closed = 1;
nodes = (
"78 -2 LINE",
"182 -2 LINE",
"182 266 LINE",
"309 266 LINE SMOOTH",
"459 266 OFFCURVE",
"574 347 OFFCURVE",
"574 490 CURVE SMOOTH",
"574 624 OFFCURVE",
"472 704 OFFCURVE",
"317 704 CURVE SMOOTH",
"78 704 LINE"
);
},
{
closed = 1;
nodes = (
"182 614 LINE",
"308 614 LINE SMOOTH",
"412 614 OFFCURVE",
"470 570 OFFCURVE",
"470 485 CURVE SMOOTH",
"470 404 OFFCURVE",
"410 355 OFFCURVE",
"307 355 CURVE SMOOTH",
"182 355 LINE"
);
}
);
width = 615;
}
);
unicode = 0050;
},
{
glyphname = Q;
layers = (
{
hints = (
{
horizontal = 1;
place = "{-14, 93}";
type = Stem;
},
{
horizontal = 1;
place = "{625, 93}";
type = Stem;
},
{
place = "{38, 105}";
type = Stem;
},
{
place = "{667, 106}";
type = Stem;
}
);
layerId = "52A54639-B708-4391-8FEC-DE0E18BC7F23";
paths = (
{
closed = 1;
nodes = (
"780 -91 LINE",
"780 34 LINE",
"684 114 LINE",
"740 178 OFFCURVE",
"773 258 OFFCURVE",
"773 353 CURVE SMOOTH",
"773 554 OFFCURVE",
"618 718 OFFCURVE",
"407 718 CURVE SMOOTH",
"194 718 OFFCURVE",
"38 554 OFFCURVE",
"38 350 CURVE SMOOTH",
"38 149 OFFCURVE",
"192 -14 OFFCURVE",
"405 -14 CURVE SMOOTH",
"486 -14 OFFCURVE",
"550 8 OFFCURVE",
"610 46 CURVE"
);
},
{
closed = 1;
nodes = (
"667 202 OFFCURVE",
"558 79 OFFCURVE",
"406 79 CURVE SMOOTH",
"251 79 OFFCURVE",
"143 201 OFFCURVE",
"143 353 CURVE SMOOTH",
"143 504 OFFCURVE",
"251 625 OFFCURVE",
"406 625 CURVE SMOOTH",
"558 625 OFFCURVE",
"667 501 OFFCURVE",
"667 350 CURVE SMOOTH"
);
}
);
width = 816;
}
);
unicode = 0051;
},
{
glyphname = R;
layers = (
{
hints = (
{
horizontal = 1;
place = "{0, 21}";
target = up;
type = BottomGhost;
},
{
horizontal = 1;
place = "{285, 82}";
type = Stem;
},
{
horizontal = 1;
place = "{613, 91}";
type = Stem;
},
{
place = "{78, 104}";
type = Stem;
},
{
place = "{463, 104}";
type = Stem;
}
);
layerId = "52A54639-B708-4391-8FEC-DE0E18BC7F23";
paths = (
{
closed = 1;
nodes = (
"182 0 LINE",
"182 285 LINE",
"271 285 LINE",
"477 0 LINE",
"600 0 LINE",
"381 294 LINE",
"494 317 OFFCURVE",
"567 388 OFFCURVE",
"567 496 CURVE SMOOTH",
"567 620 OFFCURVE",
"468 704 OFFCURVE",
"315 704 CURVE SMOOTH",
"78 704 LINE",
"78 0 LINE"
);
},
{
closed = 1;
nodes = (
"182 367 LINE",
"182 613 LINE",
"305 613 LINE SMOOTH",
"405 613 OFFCURVE",
"463 575 OFFCURVE",
"463 492 CURVE SMOOTH",
"463 404 OFFCURVE",
"390 367 OFFCURVE",
"291 367 CURVE SMOOTH"
);
}
);
width = 624;
}
);
unicode = 0052;
},
{
glyphname = S;
layers = (
{
hints = (
{
horizontal = 1;
place = "{-12, 89}";
type = Stem;
},
{
horizontal = 1;
place = "{629, 88}";
type = Stem;
},
{
place = "{62, 104}";
type = Stem;
},
{
place = "{425, 104}";
type = Stem;
}
);
layerId = "52A54639-B708-4391-8FEC-DE0E18BC7F23";
paths = (
{
closed = 1;
nodes = (
"210 77 OFFCURVE",
"120 107 OFFCURVE",
"44 183 CURVE",
"44 77 LINE",
"112 12 OFFCURVE",
"193 -12 OFFCURVE",
"281 -12 CURVE SMOOTH",
"406 -12 OFFCURVE",
"526 42 OFFCURVE",
"529 179 CURVE",
"529 183 LINE SMOOTH",
"529 293 OFFCURVE",
"443 355 OFFCURVE",
"350 397 CURVE SMOOTH",
"257 438 OFFCURVE",
"166 476 OFFCURVE",
"166 544 CURVE SMOOTH",
"166 597 OFFCURVE",
"218 629 OFFCURVE",
"291 629 CURVE SMOOTH",
"351 629 OFFCURVE",
"421 606 OFFCURVE",
"478 539 CURVE",
"478 654 LINE",
"427 698 OFFCURVE",
"363 717 OFFCURVE",
"288 717 CURVE SMOOTH",
"170 717 OFFCURVE",
"62 655 OFFCURVE",
"62 543 CURVE SMOOTH",
"62 321 OFFCURVE",
"425 328 OFFCURVE",
"425 175 CURVE SMOOTH",
"425 100 OFFCURVE",
"349 77 OFFCURVE",
"285 77 CURVE SMOOTH"
);
}
);
width = 574;
}
);
unicode = 0053;
},
{
glyphname = T;
layers = (
{
hints = (
{
horizontal = 1;
place = "{0, 21}";
target = up;
type = BottomGhost;
},
{
horizontal = 1;
place = "{613, 91}";
type = Stem;
},
{
place = "{213, 102}";
type = Stem;
}
);
layerId = "52A54639-B708-4391-8FEC-DE0E18BC7F23";
paths = (
{
closed = 1;
nodes = (
"315 613 LINE",
"525 613 LINE",
"525 704 LINE",
"3 704 LINE",
"3 613 LINE",
"213 613 LINE",
"213 0 LINE",
"315 0 LINE"
);
}
);
width = 528;
}
);
unicode = 0054;
},
{
glyphname = U;
layers = (
{
hints = (
{
horizontal = 1;
place = "{-15, 95}";
type = Stem;
},
{
horizontal = 1;
place = "{705, -20}";
target = down;
type = TopGhost;
},
{
place = "{77, 102}";
type = Stem;
},
{
place = "{548, 103}";
type = Stem;
}
);
layerId = "52A54639-B708-4391-8FEC-DE0E18BC7F23";
paths = (
{
closed = 1;
nodes = (
"552 -15 OFFCURVE",
"651 99 OFFCURVE",
"651 291 CURVE SMOOTH",
"651 705 LINE",
"548 705 LINE",
"548 289 LINE SMOOTH",
"548 148 OFFCURVE",
"481 80 OFFCURVE",
"364 80 CURVE SMOOTH",
"241 80 OFFCURVE",
"179 160 OFFCURVE",
"179 292 CURVE SMOOTH",
"179 705 LINE",
"77 705 LINE",
"77 288 LINE SMOOTH",
"77 103 OFFCURVE",
"177 -15 OFFCURVE",
"365 -15 CURVE SMOOTH"
);
}
);
width = 728;
}
);
unicode = 0055;
},
{
glyphname = V;
layers = (
{
hints = (
{
place = "{6, 668}";
type = Stem;
},
{
horizontal = 1;
place = "{-1, 117}";
type = Stem;
},
{
horizontal = 1;
place = "{-1, 21}";
target = up;
type = BottomGhost;
},
{
horizontal = 1;
place = "{704, -20}";
target = down;
type = TopGhost;
}
);
layerId = "52A54639-B708-4391-8FEC-DE0E18BC7F23";
paths = (
{
closed = 1;
nodes = (
"6 704 LINE",
"284 -1 LINE",
"398 -1 LINE",
"674 704 LINE",
"562 704 LINE",
"342 116 LINE",
"120 704 LINE"
);
}
);
width = 673;
}
);
unicode = 0056;
},
{
glyphname = W;
layers = (
{
hints = (
{
place = "{16, 1002}";
type = Stem;
},
{
horizontal = 1;
place = "{-1, 155}";
type = Stem;
},
{
horizontal = 1;
place = "{-1, 21}";
target = up;
type = BottomGhost;
},
{
horizontal = 1;
place = "{704, -20}";
target = down;
type = TopGhost;
},
{
horizontal = 1;
place = "{705, -20}";
target = down;
type = TopGhost;
}
);
layerId = "52A54639-B708-4391-8FEC-DE0E18BC7F23";
paths = (
{
closed = 1;
nodes = (
"126 704 LINE",
"16 704 LINE",
"253 -1 LINE",
"349 -1 LINE",
"517 551 LINE",
"689 -1 LINE",
"784 -1 LINE",
"1018 704 LINE",
"911 704 LINE",
"738 154 LINE",
"567 705 LINE",
"471 705 LINE",
"305 154 LINE"
);
}
);
width = 1027;
}
);
unicode = 0057;
},
{
glyphname = X;
layers = (
{
hints = (
{
horizontal = 1;
place = "{0, 21}";
target = up;
type = BottomGhost;
},
{
horizontal = 1;
place = "{704, -20}";
target = down;
type = TopGhost;
},
{
place = "{24, 623}";
type = Stem;
}
);
layerId = "52A54639-B708-4391-8FEC-DE0E18BC7F23";
paths = (
{
closed = 1;
nodes = (
"36 704 LINE",
"277 360 LINE",
"24 0 LINE",
"143 0 LINE",
"335 282 LINE",
"529 0 LINE",
"647 0 LINE",
"397 362 LINE",
"635 704 LINE",
"519 704 LINE",
"339 439 LINE",
"155 704 LINE"
);
}
);
width = 671;
}
);
unicode = 0058;
},
{
glyphname = Y;
layers = (
{
hints = (
{
horizontal = 1;
place = "{0, 21}";
target = up;
type = BottomGhost;
},
{
horizontal = 1;
place = "{704, -20}";
target = down;
type = TopGhost;
},
{
place = "{283, 103}";
type = Stem;
}
);
layerId = "52A54639-B708-4391-8FEC-DE0E18BC7F23";
paths = (
{
closed = 1;
nodes = (
"386 278 LINE",
"655 704 LINE",
"540 704 LINE",
"337 373 LINE",
"133 704 LINE",
"13 704 LINE",
"283 277 LINE",
"283 0 LINE",
"386 0 LINE"
);
}
);
width = 657;
}
);
unicode = 0059;
},
{
glyphname = Z;
layers = (
{
hints = (
{
horizontal = 1;
place = "{0, 90}";
type = Stem;
},
{
horizontal = 1;
place = "{614, 90}";
type = Stem;
},
{
place = "{30, 605}";
type = Stem;
}
);
layerId = "52A54639-B708-4391-8FEC-DE0E18BC7F23";
paths = (
{
closed = 1;
nodes = (
"635 620 LINE",
"635 704 LINE",
"55 704 LINE",
"55 614 LINE",
"505 614 LINE",
"30 84 LINE",
"30 0 LINE",
"618 0 LINE",
"618 90 LINE",
"166 90 LINE"
);
}
);
width = 667;
}
);
unicode = 005A;
},
{
glyphname = bracketleft;
layers = (
{
hints = (
{
horizontal = 1;
place = "{-153, 76}";
type = Stem;
},
{
horizontal = 1;
place = "{645, 77}";
type = Stem;
},
{
place = "{83, 92}";
type = Stem;
}
);
layerId = "52A54639-B708-4391-8FEC-DE0E18BC7F23";
paths = (
{
closed = 1;
nodes = (
"340 722 LINE",
"83 722 LINE",
"83 -153 LINE",
"340 -153 LINE",
"340 -77 LINE",
"175 -77 LINE",
"175 645 LINE",
"340 645 LINE"
);
}
);
width = 365;
}
);
unicode = 005B;
},
{
glyphname = backslash;
layers = (
{
hints = (
{
horizontal = 1;
place = "{-119, 903}";
type = Stem;
},
{
place = "{5, 499}";
type = Stem;
}
);
layerId = "52A54639-B708-4391-8FEC-DE0E18BC7F23";
paths = (
{
closed = 1;
nodes = (
"419 -119 LINE",
"504 -110 LINE",
"88 784 LINE",
"5 774 LINE"
);
}
);
width = 507;
}
);
unicode = 005C;
},
{
glyphname = bracketright;
layers = (
{
hints = (
{
horizontal = 1;
place = "{-154, 77}";
type = Stem;
},
{
horizontal = 1;
place = "{644, 78}";
type = Stem;
},
{
place = "{191, 94}";
type = Stem;
}
);
layerId = "52A54639-B708-4391-8FEC-DE0E18BC7F23";
paths = (
{
closed = 1;
nodes = (
"26 -154 LINE",
"285 -154 LINE",
"285 722 LINE",
"26 722 LINE",
"26 644 LINE",
"191 644 LINE",
"191 -77 LINE",
"26 -77 LINE"
);
}
);
width = 367;
}
);
unicode = 005D;
},
{
glyphname = asciicircum;
layers = (
{
hints = (
{
place = "{59, 428}";
type = Stem;
},
{
horizontal = 1;
place = "{633, 72}";
type = Stem;
},
{
horizontal = 1;
place = "{705, -20}";
target = down;
type = TopGhost;
}
);
layerId = "52A54639-B708-4391-8FEC-DE0E18BC7F23";
paths = (
{
closed = 1;
nodes = (
"59 431 LINE",
"141 431 LINE",
"272 633 LINE",
"402 431 LINE",
"487 431 LINE",
"312 705 LINE",
"231 705 LINE"
);
}
);
width = 546;
}
);
unicode = 005E;
},
{
glyphname = underscore;
layers = (
{
hints = (
{
horizontal = 1;
place = "{-149, 73}";
type = Stem;
},
{
place = "{0, 568}";
type = Stem;
}
);
layerId = "52A54639-B708-4391-8FEC-DE0E18BC7F23";
paths = (
{
closed = 1;
nodes = (
"0 -149 LINE",
"568 -149 LINE",
"568 -76 LINE",
"0 -76 LINE"
);
}
);
width = 568;
}
);
unicode = 005F;
},
{
glyphname = grave;
layers = (
{
hints = (
{
horizontal = 1;
place = "{567, 155}";
type = Stem;
},
{
place = "{19, 204}";
type = Stem;
}
);
layerId = "52A54639-B708-4391-8FEC-DE0E18BC7F23";
paths = (
{
closed = 1;
nodes = (
"148 567 LINE",
"223 567 LINE",
"126 722 LINE",
"19 696 LINE"
);
}
);
width = 315;
}
);
unicode = 0060;
},
{
glyphname = a;
layers = (
{
hints = (
{
place = "{35, 100}";
type = Stem;
},
{
place = "{395, 99}";
type = Stem;
},
{
horizontal = 1;
place = "{-11, 76}";
type = Stem;
},
{
horizontal = 1;
place = "{-2, 21}";
target = up;
type = BottomGhost;
},
{
horizontal = 1;
place = "{261, 71}";
type = Stem;
},
{
horizontal = 1;
place = "{419, 83}";
type = Stem;
}
);
layerId = "52A54639-B708-4391-8FEC-DE0E18BC7F23";
paths = (
{
closed = 1;
nodes = (
"494 -2 LINE",
"494 309 LINE SMOOTH",
"494 436 OFFCURVE",
"392 502 OFFCURVE",
"264 502 CURVE SMOOTH",
"187 502 OFFCURVE",
"118 480 OFFCURVE",
"70 460 CURVE",
"70 372 LINE",
"129 407 OFFCURVE",
"190 419 OFFCURVE",
"253 419 CURVE SMOOTH",
"338 419 OFFCURVE",
"395 391 OFFCURVE",
"395 318 CURVE SMOOTH",
"395 300 LINE",
"355 323 OFFCURVE",
"303 332 OFFCURVE",
"247 332 CURVE SMOOTH",
"143 332 OFFCURVE",
"35 291 OFFCURVE",
"35 169 CURVE SMOOTH",
"35 53 OFFCURVE",
"136 -11 OFFCURVE",
"233 -11 CURVE SMOOTH",
"300 -11 OFFCURVE",
"349 10 OFFCURVE",
"393 50 CURVE"
);
},
{
closed = 1;
nodes = (
"395 125 LINE",
"363 88 OFFCURVE",
"320 65 OFFCURVE",
"260 65 CURVE SMOOTH",
"193 65 OFFCURVE",
"135 97 OFFCURVE",
"135 163 CURVE SMOOTH",
"135 232 OFFCURVE",
"202 261 OFFCURVE",
"267 261 CURVE SMOOTH",
"324 261 OFFCURVE",
"364 244 OFFCURVE",
"395 227 CURVE"
);
}
);
width = 556;
}
);
unicode = 0061;
},
{
glyphname = b;
layers = (
{
hints = (
{
place = "{69, 100}";
type = Stem;
},
{
place = "{489, 100}";
type = Stem;
},
{
horizontal = 1;
place = "{-10, 84}";
type = Stem;
},
{
horizontal = 1;
place = "{-1, 21}";
target = up;
type = BottomGhost;
},
{
horizontal = 1;
place = "{417, 87}";
type = Stem;
}
);
layerId = "52A54639-B708-4391-8FEC-DE0E18BC7F23";
paths = (
{
closed = 1;
nodes = (
"481 -10 OFFCURVE",
"589 90 OFFCURVE",
"589 246 CURVE SMOOTH",
"589 401 OFFCURVE",
"481 504 OFFCURVE",
"351 504 CURVE SMOOTH",
"271 504 OFFCURVE",
"210 464 OFFCURVE",
"169 407 CURVE",
"169 732 LINE",
"69 732 LINE",
"69 -1 LINE",
"176 70 LINE",
"213 25 OFFCURVE",
"270 -10 OFFCURVE",
"350 -10 CURVE SMOOTH"
);
},
{
closed = 1;
nodes = (
"489 145 OFFCURVE",
"420 74 OFFCURVE",
"327 74 CURVE SMOOTH",
"238 74 OFFCURVE",
"166 147 OFFCURVE",
"166 246 CURVE SMOOTH",
"166 346 OFFCURVE",
"238 417 OFFCURVE",
"327 417 CURVE SMOOTH",
"425 417 OFFCURVE",
"489 344 OFFCURVE",
"489 245 CURVE SMOOTH"
);
}
);
width = 626;
}
);
unicode = 0062;
},
{
glyphname = c;
layers = (
{
hints = (
{
horizontal = 1;
place = "{-10, 85}";
type = Stem;
},
{
horizontal = 1;
place = "{418, 84}";
type = Stem;
},
{
place = "{39, 100}";
type = Stem;
}
);
layerId = "52A54639-B708-4391-8FEC-DE0E18BC7F23";
paths = (
{
closed = 1;
nodes = (
"427 466 LINE",
"391 490 OFFCURVE",
"340 502 OFFCURVE",
"295 502 CURVE SMOOTH",
"141 502 OFFCURVE",
"39 387 OFFCURVE",
"39 245 CURVE SMOOTH",
"39 102 OFFCURVE",
"147 -10 OFFCURVE",
"288 -10 CURVE SMOOTH",
"345 -10 OFFCURVE",
"393 9 OFFCURVE",
"432 30 CURVE",
"432 135 LINE",
"396 98 OFFCURVE",
"351 75 OFFCURVE",
"299 75 CURVE SMOOTH",
"209 75 OFFCURVE",
"139 156 OFFCURVE",
"139 250 CURVE SMOOTH",
"139 346 OFFCURVE",
"205 418 OFFCURVE",
"296 418 CURVE SMOOTH",
"347 418 OFFCURVE",
"391 395 OFFCURVE",
"427 358 CURVE"
);
}
);
width = 459;
}
);
unicode = 0063;
},
{
glyphname = d;
layers = (
{
hints = (
{
place = "{38, 100}";
type = Stem;
},
{
place = "{456, 100}";
type = Stem;
},
{
horizontal = 1;
place = "{-10, 85}";
type = Stem;
},
{
horizontal = 1;
place = "{-1, 21}";
target = up;
type = BottomGhost;
},
{
horizontal = 1;
place = "{419, 85}";
type = Stem;
}
);
layerId = "52A54639-B708-4391-8FEC-DE0E18BC7F23";
paths = (
{
closed = 1;
nodes = (
"556 -1 LINE",
"556 732 LINE",
"456 732 LINE",
"456 411 LINE",
"416 467 OFFCURVE",
"355 504 OFFCURVE",
"274 504 CURVE SMOOTH",
"146 504 OFFCURVE",
"38 402 OFFCURVE",
"38 246 CURVE SMOOTH",
"38 89 OFFCURVE",
"146 -10 OFFCURVE",
"277 -10 CURVE SMOOTH",
"356 -10 OFFCURVE",
"404 24 OFFCURVE",
"448 76 CURVE"
);
},
{
closed = 1;
nodes = (
"138 350 OFFCURVE",
"209 419 OFFCURVE",
"295 419 CURVE SMOOTH",
"382 419 OFFCURVE",
"459 346 OFFCURVE",
"459 247 CURVE SMOOTH",
"459 146 OFFCURVE",
"385 75 OFFCURVE",
"295 75 CURVE SMOOTH",
"205 75 OFFCURVE",
"138 146 OFFCURVE",
"138 247 CURVE SMOOTH"
);
}
);
width = 626;
}
);
unicode = 0064;
},
{
glyphname = e;
layers = (
{
hints = (
{
horizontal = 1;
place = "{-12, 81}";
type = Stem;
},
{
horizontal = 1;
place = "{422, 82}";
type = Stem;
},
{
place = "{39, 96}";
type = Stem;
}
);
layerId = "52A54639-B708-4391-8FEC-DE0E18BC7F23";
paths = (
{
closed = 1;
nodes = (
"219 69 OFFCURVE",
"169 111 OFFCURVE",
"145 171 CURVE",
"517 262 LINE",
"504 393 OFFCURVE",
"424 504 OFFCURVE",
"278 504 CURVE SMOOTH",
"134 504 OFFCURVE",
"39 391 OFFCURVE",
"39 244 CURVE SMOOTH",
"39 95 OFFCURVE",
"148 -12 OFFCURVE",
"294 -12 CURVE SMOOTH",
"363 -12 OFFCURVE",
"426 9 OFFCURVE",
"472 44 CURVE",
"472 142 LINE",
"433 103 OFFCURVE",
"371 69 OFFCURVE",
"299 69 CURVE SMOOTH"
);
},
{
closed = 1;
nodes = (
"135 252 LINE",
"135 337 OFFCURVE",
"186 422 OFFCURVE",
"279 422 CURVE SMOOTH",
"350 422 OFFCURVE",
"401 377 OFFCURVE",
"417 317 CURVE",
"139 245 LINE"
);
}
);
width = 553;
}
);
unicode = 0065;
},
{
glyphname = f;
layers = (
{
hints = (
{
horizontal = 1;
place = "{0, 21}";
target = up;
type = BottomGhost;
},
{
horizontal = 1;
place = "{409, 82}";
type = Stem;
},
{
horizontal = 1;
place = "{657, 79}";
type = Stem;
},
{
place = "{111, 97}";
type = Stem;
}
);
layerId = "52A54639-B708-4391-8FEC-DE0E18BC7F23";
paths = (
{
closed = 1;
nodes = (
"342 725 LINE",
"325 732 OFFCURVE",
"300 736 OFFCURVE",
"272 736 CURVE SMOOTH",
"173 736 OFFCURVE",
"111 684 OFFCURVE",
"111 556 CURVE SMOOTH",
"111 493 LINE",
"15 409 LINE",
"111 409 LINE",
"111 0 LINE",
"208 0 LINE",
"208 409 LINE",
"329 409 LINE",
"329 491 LINE",
"202 491 LINE",
"202 552 LINE SMOOTH",
"202 620 OFFCURVE",
"230 657 OFFCURVE",
"287 657 CURVE SMOOTH",
"306 657 OFFCURVE",
"325 653 OFFCURVE",
"342 646 CURVE"
);
}
);
width = 308;
}
);
unicode = 0066;
},
{
glyphname = g;
layers = (
{
hints = (
{
place = "{39, 101}";
type = Stem;
},
{
place = "{458, 99}";
type = Stem;
},
{
horizontal = 1;
place = "{-189, 81}";
type = Stem;
},
{
horizontal = 1;
place = "{24, 83}";
type = Stem;
},
{
horizontal = 1;
place = "{421, 83}";
type = Stem;
},
{
horizontal = 1;
place = "{492, -20}";
target = down;
type = TopGhost;
}
);
layerId = "52A54639-B708-4391-8FEC-DE0E18BC7F23";
paths = (
{
closed = 1;
nodes = (
"201 -108 OFFCURVE",
"130 -84 OFFCURVE",
"75 -39 CURVE",
"75 -139 LINE",
"128 -168 OFFCURVE",
"197 -189 OFFCURVE",
"277 -189 CURVE SMOOTH",
"442 -189 OFFCURVE",
"557 -101 OFFCURVE",
"557 69 CURVE SMOOTH",
"557 492 LINE",
"449 423 LINE",
"408 471 OFFCURVE",
"354 504 OFFCURVE",
"275 504 CURVE SMOOTH",
"146 504 OFFCURVE",
"39 408 OFFCURVE",
"39 261 CURVE SMOOTH",
"39 122 OFFCURVE",
"141 24 OFFCURVE",
"274 24 CURVE SMOOTH",
"355 24 OFFCURVE",
"413 61 OFFCURVE",
"458 118 CURVE",
"458 64 LINE SMOOTH",
"458 -57 OFFCURVE",
"393 -108 OFFCURVE",
"276 -108 CURVE SMOOTH"
);
},
{
closed = 1;
nodes = (
"140 357 OFFCURVE",
"205 421 OFFCURVE",
"297 421 CURVE SMOOTH",
"388 421 OFFCURVE",
"458 354 OFFCURVE",
"458 263 CURVE SMOOTH",
"458 172 OFFCURVE",
"388 107 OFFCURVE",
"297 107 CURVE SMOOTH",
"207 107 OFFCURVE",
"140 172 OFFCURVE",
"140 265 CURVE SMOOTH"
);
}
);
width = 627;
}
);
unicode = 0067;
},
{
glyphname = h;
layers = (
{
hints = (
{
horizontal = 1;
place = "{0, 21}";
target = up;
type = BottomGhost;
},
{
horizontal = 1;
place = "{407, 96}";
type = Stem;
},
{
place = "{73, 100}";
type = Stem;
},
{
place = "{407, 100}";
type = Stem;
}
);
layerId = "52A54639-B708-4391-8FEC-DE0E18BC7F23";
paths = (
{
closed = 1;
nodes = (
"260 503 OFFCURVE",
"201 468 OFFCURVE",
"166 425 CURVE",
"166 732 LINE",
"73 732 LINE",
"73 0 LINE",
"173 0 LINE",
"173 282 LINE SMOOTH",
"173 367 OFFCURVE",
"236 407 OFFCURVE",
"302 407 CURVE SMOOTH",
"371 407 OFFCURVE",
"407 366 OFFCURVE",
"407 282 CURVE SMOOTH",
"407 0 LINE",
"507 0 LINE",
"507 312 LINE SMOOTH",
"507 443 OFFCURVE",
"440 503 OFFCURVE",
"333 503 CURVE SMOOTH"
);
}
);
width = 578;
}
);
unicode = 0068;
},
{
glyphname = i;
layers = (
{
hints = (
{
place = "{64, 136}";
type = Stem;
},
{
place = "{83, 100}";
type = Stem;
},
{
horizontal = 1;
place = "{0, 21}";
target = up;
type = BottomGhost;
},
{
horizontal = 1;
place = "{492, -20}";
target = down;
type = TopGhost;
},
{
horizontal = 1;
place = "{580, 132}";
type = Stem;
}
);
layerId = "52A54639-B708-4391-8FEC-DE0E18BC7F23";
paths = (
{
closed = 1;
nodes = (
"64 609 OFFCURVE",
"95 580 OFFCURVE",
"132 580 CURVE SMOOTH",
"171 580 OFFCURVE",
"200 609 OFFCURVE",
"200 645 CURVE SMOOTH",
"200 685 OFFCURVE",
"171 712 OFFCURVE",
"132 712 CURVE SMOOTH",
"95 712 OFFCURVE",
"64 685 OFFCURVE",
"64 645 CURVE SMOOTH"
);
},
{
closed = 1;
nodes = (
"183 492 LINE",
"83 492 LINE",
"83 0 LINE",
"183 0 LINE"
);
}
);
width = 264;
}
);
unicode = 0069;
},
{
glyphname = j;
layers = (
{
hints = (
{
place = "{15, 136}";
type = Stem;
},
{
place = "{37, 99}";
type = Stem;
},
{
horizontal = 1;
place = "{-189, 80}";
type = Stem;
},
{
horizontal = 1;
place = "{492, -20}";
target = down;
type = TopGhost;
},
{
horizontal = 1;
place = "{580, 132}";
type = Stem;
}
);
layerId = "52A54639-B708-4391-8FEC-DE0E18BC7F23";
paths = (
{
closed = 1;
nodes = (
"15 609 OFFCURVE",
"44 580 OFFCURVE",
"83 580 CURVE SMOOTH",
"118 580 OFFCURVE",
"151 609 OFFCURVE",
"151 645 CURVE SMOOTH",
"151 685 OFFCURVE",
"118 712 OFFCURVE",
"83 712 CURVE SMOOTH",
"44 712 OFFCURVE",
"15 685 OFFCURVE",
"15 645 CURVE SMOOTH"
);
},
{
closed = 1;
nodes = (
"-46 -182 LINE",
"-30 -186 OFFCURVE",
"-12 -189 OFFCURVE",
"9 -189 CURVE SMOOTH",
"114 -189 OFFCURVE",
"136 -121 OFFCURVE",
"136 -27 CURVE SMOOTH",
"136 492 LINE",
"37 492 LINE",
"37 -46 LINE SMOOTH",
"37 -81 OFFCURVE",
"28 -109 OFFCURVE",
"-12 -109 CURVE SMOOTH",
"-23 -109 OFFCURVE",
"-34 -107 OFFCURVE",
"-46 -103 CURVE"
);
}
);
width = 212;
}
);
unicode = 006A;
},
{
glyphname = k;
layers = (
{
hints = (
{
horizontal = 1;
place = "{0, 21}";
target = up;
type = BottomGhost;
},
{
horizontal = 1;
place = "{492, -20}";
target = down;
type = TopGhost;
},
{
place = "{73, 100}";
type = Stem;
}
);
layerId = "52A54639-B708-4391-8FEC-DE0E18BC7F23";
paths = (
{
closed = 1;
nodes = (
"173 732 LINE",
"73 732 LINE",
"73 0 LINE",
"173 0 LINE",
"173 227 LINE",
"364 0 LINE",
"483 0 LINE",
"260 266 LINE",
"474 492 LINE",
"351 492 LINE",
"173 294 LINE"
);
}
);
width = 471;
}
);
unicode = 006B;
},
{
glyphname = l;
layers = (
{
hints = (
{
horizontal = 1;
place = "{0, 21}";
target = up;
type = BottomGhost;
},
{
place = "{73, 99}";
type = Stem;
}
);
layerId = "52A54639-B708-4391-8FEC-DE0E18BC7F23";
paths = (
{
closed = 1;
nodes = (
"172 732 LINE",
"73 732 LINE",
"73 0 LINE",
"172 0 LINE"
);
}
);
width = 247;
}
);
unicode = 006C;
},
{
glyphname = m;
layers = (
{
hints = (
{
horizontal = 1;
place = "{0, 21}";
target = up;
type = BottomGhost;
},
{
horizontal = 1;
place = "{415, 88}";
type = Stem;
},
{
place = "{69, 100}";
type = Stem;
},
{
place = "{387, 100}";
type = Stem;
},
{
place = "{705, 100}";
type = Stem;
}
);
layerId = "52A54639-B708-4391-8FEC-DE0E18BC7F23";
paths = (
{
closed = 1;
nodes = (
"805 0 LINE",
"805 313 LINE SMOOTH",
"805 420 OFFCURVE",
"750 503 OFFCURVE",
"636 503 CURVE SMOOTH",
"563 503 OFFCURVE",
"501 471 OFFCURVE",
"468 414 CURVE",
"440 477 OFFCURVE",
"384 503 OFFCURVE",
"320 503 CURVE SMOOTH",
"260 503 OFFCURVE",
"203 480 OFFCURVE",
"167 431 CURVE",
"69 491 LINE",
"69 0 LINE",
"169 0 LINE",
"169 282 LINE SMOOTH",
"169 355 OFFCURVE",
"211 415 OFFCURVE",
"284 415 CURVE SMOOTH",
"360 415 OFFCURVE",
"387 358 OFFCURVE",
"387 282 CURVE SMOOTH",
"387 0 LINE",
"487 0 LINE",
"487 282 LINE SMOOTH",
"487 353 OFFCURVE",
"527 415 OFFCURVE",
"603 415 CURVE SMOOTH",
"667 415 OFFCURVE",
"705 375 OFFCURVE",
"705 282 CURVE SMOOTH",
"705 0 LINE"
);
}
);
width = 876;
}
);
unicode = 006D;
},
{
glyphname = n;
layers = (
{
hints = (
{
place = "{69, 100}";
type = Stem;
},
{
place = "{403, 100}";
type = Stem;
},
{
horizontal = 1;
place = "{0, 21}";
target = up;
type = BottomGhost;
},
{
horizontal = 1;
place = "{415, 88}";
type = Stem;
},
{
horizontal = 1;
place = "{492, -20}";
target = down;
type = TopGhost;
}
);
layerId = "52A54639-B708-4391-8FEC-DE0E18BC7F23";
paths = (
{
closed = 1;
nodes = (
"257 503 OFFCURVE",
"206 472 OFFCURVE",
"171 428 CURVE",
"69 492 LINE",
"69 0 LINE",
"169 0 LINE",
"169 282 LINE SMOOTH",
"169 384 OFFCURVE",
"240 415 OFFCURVE",
"292 415 CURVE SMOOTH",
"347 415 OFFCURVE",
"403 383 OFFCURVE",
"403 282 CURVE SMOOTH",
"403 0 LINE",
"503 0 LINE",
"503 312 LINE SMOOTH",
"503 436 OFFCURVE",
"433 503 OFFCURVE",
"328 503 CURVE SMOOTH"
);
}
);
width = 574;
}
);
unicode = 006E;
},
{
glyphname = o;
layers = (
{
hints = (
{
horizontal = 1;
place = "{-11, 85}";
type = Stem;
},
{
horizontal = 1;
place = "{420, 84}";
type = Stem;
},
{
place = "{39, 100}";
type = Stem;
},
{
place = "{468, 100}";
type = Stem;
}
);
layerId = "52A54639-B708-4391-8FEC-DE0E18BC7F23";
paths = (
{
closed = 1;
nodes = (
"568 391 OFFCURVE",
"457 504 OFFCURVE",
"303 504 CURVE SMOOTH",
"150 504 OFFCURVE",
"39 390 OFFCURVE",
"39 245 CURVE SMOOTH",
"39 102 OFFCURVE",
"150 -11 OFFCURVE",
"302 -11 CURVE SMOOTH",
"456 -11 OFFCURVE",
"568 106 OFFCURVE",
"568 247 CURVE SMOOTH"
);
},
{
closed = 1;
nodes = (
"468 153 OFFCURVE",
"400 74 OFFCURVE",
"303 74 CURVE SMOOTH",
"210 74 OFFCURVE",
"139 149 OFFCURVE",
"139 247 CURVE SMOOTH",
"139 342 OFFCURVE",
"203 420 OFFCURVE",
"302 420 CURVE SMOOTH",
"400 420 OFFCURVE",
"468 341 OFFCURVE",
"468 246 CURVE SMOOTH"
);
}
);
width = 607;
}
);
unicode = 006F;
},
{
glyphname = p;
layers = (
{
hints = (
{
place = "{69, 100}";
type = Stem;
},
{
place = "{489, 100}";
type = Stem;
},
{
horizontal = 1;
place = "{-10, 84}";
type = Stem;
},
{
horizontal = 1;
place = "{417, 87}";
type = Stem;
},
{
horizontal = 1;
place = "{492, -20}";
target = down;
type = TopGhost;
}
);
layerId = "52A54639-B708-4391-8FEC-DE0E18BC7F23";
paths = (
{
closed = 1;
nodes = (
"169 81 LINE",
"212 24 OFFCURVE",
"270 -10 OFFCURVE",
"351 -10 CURVE SMOOTH",
"476 -10 OFFCURVE",
"589 90 OFFCURVE",
"589 247 CURVE SMOOTH",
"589 402 OFFCURVE",
"479 504 OFFCURVE",
"350 504 CURVE SMOOTH",
"270 504 OFFCURVE",
"221 468 OFFCURVE",
"177 417 CURVE",
"69 492 LINE",
"69 -183 LINE",
"169 -183 LINE"
);
},
{
closed = 1;
nodes = (
"489 142 OFFCURVE",
"419 74 OFFCURVE",
"330 74 CURVE SMOOTH",
"242 74 OFFCURVE",
"165 147 OFFCURVE",
"165 246 CURVE SMOOTH",
"165 346 OFFCURVE",
"239 417 OFFCURVE",
"327 417 CURVE SMOOTH",
"420 417 OFFCURVE",
"489 348 OFFCURVE",
"489 247 CURVE SMOOTH"
);
}
);
width = 628;
}
);
unicode = 0070;
},
{
glyphname = q;
layers = (
{
hints = (
{
place = "{39, 100}";
type = Stem;
},
{
place = "{457, 100}";
type = Stem;
},
{
horizontal = 1;
place = "{-11, 85}";
type = Stem;
},
{
horizontal = 1;
place = "{419, 85}";
type = Stem;
},
{
horizontal = 1;
place = "{492, -20}";
target = down;
type = TopGhost;
}
);
layerId = "52A54639-B708-4391-8FEC-DE0E18BC7F23";
paths = (
{
closed = 1;
nodes = (
"557 -183 LINE",
"557 492 LINE",
"449 421 LINE",
"406 469 OFFCURVE",
"358 504 OFFCURVE",
"278 504 CURVE SMOOTH",
"146 504 OFFCURVE",
"39 402 OFFCURVE",
"39 246 CURVE SMOOTH",
"39 93 OFFCURVE",
"145 -11 OFFCURVE",
"278 -11 CURVE SMOOTH",
"357 -11 OFFCURVE",
"413 26 OFFCURVE",
"457 85 CURVE",
"457 -183 LINE"
);
},
{
closed = 1;
nodes = (
"139 350 OFFCURVE",
"208 419 OFFCURVE",
"299 419 CURVE SMOOTH",
"386 419 OFFCURVE",
"462 346 OFFCURVE",
"462 247 CURVE SMOOTH",
"462 148 OFFCURVE",
"385 74 OFFCURVE",
"298 74 CURVE SMOOTH",
"209 74 OFFCURVE",
"139 148 OFFCURVE",
"139 248 CURVE SMOOTH"
);
}
);
width = 627;
}
);
unicode = 0071;
},
{
glyphname = r;
layers = (
{
hints = (
{
place = "{69, 100}";
type = Stem;
},
{
horizontal = 1;
place = "{0, 21}";
target = up;
type = BottomGhost;
},
{
horizontal = 1;
place = "{408, 93}";
type = Stem;
},
{
horizontal = 1;
place = "{492, -20}";
target = down;
type = TopGhost;
},
{
horizontal = 1;
place = "{497, -20}";
target = down;
type = TopGhost;
}
);
layerId = "52A54639-B708-4391-8FEC-DE0E18BC7F23";
paths = (
{
closed = 1;
nodes = (
"357 497 LINE",
"346 498 OFFCURVE",
"334 501 OFFCURVE",
"321 501 CURVE SMOOTH",
"264 501 OFFCURVE",
"207 476 OFFCURVE",
"171 429 CURVE",
"69 492 LINE",
"69 0 LINE",
"169 0 LINE",
"169 254 LINE SMOOTH",
"169 363 OFFCURVE",
"249 408 OFFCURVE",
"318 408 CURVE SMOOTH",
"334 408 OFFCURVE",
"346 405 OFFCURVE",
"357 400 CURVE"
);
}
);
width = 374;
}
);
unicode = 0072;
},
{
glyphname = s;
layers = (
{
hints = (
{
horizontal = 1;
place = "{-10, 79}";
type = Stem;
},
{
horizontal = 1;
place = "{424, 79}";
type = Stem;
},
{
place = "{50, 95}";
type = Stem;
},
{
place = "{295, 94}";
type = Stem;
}
);
layerId = "52A54639-B708-4391-8FEC-DE0E18BC7F23";
paths = (
{
closed = 1;
nodes = (
"149 69 OFFCURVE",
"88 104 OFFCURVE",
"42 144 CURVE",
"42 45 LINE",
"86 17 OFFCURVE",
"138 -10 OFFCURVE",
"214 -10 CURVE SMOOTH",
"322 -10 OFFCURVE",
"389 55 OFFCURVE",
"389 138 CURVE SMOOTH",
"389 299 OFFCURVE",
"145 291 OFFCURVE",
"145 376 CURVE SMOOTH",
"145 401 OFFCURVE",
"168 424 OFFCURVE",
"213 424 CURVE SMOOTH",
"263 424 OFFCURVE",
"309 396 OFFCURVE",
"353 363 CURVE",
"353 463 LINE",
"311 492 OFFCURVE",
"262 503 OFFCURVE",
"211 503 CURVE SMOOTH",
"111 503 OFFCURVE",
"50 453 OFFCURVE",
"50 376 CURVE SMOOTH",
"50 220 OFFCURVE",
"295 242 OFFCURVE",
"295 135 CURVE SMOOTH",
"295 88 OFFCURVE",
"255 69 OFFCURVE",
"211 69 CURVE SMOOTH"
);
}
);
width = 429;
}
);
unicode = 0073;
},
{
glyphname = t;
layers = (
{
hints = (
{
horizontal = 1;
place = "{-11, 85}";
type = Stem;
},
{
horizontal = 1;
place = "{408, 84}";
type = Stem;
},
{
place = "{118, 98}";
type = Stem;
}
);
layerId = "52A54639-B708-4391-8FEC-DE0E18BC7F23";
paths = (
{
closed = 1;
nodes = (
"118 128 LINE SMOOTH",
"118 39 OFFCURVE",
"167 -11 OFFCURVE",
"243 -11 CURVE SMOOTH",
"267 -11 OFFCURVE",
"287 -6 OFFCURVE",
"306 3 CURVE",
"306 85 LINE",
"290 77 OFFCURVE",
"274 74 OFFCURVE",
"261 74 CURVE SMOOTH",
"229 74 OFFCURVE",
"216 99 OFFCURVE",
"216 128 CURVE SMOOTH",
"216 408 LINE",
"344 408 LINE",
"344 492 LINE",
"216 492 LINE",
"216 659 LINE",
"19 408 LINE",
"118 408 LINE"
);
}
);
width = 372;
}
);
unicode = 0074;
},
{
glyphname = u;
layers = (
{
hints = (
{
place = "{70, 100}";
type = Stem;
},
{
place = "{405, 100}";
type = Stem;
},
{
horizontal = 1;
place = "{-10, 88}";
type = Stem;
},
{
horizontal = 1;
place = "{1, 21}";
target = up;
type = BottomGhost;
},
{
horizontal = 1;
place = "{493, -20}";
target = down;
type = TopGhost;
}
);
layerId = "52A54639-B708-4391-8FEC-DE0E18BC7F23";
paths = (
{
closed = 1;
nodes = (
"318 -10 OFFCURVE",
"367 21 OFFCURVE",
"403 64 CURVE",
"505 1 LINE",
"505 493 LINE",
"405 493 LINE",
"405 211 LINE SMOOTH",
"405 109 OFFCURVE",
"336 78 OFFCURVE",
"282 78 CURVE SMOOTH",
"227 78 OFFCURVE",
"170 111 OFFCURVE",
"170 211 CURVE SMOOTH",
"170 493 LINE",
"70 493 LINE",
"70 181 LINE SMOOTH",
"70 56 OFFCURVE",
"138 -10 OFFCURVE",
"246 -10 CURVE SMOOTH"
);
}
);
width = 574;
}
);
unicode = 0075;
},
{
glyphname = v;
layers = (
{
hints = (
{
place = "{13, 505}";
type = Stem;
},
{
horizontal = 1;
place = "{-1, 114}";
type = Stem;
},
{
horizontal = 1;
place = "{-1, 21}";
target = up;
type = BottomGhost;
}
);
layerId = "52A54639-B708-4391-8FEC-DE0E18BC7F23";
paths = (
{
closed = 1;
nodes = (
"518 491 LINE",
"414 491 LINE",
"267 113 LINE",
"121 491 LINE",
"13 491 LINE",
"217 -1 LINE",
"314 -1 LINE"
);
}
);
width = 529;
}
);
unicode = 0076;
},
{
glyphname = w;
layers = (
{
hints = (
{
horizontal = 1;
place = "{-1, 21}";
target = up;
type = BottomGhost;
},
{
horizontal = 1;
place = "{492, -20}";
target = down;
type = TopGhost;
},
{
horizontal = 1;
place = "{493, -20}";
target = down;
type = TopGhost;
},
{
place = "{17, 750}";
type = Stem;
}
);
layerId = "52A54639-B708-4391-8FEC-DE0E18BC7F23";
paths = (
{
closed = 1;
nodes = (
"17 492 LINE",
"182 -1 LINE",
"274 -1 LINE",
"390 375 LINE",
"507 -1 LINE",
"602 -1 LINE",
"767 492 LINE",
"665 492 LINE",
"552 128 LINE",
"441 493 LINE",
"346 493 LINE",
"233 127 LINE",
"119 492 LINE"
);
}
);
width = 782;
}
);
unicode = 0077;
},
{
glyphname = x;
layers = (
{
hints = (
{
horizontal = 1;
place = "{0, 21}";
target = up;
type = BottomGhost;
},
{
place = "{7, 494}";
type = Stem;
}
);
layerId = "52A54639-B708-4391-8FEC-DE0E18BC7F23";
paths = (
{
closed = 1;
nodes = (
"7 0 LINE",
"117 0 LINE",
"253 183 LINE",
"389 0 LINE",
"501 0 LINE",
"310 255 LINE",
"488 491 LINE",
"380 491 LINE",
"255 324 LINE",
"131 491 LINE",
"18 491 LINE",
"199 253 LINE"
);
}
);
width = 512;
}
);
unicode = 0078;
},
{
glyphname = y;
layers = (
{
hints = (
{
horizontal = 1;
place = "{-183, 674}";
type = Stem;
},
{
place = "{-4, 509}";
type = Stem;
}
);
layerId = "52A54639-B708-4391-8FEC-DE0E18BC7F23";
paths = (
{
closed = 1;
nodes = (
"216 -1 LINE",
"146 -183 LINE",
"237 -183 LINE",
"505 491 LINE",
"401 491 LINE",
"259 114 LINE",
"104 491 LINE",
"-4 491 LINE"
);
}
);
width = 523;
}
);
unicode = 0079;
},
{
glyphname = z;
layers = (
{
hints = (
{
horizontal = 1;
place = "{0, 84}";
type = Stem;
},
{
horizontal = 1;
place = "{410, 82}";
type = Stem;
},
{
place = "{20, 473}";
type = Stem;
}
);
layerId = "52A54639-B708-4391-8FEC-DE0E18BC7F23";
paths = (
{
closed = 1;
nodes = (
"493 414 LINE",
"493 492 LINE",
"39 492 LINE",
"39 410 LINE",
"369 410 LINE",
"20 78 LINE",
"20 0 LINE",
"488 0 LINE",
"488 84 LINE",
"144 84 LINE"
);
}
);
width = 511;
}
);
unicode = 007A;
},
{
glyphname = braceleft;
layers = (
{
hints = (
{
horizontal = 1;
place = "{247, 82}";
type = Stem;
},
{
place = "{142, 97}";
type = Stem;
}
);
layerId = "52A54639-B708-4391-8FEC-DE0E18BC7F23";
paths = (
{
closed = 1;
nodes = (
"30 247 LINE",
"121 247 OFFCURVE",
"142 197 OFFCURVE",
"142 135 CURVE SMOOTH",
"142 132 OFFCURVE",
"141 109 OFFCURVE",
"141 64 CURVE SMOOTH",
"141 -103 OFFCURVE",
"184 -142 OFFCURVE",
"353 -153 CURVE",
"363 -85 LINE",
"279 -69 OFFCURVE",
"239 -44 OFFCURVE",
"239 45 CURVE SMOOTH",
"239 98 OFFCURVE",
"240 123 OFFCURVE",
"240 126 CURVE SMOOTH",
"240 193 OFFCURVE",
"224 252 OFFCURVE",
"142 289 CURVE",
"233 329 OFFCURVE",
"241 393 OFFCURVE",
"241 449 CURVE SMOOTH",
"241 461 OFFCURVE",
"239 490 OFFCURVE",
"239 546 CURVE SMOOTH",
"239 631 OFFCURVE",
"288 649 OFFCURVE",
"363 662 CURVE",
"353 730 LINE",
"142 719 OFFCURVE",
"142 625 OFFCURVE",
"142 448 CURVE SMOOTH",
"142 366 OFFCURVE",
"117 329 OFFCURVE",
"30 329 CURVE"
);
}
);
width = 391;
}
);
unicode = 007B;
},
{
glyphname = bar;
layers = (
{
hints = (
{
horizontal = 1;
place = "{-161, 933}";
type = Stem;
},
{
place = "{91, 85}";
type = Stem;
}
);
layerId = "52A54639-B708-4391-8FEC-DE0E18BC7F23";
paths = (
{
closed = 1;
nodes = (
"91 772 LINE",
"91 -161 LINE",
"176 -161 LINE",
"176 772 LINE"
);
}
);
width = 266;
}
);
unicode = 007C;
},
{
glyphname = braceright;
layers = (
{
hints = (
{
horizontal = 1;
place = "{247, 82}";
type = Stem;
},
{
place = "{152, 97}";
type = Stem;
}
);
layerId = "52A54639-B708-4391-8FEC-DE0E18BC7F23";
paths = (
{
closed = 1;
nodes = (
"361 329 LINE",
"355 329 LINE SMOOTH",
"260 329 OFFCURVE",
"248 387 OFFCURVE",
"248 442 CURVE SMOOTH",
"248 451 OFFCURVE",
"250 481 OFFCURVE",
"250 528 CURVE SMOOTH",
"250 683 OFFCURVE",
"190 722 OFFCURVE",
"38 730 CURVE",
"28 662 LINE",
"111 646 OFFCURVE",
"152 622 OFFCURVE",
"152 533 CURVE",
"149 426 OFFCURVE",
"138 336 OFFCURVE",
"249 289 CURVE",
"140 240 OFFCURVE",
"149 151 OFFCURVE",
"152 45 CURVE",
"152 -44 OFFCURVE",
"112 -69 OFFCURVE",
"28 -85 CURVE",
"38 -153 LINE",
"251 -140 OFFCURVE",
"249 -56 OFFCURVE",
"249 131 CURVE SMOOTH",
"249 214 OFFCURVE",
"274 247 OFFCURVE",
"361 247 CURVE"
);
}
);
width = 391;
}
);
unicode = 007D;
},
{
glyphname = asciitilde;
layers = (
{
hints = (
{
place = "{46, 416}";
type = Stem;
},
{
horizontal = 1;
place = "{234, 83}";
type = Stem;
},
{
horizontal = 1;
place = "{286, 83}";
type = Stem;
}
);
layerId = "52A54639-B708-4391-8FEC-DE0E18BC7F23";
paths = (
{
closed = 1;
nodes = (
"406 374 LINE",
"389 338 OFFCURVE",
"364 317 OFFCURVE",
"333 317 CURVE SMOOTH",
"284 317 OFFCURVE",
"237 369 OFFCURVE",
"170 369 CURVE SMOOTH",
"109 369 OFFCURVE",
"74 331 OFFCURVE",
"46 254 CURVE",
"102 228 LINE",
"119 265 OFFCURVE",
"140 286 OFFCURVE",
"173 286 CURVE SMOOTH",
"229 286 OFFCURVE",
"282 234 OFFCURVE",
"344 234 CURVE SMOOTH",
"399 234 OFFCURVE",
"437 276 OFFCURVE",
"462 349 CURVE"
);
}
);
width = 505;
}
);
unicode = 007E;
},
{
glyphname = Euro;
layers = (
{
hints = (
{
horizontal = 1;
place = "{-17, 91}";
type = Stem;
},
{
horizontal = 1;
place = "{291, 73}";
type = Stem;
},
{
horizontal = 1;
place = "{631, 91}";
type = Stem;
},
{
place = "{9, 100}";
type = Stem;
}
);
layerId = "52A54639-B708-4391-8FEC-DE0E18BC7F23";
paths = (
{
closed = 1;
nodes = (
"109 364 LINE",
"109 480 OFFCURVE",
"172 631 OFFCURVE",
"316 631 CURVE SMOOTH",
"379 631 OFFCURVE",
"418 603 OFFCURVE",
"455 562 CURVE",
"487 589 OFFCURVE",
"492 597 OFFCURVE",
"524 623 CURVE",
"476 684 OFFCURVE",
"415 722 OFFCURVE",
"318 722 CURVE SMOOTH",
"100 722 OFFCURVE",
"9 536 OFFCURVE",
"9 347 CURVE SMOOTH",
"9 167 OFFCURVE",
"101 -17 OFFCURVE",
"304 -17 CURVE SMOOTH",
"401 -17 OFFCURVE",
"476 21 OFFCURVE",
"525 84 CURVE",
"456 145 LINE",
"420 102 OFFCURVE",
"372 74 OFFCURVE",
"309 74 CURVE SMOOTH",
"179 74 OFFCURVE",
"124 184 OFFCURVE",
"113 291 CURVE",
"346 291 LINE",
"346 364 LINE"
);
}
);
width = 545;
}
);
unicode = 20AC;
},
{
glyphname = quotesinglbase;
layers = (
{
hints = (
{
horizontal = 1;
place = "{-145, 266}";
type = Stem;
},
{
place = "{21, 154}";
type = Stem;
}
);
layerId = "52A54639-B708-4391-8FEC-DE0E18BC7F23";
paths = (
{
closed = 1;
nodes = (
"175 121 LINE",
"72 121 LINE",
"21 -145 LINE",
"97 -145 LINE"
);
}
);
width = 212;
}
);
unicode = 201A;
},
{
glyphname = florin;
layers = (
{
hints = (
{
place = "{16, 395}";
type = Stem;
},
{
horizontal = 1;
place = "{364, 81}";
type = Stem;
},
{
horizontal = 1;
place = "{634, 84}";
type = Stem;
},
{
horizontal = 1;
place = "{708, -20}";
target = down;
type = TopGhost;
}
);
layerId = "52A54639-B708-4391-8FEC-DE0E18BC7F23";
paths = (
{
closed = 1;
nodes = (
"16 -113 LINE",
"113 -113 LINE",
"217 364 LINE",
"320 364 LINE",
"335 445 LINE",
"232 445 LINE",
"245 506 LINE",
"263 606 OFFCURVE",
"298 634 OFFCURVE",
"351 634 CURVE SMOOTH",
"366 634 OFFCURVE",
"383 632 OFFCURVE",
"395 625 CURVE",
"411 708 LINE",
"390 715 OFFCURVE",
"365 718 OFFCURVE",
"340 718 CURVE SMOOTH",
"260 718 OFFCURVE",
"181 677 OFFCURVE",
"152 538 CURVE SMOOTH",
"132 445 LINE",
"53 445 LINE",
"37 364 LINE",
"116 364 LINE"
);
}
);
width = 452;
}
);
unicode = 0192;
},
{
glyphname = quotedblbase;
layers = (
{
hints = (
{
horizontal = 1;
place = "{-145, 266}";
type = Stem;
},
{
place = "{20, 337}";
type = Stem;
}
);
layerId = "52A54639-B708-4391-8FEC-DE0E18BC7F23";
paths = (
{
closed = 1;
nodes = (
"174 121 LINE",
"72 121 LINE",
"20 -145 LINE",
"96 -145 LINE"
);
},
{
closed = 1;
nodes = (
"357 121 LINE",
"257 121 LINE",
"205 -145 LINE",
"281 -145 LINE"
);
}
);
width = 396;
}
);
unicode = 201E;
},
{
glyphname = ellipsis;
layers = (
{
hints = (
{
horizontal = 1;
place = "{-9, 133}";
type = Stem;
},
{
place = "{104, 137}";
type = Stem;
},
{
place = "{357, 137}";
type = Stem;
},
{
place = "{610, 135}";
type = Stem;
}
);
layerId = "52A54639-B708-4391-8FEC-DE0E18BC7F23";
paths = (
{
closed = 1;
nodes = (
"104 18 OFFCURVE",
"136 -9 OFFCURVE",
"172 -9 CURVE SMOOTH",
"209 -9 OFFCURVE",
"241 18 OFFCURVE",
"241 58 CURVE SMOOTH",
"241 98 OFFCURVE",
"209 124 OFFCURVE",
"172 124 CURVE SMOOTH",
"136 124 OFFCURVE",
"104 98 OFFCURVE",
"104 58 CURVE SMOOTH"
);
},
{
closed = 1;
nodes = (
"357 18 OFFCURVE",
"387 -9 OFFCURVE",
"426 -9 CURVE SMOOTH",
"463 -9 OFFCURVE",
"494 18 OFFCURVE",
"494 58 CURVE SMOOTH",
"494 98 OFFCURVE",
"463 124 OFFCURVE",
"426 124 CURVE SMOOTH",
"387 124 OFFCURVE",
"357 98 OFFCURVE",
"357 58 CURVE SMOOTH"
);
},
{
closed = 1;
nodes = (
"610 18 OFFCURVE",
"639 -9 OFFCURVE",
"678 -9 CURVE SMOOTH",
"717 -9 OFFCURVE",
"745 18 OFFCURVE",
"745 58 CURVE SMOOTH",
"745 98 OFFCURVE",
"717 124 OFFCURVE",
"678 124 CURVE SMOOTH",
"639 124 OFFCURVE",
"610 98 OFFCURVE",
"610 58 CURVE SMOOTH"
);
}
);
width = 849;
}
);
unicode = 2026;
},
{
glyphname = dagger;
layers = (
{
hints = (
{
horizontal = 1;
place = "{483, 63}";
type = Stem;
},
{
horizontal = 1;
place = "{708, -20}";
target = down;
type = TopGhost;
},
{
place = "{179, 67}";
type = Stem;
}
);
layerId = "52A54639-B708-4391-8FEC-DE0E18BC7F23";
paths = (
{
closed = 1;
nodes = (
"252 708 LINE",
"174 708 LINE",
"182 543 LINE",
"43 550 LINE",
"43 480 LINE",
"184 487 LINE",
"175 63 LINE",
"251 63 LINE",
"243 487 LINE",
"385 480 LINE",
"385 550 LINE",
"245 543 LINE"
);
}
);
width = 428;
}
);
unicode = 2020;
},
{
glyphname = daggerdbl;
layers = (
{
hints = (
{
place = "{177, 70}";
type = Stem;
},
{
place = "{178, 65}";
type = Stem;
},
{
horizontal = 1;
place = "{89, 64}";
type = Stem;
},
{
horizontal = 1;
place = "{485, 64}";
type = Stem;
},
{
horizontal = 1;
place = "{708, -20}";
target = down;
type = TopGhost;
}
);
layerId = "52A54639-B708-4391-8FEC-DE0E18BC7F23";
paths = (
{
closed = 1;
nodes = (
"175 -61 LINE",
"250 -61 LINE",
"244 92 LINE",
"381 87 LINE",
"381 157 LINE",
"243 151 LINE",
"248 254 OFFCURVE",
"248 386 OFFCURVE",
"243 489 CURVE",
"381 482 LINE",
"381 553 LINE",
"244 547 LINE",
"250 708 LINE",
"175 708 LINE",
"179 547 LINE",
"43 553 LINE",
"43 482 LINE",
"180 489 LINE",
"180 437 OFFCURVE",
"178 379 OFFCURVE",
"178 320 CURVE SMOOTH",
"178 261 OFFCURVE",
"180 203 OFFCURVE",
"180 151 CURVE",
"43 157 LINE",
"43 87 LINE",
"179 92 LINE"
);
}
);
width = 424;
}
);
unicode = 2021;
},
{
glyphname = circumflex;
layers = (
{
hints = (
{
horizontal = 1;
place = "{551, 148}";
type = Stem;
},
{
place = "{20, 301}";
type = Stem;
}
);
layerId = "52A54639-B708-4391-8FEC-DE0E18BC7F23";
paths = (
{
closed = 1;
nodes = (
"210 699 LINE",
"132 699 LINE",
"20 551 LINE",
"97 551 LINE",
"170 629 LINE",
"245 551 LINE",
"321 551 LINE"
);
}
);
width = 340;
}
);
unicode = 02C6;
},
{
glyphname = perthousand;
layers = (
{
hints = (
{
place = "{30, 76}";
type = Stem;
},
{
place = "{284, 75}";
type = Stem;
},
{
place = "{424, 76}";
type = Stem;
},
{
place = "{677, 75}";
type = Stem;
},
{
place = "{800, 76}";
type = Stem;
},
{
place = "{1053, 76}";
type = Stem;
},
{
horizontal = 1;
place = "{-11, 68}";
type = Stem;
},
{
horizontal = 1;
place = "{0, 21}";
target = up;
type = BottomGhost;
},
{
horizontal = 1;
place = "{276, 68}";
type = Stem;
},
{
horizontal = 1;
place = "{354, 67}";
type = Stem;
},
{
horizontal = 1;
place = "{643, 67}";
type = Stem;
}
);
layerId = "52A54639-B708-4391-8FEC-DE0E18BC7F23";
paths = (
{
closed = 1;
nodes = (
"359 633 OFFCURVE",
"293 710 OFFCURVE",
"196 710 CURVE SMOOTH",
"100 710 OFFCURVE",
"30 630 OFFCURVE",
"30 532 CURVE SMOOTH",
"30 435 OFFCURVE",
"96 354 OFFCURVE",
"195 354 CURVE SMOOTH",
"292 354 OFFCURVE",
"359 436 OFFCURVE",
"359 533 CURVE SMOOTH"
);
},
{
closed = 1;
nodes = (
"599 701 LINE",
"104 0 LINE",
"198 0 LINE",
"350 228 OFFCURVE",
"535 472 OFFCURVE",
"692 701 CURVE"
);
},
{
closed = 1;
nodes = (
"284 468 OFFCURVE",
"249 421 OFFCURVE",
"196 421 CURVE SMOOTH",
"144 421 OFFCURVE",
"106 468 OFFCURVE",
"106 533 CURVE SMOOTH",
"106 598 OFFCURVE",
"139 643 OFFCURVE",
"192 643 CURVE SMOOTH",
"248 643 OFFCURVE",
"284 596 OFFCURVE",
"284 532 CURVE SMOOTH"
);
},
{
closed = 1;
nodes = (
"752 266 OFFCURVE",
"685 344 OFFCURVE",
"589 344 CURVE SMOOTH",
"493 344 OFFCURVE",
"424 267 OFFCURVE",
"424 166 CURVE SMOOTH",
"424 68 OFFCURVE",
"492 -11 OFFCURVE",
"588 -11 CURVE SMOOTH",
"685 -11 OFFCURVE",
"752 69 OFFCURVE",
"752 168 CURVE SMOOTH"
);
},
{
closed = 1;
nodes = (
"1129 266 OFFCURVE",
"1061 344 OFFCURVE",
"966 344 CURVE SMOOTH",
"870 344 OFFCURVE",
"800 267 OFFCURVE",
"800 166 CURVE SMOOTH",
"800 68 OFFCURVE",
"869 -11 OFFCURVE",
"965 -11 CURVE SMOOTH",
"1060 -11 OFFCURVE",
"1129 69 OFFCURVE",
"1129 168 CURVE SMOOTH"
);
},
{
closed = 1;
nodes = (
"677 99 OFFCURVE",
"645 57 OFFCURVE",
"589 57 CURVE SMOOTH",
"537 57 OFFCURVE",
"500 101 OFFCURVE",
"500 168 CURVE SMOOTH",
"500 232 OFFCURVE",
"536 276 OFFCURVE",
"588 276 CURVE SMOOTH",
"641 276 OFFCURVE",
"677 234 OFFCURVE",
"677 163 CURVE SMOOTH"
);
},
{
closed = 1;
nodes = (
"1053 99 OFFCURVE",
"1022 57 OFFCURVE",
"966 57 CURVE SMOOTH",
"914 57 OFFCURVE",
"876 101 OFFCURVE",
"876 168 CURVE SMOOTH",
"876 231 OFFCURVE",
"912 276 OFFCURVE",
"965 276 CURVE SMOOTH",
"1017 276 OFFCURVE",
"1053 234 OFFCURVE",
"1053 163 CURVE SMOOTH"
);
}
);
width = 1160;
}
);
unicode = 2030;
},
{
glyphname = guilsinglleft;
layers = (
{
hints = (
{
horizontal = 1;
place = "{39, 425}";
type = Stem;
},
{
place = "{30, 236}";
type = Stem;
}
);
layerId = "52A54639-B708-4391-8FEC-DE0E18BC7F23";
paths = (
{
closed = 1;
nodes = (
"136 252 LINE",
"266 434 LINE",
"185 464 LINE",
"30 250 LINE",
"185 39 LINE",
"265 73 LINE"
);
}
);
width = 290;
}
);
unicode = 2039;
},
{
glyphname = quoteleft;
layers = (
{
hints = (
{
horizontal = 1;
place = "{707, -20}";
target = down;
type = TopGhost;
},
{
place = "{35, 154}";
type = Stem;
}
);
layerId = "52A54639-B708-4391-8FEC-DE0E18BC7F23";
paths = (
{
closed = 1;
nodes = (
"35 441 LINE",
"136 441 LINE",
"189 707 LINE",
"112 707 LINE"
);
}
);
width = 212;
}
);
unicode = 2018;
},
{
glyphname = quoteright;
layers = (
{
hints = (
{
horizontal = 1;
place = "{704, -20}";
target = down;
type = TopGhost;
},
{
place = "{34, 154}";
type = Stem;
}
);
layerId = "52A54639-B708-4391-8FEC-DE0E18BC7F23";
paths = (
{
closed = 1;
nodes = (
"188 704 LINE",
"86 704 LINE",
"34 439 LINE",
"110 439 LINE"
);
}
);
width = 211;
}
);
unicode = 2019;
},
{
glyphname = quotedblleft;
layers = (
{
hints = (
{
place = "{34, 337}";
type = Stem;
},
{
horizontal = 1;
place = "{441, 266}";
type = Stem;
},
{
horizontal = 1;
place = "{707, -20}";
target = down;
type = TopGhost;
}
);
layerId = "52A54639-B708-4391-8FEC-DE0E18BC7F23";
paths = (
{
closed = 1;
nodes = (
"34 441 LINE",
"135 441 LINE",
"188 707 LINE",
"111 707 LINE"
);
},
{
closed = 1;
nodes = (
"219 441 LINE",
"320 441 LINE",
"371 707 LINE",
"295 707 LINE"
);
}
);
width = 394;
}
);
unicode = 201C;
},
{
glyphname = quotedblright;
layers = (
{
hints = (
{
place = "{34, 337}";
type = Stem;
},
{
horizontal = 1;
place = "{439, 265}";
type = Stem;
},
{
horizontal = 1;
place = "{704, -20}";
target = down;
type = TopGhost;
}
);
layerId = "52A54639-B708-4391-8FEC-DE0E18BC7F23";
paths = (
{
closed = 1;
nodes = (
"187 704 LINE",
"86 704 LINE",
"34 439 LINE",
"109 439 LINE"
);
},
{
closed = 1;
nodes = (
"371 704 LINE",
"271 704 LINE",
"219 439 LINE",
"294 439 LINE"
);
}
);
width = 394;
}
);
unicode = 201D;
},
{
glyphname = bullet;
layers = (
{
hints = (
{
horizontal = 1;
place = "{505, -20}";
target = down;
type = TopGhost;
},
{
place = "{38, 302}";
type = Stem;
}
);
layerId = "52A54639-B708-4391-8FEC-DE0E18BC7F23";
paths = (
{
closed = 1;
nodes = (
"38 271 OFFCURVE",
"106 203 OFFCURVE",
"188 203 CURVE SMOOTH",
"272 203 OFFCURVE",
"340 271 OFFCURVE",
"340 354 CURVE SMOOTH",
"340 439 OFFCURVE",
"271 505 OFFCURVE",
"188 505 CURVE SMOOTH",
"104 505 OFFCURVE",
"38 437 OFFCURVE",
"38 353 CURVE SMOOTH"
);
}
);
width = 378;
}
);
unicode = 2022;
},
{
glyphname = endash;
layers = (
{
hints = (
{
horizontal = 1;
place = "{244, 90}";
type = Stem;
},
{
place = "{31, 440}";
type = Stem;
}
);
layerId = "52A54639-B708-4391-8FEC-DE0E18BC7F23";
paths = (
{
closed = 1;
nodes = (
"471 334 LINE",
"31 334 LINE",
"31 244 LINE",
"471 244 LINE"
);
}
);
width = 503;
}
);
unicode = 2013;
},
{
glyphname = emdash;
layers = (
{
hints = (
{
horizontal = 1;
place = "{244, 90}";
type = Stem;
},
{
place = "{31, 706}";
type = Stem;
}
);
layerId = "52A54639-B708-4391-8FEC-DE0E18BC7F23";
paths = (
{
closed = 1;
nodes = (
"737 334 LINE",
"31 334 LINE",
"31 244 LINE",
"737 244 LINE"
);
}
);
width = 768;
}
);
unicode = 2014;
},
{
glyphname = tilde;
layers = (
{
hints = (
{
place = "{21, 338}";
type = Stem;
},
{
horizontal = 1;
place = "{559, 77}";
type = Stem;
},
{
horizontal = 1;
place = "{596, 77}";
type = Stem;
}
);
layerId = "52A54639-B708-4391-8FEC-DE0E18BC7F23";
paths = (
{
closed = 1;
nodes = (
"83 550 LINE",
"94 583 OFFCURVE",
"115 596 OFFCURVE",
"138 596 CURVE SMOOTH",
"178 596 OFFCURVE",
"215 559 OFFCURVE",
"260 559 CURVE SMOOTH",
"309 559 OFFCURVE",
"339 602 OFFCURVE",
"359 669 CURVE",
"298 681 LINE",
"287 650 OFFCURVE",
"274 636 OFFCURVE",
"254 636 CURVE SMOOTH",
"220 636 OFFCURVE",
"179 673 OFFCURVE",
"131 673 CURVE SMOOTH",
"78 673 OFFCURVE",
"41 628 OFFCURVE",
"21 561 CURVE"
);
}
);
width = 380;
}
);
unicode = 02DC;
},
{
glyphname = trademark;
layers = (
{
hints = (
{
horizontal = 1;
place = "{635, 71}";
type = Stem;
},
{
place = "{161, 78}";
type = Stem;
},
{
place = "{437, 78}";
type = Stem;
},
{
place = "{806, 78}";
type = Stem;
}
);
layerId = "52A54639-B708-4391-8FEC-DE0E18BC7F23";
paths = (
{
closed = 1;
nodes = (
"369 706 LINE",
"30 706 LINE",
"30 635 LINE",
"161 635 LINE",
"161 292 LINE",
"239 292 LINE",
"239 635 LINE",
"369 635 LINE"
);
},
{
closed = 1;
nodes = (
"884 706 LINE",
"781 706 LINE",
"661 422 LINE",
"543 706 LINE",
"437 706 LINE",
"437 292 LINE",
"515 292 LINE",
"515 586 LINE",
"635 292 LINE",
"685 292 LINE",
"806 585 LINE",
"806 292 LINE",
"884 292 LINE"
);
}
);
width = 896;
}
);
unicode = 2122;
},
{
glyphname = guilsinglright;
layers = (
{
hints = (
{
horizontal = 1;
place = "{39, 425}";
type = Stem;
},
{
place = "{24, 237}";
type = Stem;
}
);
layerId = "52A54639-B708-4391-8FEC-DE0E18BC7F23";
paths = (
{
closed = 1;
nodes = (
"27 73 LINE",
"106 39 LINE",
"261 250 LINE",
"106 464 LINE",
"24 434 LINE",
"154 252 LINE"
);
}
);
width = 289;
}
);
unicode = 203A;
},
{
glyphname = exclamdown;
layers = (
{
hints = (
{
place = "{56, 136}";
type = Stem;
},
{
place = "{81, 86}";
type = Stem;
},
{
horizontal = 1;
place = "{510, 130}";
type = Stem;
}
);
layerId = "52A54639-B708-4391-8FEC-DE0E18BC7F23";
paths = (
{
closed = 1;
nodes = (
"192 616 OFFCURVE",
"160 640 OFFCURVE",
"124 640 CURVE SMOOTH",
"87 640 OFFCURVE",
"56 616 OFFCURVE",
"56 575 CURVE SMOOTH",
"56 536 OFFCURVE",
"87 510 OFFCURVE",
"124 510 CURVE SMOOTH",
"160 510 OFFCURVE",
"192 536 OFFCURVE",
"192 575 CURVE SMOOTH"
);
},
{
closed = 1;
nodes = (
"183 -74 LINE",
"179 45 LINE",
"156 424 LINE",
"93 424 LINE",
"70 45 LINE",
"65 -74 LINE"
);
}
);
width = 248;
}
);
unicode = 00A1;
},
{
glyphname = cent;
layers = (
{
hints = (
{
horizontal = 1;
place = "{-13, 21}";
target = up;
type = BottomGhost;
},
{
horizontal = 1;
place = "{73, 82}";
type = Stem;
},
{
horizontal = 1;
place = "{493, 171}";
type = Stem;
},
{
place = "{72, 95}";
type = Stem;
},
{
place = "{321, 71}";
type = Stem;
}
);
layerId = "52A54639-B708-4391-8FEC-DE0E18BC7F23";
paths = (
{
closed = 1;
nodes = (
"484 532 LINE",
"453 556 OFFCURVE",
"420 572 OFFCURVE",
"388 577 CURVE",
"397 664 LINE",
"326 664 LINE",
"316 584 LINE",
"172 579 OFFCURVE",
"72 472 OFFCURVE",
"72 327 CURVE SMOOTH",
"72 212 OFFCURVE",
"146 112 OFFCURVE",
"255 83 CURVE",
"242 -13 LINE",
"316 -13 LINE",
"327 73 LINE",
"394 73 OFFCURVE",
"444 94 OFFCURVE",
"484 130 CURVE",
"484 228 LINE",
"445 188 OFFCURVE",
"391 155 OFFCURVE",
"334 155 CURVE",
"374 493 LINE",
"421 488 OFFCURVE",
"461 463 OFFCURVE",
"484 436 CURVE"
);
},
{
closed = 1;
nodes = (
"267 166 LINE",
"204 197 OFFCURVE",
"167 249 OFFCURVE",
"167 330 CURVE SMOOTH",
"167 431 OFFCURVE",
"220 491 OFFCURVE",
"307 499 CURVE"
);
}
);
width = 561;
}
);
unicode = 00A2;
},
{
glyphname = sterling;
layers = (
{
hints = (
{
horizontal = 1;
place = "{0, 86}";
type = Stem;
},
{
horizontal = 1;
place = "{298, 79}";
type = Stem;
},
{
horizontal = 1;
place = "{623, 93}";
type = Stem;
},
{
place = "{125, 104}";
type = Stem;
}
);
layerId = "52A54639-B708-4391-8FEC-DE0E18BC7F23";
paths = (
{
closed = 1;
nodes = (
"473 377 LINE",
"229 377 LINE",
"229 471 LINE SMOOTH",
"229 554 OFFCURVE",
"265 623 OFFCURVE",
"357 623 CURVE SMOOTH",
"421 623 OFFCURVE",
"457 597 OFFCURVE",
"493 554 CURVE",
"561 619 LINE",
"513 678 OFFCURVE",
"448 716 OFFCURVE",
"356 716 CURVE SMOOTH",
"209 716 OFFCURVE",
"125 614 OFFCURVE",
"125 472 CURVE SMOOTH",
"125 377 LINE",
"58 377 LINE",
"58 298 LINE",
"125 298 LINE",
"125 0 LINE",
"553 0 LINE",
"553 86 LINE",
"229 86 LINE",
"229 298 LINE",
"473 298 LINE"
);
}
);
width = 606;
}
);
unicode = 00A3;
},
{
glyphname = currency;
layers = (
{
hints = (
{
horizontal = 1;
place = "{73, 82}";
type = Stem;
},
{
horizontal = 1;
place = "{502, 81}";
type = Stem;
},
{
place = "{74, 88}";
type = Stem;
},
{
place = "{497, 90}";
type = Stem;
}
);
layerId = "52A54639-B708-4391-8FEC-DE0E18BC7F23";
paths = (
{
closed = 1;
nodes = (
"575 627 LINE",
"482 534 LINE",
"439 566 OFFCURVE",
"387 583 OFFCURVE",
"330 583 CURVE SMOOTH",
"274 583 OFFCURVE",
"221 566 OFFCURVE",
"176 533 CURVE",
"81 627 LINE",
"28 572 LINE",
"121 479 LINE",
"88 431 OFFCURVE",
"74 388 OFFCURVE",
"74 328 CURVE SMOOTH",
"74 267 OFFCURVE",
"91 219 OFFCURVE",
"124 176 CURVE",
"28 80 LINE",
"81 25 LINE",
"179 121 LINE",
"226 89 OFFCURVE",
"275 73 OFFCURVE",
"330 73 CURVE SMOOTH",
"385 73 OFFCURVE",
"434 89 OFFCURVE",
"481 120 CURVE",
"576 25 LINE",
"631 80 LINE",
"537 173 LINE",
"569 218 OFFCURVE",
"587 268 OFFCURVE",
"587 328 CURVE SMOOTH",
"587 388 OFFCURVE",
"570 433 OFFCURVE",
"539 481 CURVE",
"631 572 LINE"
);
},
{
closed = 1;
nodes = (
"430 502 OFFCURVE",
"497 427 OFFCURVE",
"497 327 CURVE SMOOTH",
"497 233 OFFCURVE",
"430 155 OFFCURVE",
"330 155 CURVE SMOOTH",
"229 155 OFFCURVE",
"162 232 OFFCURVE",
"162 328 CURVE SMOOTH",
"162 423 OFFCURVE",
"229 502 OFFCURVE",
"330 502 CURVE SMOOTH"
);
}
);
width = 656;
}
);
unicode = 00A4;
},
{
glyphname = yen;
layers = (
{
hints = (
{
place = "{263, 109}";
type = Stem;
},
{
place = "{268, 99}";
type = Stem;
},
{
horizontal = 1;
place = "{0, 213}";
type = Stem;
},
{
horizontal = 1;
place = "{137, 76}";
type = Stem;
},
{
horizontal = 1;
place = "{296, 76}";
type = Stem;
},
{
horizontal = 1;
place = "{704, -20}";
target = down;
type = TopGhost;
}
);
layerId = "52A54639-B708-4391-8FEC-DE0E18BC7F23";
paths = (
{
closed = 1;
nodes = (
"83 213 LINE",
"83 137 LINE",
"268 137 LINE",
"268 0 LINE",
"367 0 LINE",
"367 137 LINE",
"551 137 LINE",
"551 213 LINE",
"369 213 LINE",
"375 296 LINE",
"551 296 LINE",
"551 372 LINE",
"408 372 LINE",
"621 704 LINE",
"506 704 LINE",
"320 388 LINE",
"132 704 LINE",
"14 704 LINE",
"227 372 LINE",
"83 372 LINE",
"83 296 LINE",
"258 296 LINE",
"268 213 LINE"
);
}
);
width = 634;
}
);
unicode = 00A5;
},
{
glyphname = brokenbar;
layers = (
{
hints = (
{
horizontal = 1;
place = "{-174, 853}";
type = Stem;
},
{
place = "{91, 91}";
type = Stem;
}
);
layerId = "52A54639-B708-4391-8FEC-DE0E18BC7F23";
paths = (
{
closed = 1;
nodes = (
"91 679 LINE",
"91 327 LINE",
"182 327 LINE",
"182 679 LINE"
);
},
{
closed = 1;
nodes = (
"91 173 LINE",
"91 -174 LINE",
"182 -174 LINE",
"182 173 LINE"
);
}
);
width = 272;
}
);
unicode = 00A6;
},
{
glyphname = section;
layers = (
{
hints = (
{
place = "{59, 88}";
type = Stem;
},
{
place = "{108, 98}";
type = Stem;
},
{
place = "{395, 97}";
type = Stem;
},
{
place = "{453, 88}";
type = Stem;
},
{
horizontal = 1;
place = "{-74, 78}";
type = Stem;
},
{
horizontal = 1;
place = "{642, 79}";
type = Stem;
}
);
layerId = "52A54639-B708-4391-8FEC-DE0E18BC7F23";
paths = (
{
closed = 1;
nodes = (
"460 670 LINE",
"419 702 OFFCURVE",
"364 721 OFFCURVE",
"299 721 CURVE SMOOTH",
"189 721 OFFCURVE",
"108 662 OFFCURVE",
"108 579 CURVE SMOOTH",
"108 527 OFFCURVE",
"140 487 OFFCURVE",
"177 462 CURVE",
"101 443 OFFCURVE",
"59 401 OFFCURVE",
"59 336 CURVE SMOOTH",
"59 268 OFFCURVE",
"112 214 OFFCURVE",
"248 177 CURVE",
"343 149 OFFCURVE",
"395 115 OFFCURVE",
"395 74 CURVE SMOOTH",
"395 29 OFFCURVE",
"360 4 OFFCURVE",
"301 4 CURVE SMOOTH",
"238 4 OFFCURVE",
"179 27 OFFCURVE",
"132 75 CURVE",
"132 -18 LINE",
"176 -53 OFFCURVE",
"231 -74 OFFCURVE",
"300 -74 CURVE SMOOTH",
"415 -74 OFFCURVE",
"492 -12 OFFCURVE",
"492 77 CURVE SMOOTH",
"492 121 OFFCURVE",
"469 158 OFFCURVE",
"425 191 CURVE",
"498 211 OFFCURVE",
"541 249 OFFCURVE",
"541 317 CURVE SMOOTH",
"541 383 OFFCURVE",
"500 428 OFFCURVE",
"348 476 CURVE",
"237 513 OFFCURVE",
"206 546 OFFCURVE",
"206 578 CURVE SMOOTH",
"206 622 OFFCURVE",
"245 642 OFFCURVE",
"304 642 CURVE SMOOTH",
"364 642 OFFCURVE",
"409 619 OFFCURVE",
"460 578 CURVE"
);
},
{
closed = 1;
nodes = (
"453 258 OFFCURVE",
"418 231 OFFCURVE",
"363 231 CURVE",
"245 247 OFFCURVE",
"147 290 OFFCURVE",
"147 349 CURVE SMOOTH",
"147 392 OFFCURVE",
"184 414 OFFCURVE",
"240 421 CURVE",
"299 410 OFFCURVE",
"453 369 OFFCURVE",
"453 295 CURVE SMOOTH"
);
}
);
width = 599;
}
);
unicode = 00A7;
},
{
glyphname = dieresis;
layers = (
{
hints = (
{
horizontal = 1;
place = "{516, 127}";
type = Stem;
},
{
place = "{-1, 128}";
type = Stem;
},
{
place = "{197, 126}";
type = Stem;
}
);
layerId = "52A54639-B708-4391-8FEC-DE0E18BC7F23";
paths = (
{
closed = 1;
nodes = (
"-1 543 OFFCURVE",
"26 516 OFFCURVE",
"63 516 CURVE SMOOTH",
"98 516 OFFCURVE",
"127 543 OFFCURVE",
"127 580 CURVE SMOOTH",
"127 616 OFFCURVE",
"98 643 OFFCURVE",
"63 643 CURVE SMOOTH",
"26 643 OFFCURVE",
"-1 616 OFFCURVE",
"-1 580 CURVE SMOOTH"
);
},
{
closed = 1;
nodes = (
"197 543 OFFCURVE",
"224 516 OFFCURVE",
"259 516 CURVE SMOOTH",
"296 516 OFFCURVE",
"323 543 OFFCURVE",
"323 580 CURVE SMOOTH",
"323 616 OFFCURVE",
"296 643 OFFCURVE",
"259 643 CURVE SMOOTH",
"224 643 OFFCURVE",
"197 616 OFFCURVE",
"197 580 CURVE SMOOTH"
);
}
);
width = 322;
}
);
unicode = 00A8;
},
{
glyphname = copyright;
layers = (
{
hints = (
{
horizontal = 1;
place = "{-55, 64}";
type = Stem;
},
{
horizontal = 1;
place = "{114, 79}";
type = Stem;
},
{
horizontal = 1;
place = "{486, 79}";
type = Stem;
},
{
horizontal = 1;
place = "{660, 64}";
type = Stem;
},
{
place = "{42, 61}";
type = Stem;
},
{
place = "{215, 90}";
type = Stem;
},
{
place = "{752, 61}";
type = Stem;
}
);
layerId = "52A54639-B708-4391-8FEC-DE0E18BC7F23";
paths = (
{
closed = 1;
nodes = (
"642 -55 OFFCURVE",
"813 119 OFFCURVE",
"813 335 CURVE SMOOTH",
"813 549 OFFCURVE",
"640 724 OFFCURVE",
"427 724 CURVE SMOOTH",
"216 724 OFFCURVE",
"42 549 OFFCURVE",
"42 338 CURVE SMOOTH",
"42 120 OFFCURVE",
"211 -55 OFFCURVE",
"428 -55 CURVE SMOOTH"
);
},
{
closed = 1;
nodes = (
"246 9 OFFCURVE",
"103 156 OFFCURVE",
"103 336 CURVE SMOOTH",
"103 515 OFFCURVE",
"248 660 OFFCURVE",
"428 660 CURVE SMOOTH",
"607 660 OFFCURVE",
"752 514 OFFCURVE",
"752 335 CURVE SMOOTH",
"752 156 OFFCURVE",
"607 9 OFFCURVE",
"428 9 CURVE SMOOTH"
);
},
{
closed = 1;
nodes = (
"556 243 LINE",
"513 204 OFFCURVE",
"473 193 OFFCURVE",
"438 193 CURVE SMOOTH",
"358 193 OFFCURVE",
"305 259 OFFCURVE",
"305 342 CURVE SMOOTH",
"305 423 OFFCURVE",
"361 486 OFFCURVE",
"436 486 CURVE SMOOTH",
"481 486 OFFCURVE",
"526 466 OFFCURVE",
"557 435 CURVE",
"557 524 LINE",
"530 544 OFFCURVE",
"486 565 OFFCURVE",
"431 565 CURVE SMOOTH",
"300 565 OFFCURVE",
"215 466 OFFCURVE",
"215 342 CURVE SMOOTH",
"215 214 OFFCURVE",
"303 114 OFFCURVE",
"428 114 CURVE SMOOTH",
"481 114 OFFCURVE",
"521 132 OFFCURVE",
"556 161 CURVE"
);
}
);
width = 852;
}
);
unicode = 00A9;
},
{
glyphname = ordfeminine;
layers = (
{
hints = (
{
horizontal = 1;
place = "{288, 52}";
type = Stem;
},
{
horizontal = 1;
place = "{410, 46}";
type = Stem;
},
{
horizontal = 1;
place = "{556, 40}";
type = Stem;
},
{
horizontal = 1;
place = "{656, 52}";
type = Stem;
},
{
place = "{39, 59}";
type = Stem;
},
{
place = "{238, 60}";
type = Stem;
}
);
layerId = "52A54639-B708-4391-8FEC-DE0E18BC7F23";
paths = (
{
closed = 1;
nodes = (
"183 410 OFFCURVE",
"217 428 OFFCURVE",
"238 456 CURVE",
"238 416 LINE",
"298 416 LINE",
"298 589 LINE SMOOTH",
"298 670 OFFCURVE",
"247 708 OFFCURVE",
"170 708 CURVE SMOOTH",
"130 708 OFFCURVE",
"94 698 OFFCURVE",
"63 683 CURVE",
"80 634 LINE",
"105 647 OFFCURVE",
"134 656 OFFCURVE",
"163 656 CURVE SMOOTH",
"211 656 OFFCURVE",
"238 634 OFFCURVE",
"238 589 CURVE SMOOTH",
"238 582 LINE",
"214 590 OFFCURVE",
"192 596 OFFCURVE",
"160 596 CURVE SMOOTH",
"88 596 OFFCURVE",
"39 565 OFFCURVE",
"39 500 CURVE SMOOTH",
"39 441 OFFCURVE",
"92 410 OFFCURVE",
"143 410 CURVE SMOOTH"
);
},
{
closed = 1;
nodes = (
"125 456 OFFCURVE",
"98 472 OFFCURVE",
"98 504 CURVE SMOOTH",
"98 536 OFFCURVE",
"125 556 OFFCURVE",
"169 556 CURVE SMOOTH",
"197 556 OFFCURVE",
"220 550 OFFCURVE",
"239 542 CURVE",
"239 522 LINE SMOOTH",
"239 482 OFFCURVE",
"202 456 OFFCURVE",
"158 456 CURVE SMOOTH"
);
},
{
closed = 1;
nodes = (
"35 288 LINE",
"303 288 LINE",
"303 340 LINE",
"35 340 LINE"
);
}
);
width = 345;
}
);
unicode = 00AA;
},
{
glyphname = guillemotleft;
layers = (
{
hints = (
{
horizontal = 1;
place = "{39, 425}";
type = Stem;
},
{
place = "{30, 456}";
type = Stem;
}
);
layerId = "52A54639-B708-4391-8FEC-DE0E18BC7F23";
paths = (
{
closed = 1;
nodes = (
"136 252 LINE",
"266 434 LINE",
"185 464 LINE",
"30 250 LINE",
"185 39 LINE",
"265 73 LINE"
);
},
{
closed = 1;
nodes = (
"356 252 LINE",
"486 434 LINE",
"405 464 LINE",
"250 250 LINE",
"405 39 LINE",
"485 73 LINE"
);
}
);
width = 510;
}
);
unicode = 00AB;
},
{
glyphname = logicalnot;
layers = (
{
hints = (
{
horizontal = 1;
place = "{329, 83}";
type = Stem;
},
{
place = "{475, 82}";
type = Stem;
}
);
layerId = "52A54639-B708-4391-8FEC-DE0E18BC7F23";
paths = (
{
closed = 1;
nodes = (
"557 412 LINE",
"42 412 LINE",
"42 329 LINE",
"475 329 LINE",
"475 128 LINE",
"557 128 LINE"
);
}
);
width = 599;
}
);
unicode = 00AC;
},
{
glyphname = registered;
layers = (
{
hints = (
{
horizontal = 1;
place = "{9, 57}";
type = Stem;
},
{
horizontal = 1;
place = "{329, 68}";
type = Stem;
},
{
horizontal = 1;
place = "{513, 66}";
type = Stem;
},
{
horizontal = 1;
place = "{667, 57}";
type = Stem;
},
{
place = "{46, 60}";
type = Stem;
},
{
place = "{273, 77}";
type = Stem;
},
{
place = "{480, 72}";
type = Stem;
},
{
place = "{707, 60}";
type = Stem;
}
);
layerId = "52A54639-B708-4391-8FEC-DE0E18BC7F23";
paths = (
{
closed = 1;
nodes = (
"46 171 OFFCURVE",
"206 9 OFFCURVE",
"408 9 CURVE SMOOTH",
"603 9 OFFCURVE",
"767 172 OFFCURVE",
"767 368 CURVE SMOOTH",
"767 562 OFFCURVE",
"605 724 OFFCURVE",
"410 724 CURVE SMOOTH",
"207 724 OFFCURVE",
"46 566 OFFCURVE",
"46 368 CURVE SMOOTH"
);
},
{
closed = 1;
nodes = (
"106 534 OFFCURVE",
"239 667 OFFCURVE",
"410 667 CURVE SMOOTH",
"573 667 OFFCURVE",
"707 533 OFFCURVE",
"707 369 CURVE SMOOTH",
"707 205 OFFCURVE",
"573 66 OFFCURVE",
"408 66 CURVE SMOOTH",
"237 66 OFFCURVE",
"106 203 OFFCURVE",
"106 367 CURVE SMOOTH"
);
},
{
closed = 1;
nodes = (
"273 159 LINE",
"350 159 LINE",
"350 329 LINE",
"369 329 LINE",
"500 159 LINE",
"590 159 LINE",
"449 339 LINE",
"505 350 OFFCURVE",
"552 399 OFFCURVE",
"552 460 CURVE SMOOTH",
"552 532 OFFCURVE",
"495 579 OFFCURVE",
"420 579 CURVE SMOOTH",
"273 579 LINE"
);
},
{
closed = 1;
nodes = (
"350 397 LINE",
"350 513 LINE",
"408 513 LINE SMOOTH",
"456 513 OFFCURVE",
"480 485 OFFCURVE",
"480 454 CURVE SMOOTH",
"480 419 OFFCURVE",
"448 397 OFFCURVE",
"407 397 CURVE SMOOTH"
);
}
);
width = 813;
}
);
unicode = 00AE;
},
{
glyphname = degree;
layers = (
{
hints = (
{
horizontal = 1;
place = "{410, 60}";
type = Stem;
},
{
horizontal = 1;
place = "{652, 60}";
type = Stem;
},
{
place = "{29, 63}";
type = Stem;
},
{
place = "{272, 64}";
type = Stem;
}
);
layerId = "52A54639-B708-4391-8FEC-DE0E18BC7F23";
paths = (
{
closed = 1;
nodes = (
"336 645 OFFCURVE",
"267 712 OFFCURVE",
"182 712 CURVE SMOOTH",
"100 712 OFFCURVE",
"29 643 OFFCURVE",
"29 560 CURVE SMOOTH",
"29 476 OFFCURVE",
"98 410 OFFCURVE",
"182 410 CURVE SMOOTH",
"265 410 OFFCURVE",
"336 476 OFFCURVE",
"336 561 CURVE SMOOTH"
);
},
{
closed = 1;
nodes = (
"272 508 OFFCURVE",
"233 470 OFFCURVE",
"182 470 CURVE SMOOTH",
"131 470 OFFCURVE",
"92 510 OFFCURVE",
"92 561 CURVE SMOOTH",
"92 609 OFFCURVE",
"132 652 OFFCURVE",
"182 652 CURVE SMOOTH",
"233 652 OFFCURVE",
"272 610 OFFCURVE",
"272 561 CURVE SMOOTH"
);
}
);
width = 361;
}
);
unicode = 00B0;
},
{
glyphname = plusminus;
layers = (
{
hints = (
{
horizontal = 1;
place = "{28, 80}";
type = Stem;
},
{
horizontal = 1;
place = "{336, 80}";
type = Stem;
},
{
place = "{249, 80}";
type = Stem;
}
);
layerId = "52A54639-B708-4391-8FEC-DE0E18BC7F23";
paths = (
{
closed = 1;
nodes = (
"42 336 LINE",
"249 336 LINE",
"249 180 LINE",
"329 180 LINE",
"329 336 LINE",
"535 336 LINE",
"535 416 LINE",
"329 416 LINE",
"329 577 LINE",
"249 577 LINE",
"249 416 LINE",
"42 416 LINE"
);
},
{
closed = 1;
nodes = (
"42 28 LINE",
"535 28 LINE",
"535 108 LINE",
"42 108 LINE"
);
}
);
width = 577;
}
);
unicode = 00B1;
},
{
glyphname = acute;
layers = (
{
hints = (
{
horizontal = 1;
place = "{567, 155}";
type = Stem;
},
{
place = "{100, 202}";
type = Stem;
}
);
layerId = "52A54639-B708-4391-8FEC-DE0E18BC7F23";
paths = (
{
closed = 1;
nodes = (
"302 696 LINE",
"193 722 LINE",
"100 567 LINE",
"171 567 LINE"
);
}
);
width = 312;
}
);
unicode = 00B4;
},
{
glyphname = paragraph;
layers = (
{
hints = (
{
horizontal = 1;
place = "{622, 84}";
type = Stem;
},
{
place = "{210, 85}";
type = Stem;
},
{
place = "{384, 85}";
type = Stem;
}
);
layerId = "52A54639-B708-4391-8FEC-DE0E18BC7F23";
paths = (
{
closed = 1;
nodes = (
"295 -106 LINE",
"295 622 LINE",
"384 622 LINE",
"384 -106 LINE",
"469 -106 LINE",
"469 622 LINE",
"506 622 LINE",
"542 706 LINE",
"238 706 LINE SMOOTH",
"111 706 OFFCURVE",
"35 642 OFFCURVE",
"35 527 CURVE SMOOTH",
"35 406 OFFCURVE",
"120 370 OFFCURVE",
"210 352 CURVE",
"210 -106 LINE"
);
}
);
width = 629;
}
);
unicode = 00B6;
},
{
glyphname = cedilla;
layers = (
{
hints = (
{
horizontal = 1;
place = "{-218, 54}";
type = Stem;
},
{
horizontal = 1;
place = "{-92, 30}";
type = Stem;
},
{
place = "{185, 79}";
type = Stem;
}
);
layerId = "52A54639-B708-4391-8FEC-DE0E18BC7F23";
paths = (
{
closed = 1;
nodes = (
"219 8 LINE",
"154 8 LINE",
"92 -84 LINE",
"111 -99 LINE",
"124 -94 OFFCURVE",
"133 -92 OFFCURVE",
"145 -92 CURVE SMOOTH",
"169 -92 OFFCURVE",
"185 -102 OFFCURVE",
"185 -122 CURVE SMOOTH",
"185 -154 OFFCURVE",
"145 -164 OFFCURVE",
"122 -164 CURVE SMOOTH",
"107 -164 OFFCURVE",
"89 -161 OFFCURVE",
"69 -153 CURVE",
"56 -197 LINE",
"83 -209 OFFCURVE",
"111 -218 OFFCURVE",
"143 -218 CURVE SMOOTH",
"195 -218 OFFCURVE",
"264 -194 OFFCURVE",
"264 -130 CURVE SMOOTH",
"264 -78 OFFCURVE",
"217 -62 OFFCURVE",
"182 -62 CURVE SMOOTH",
"178 -62 LINE"
);
}
);
width = 335;
}
);
unicode = 00B8;
},
{
glyphname = ordmasculine;
layers = (
{
hints = (
{
horizontal = 1;
place = "{288, 52}";
type = Stem;
},
{
horizontal = 1;
place = "{408, 56}";
type = Stem;
},
{
horizontal = 1;
place = "{653, 56}";
type = Stem;
},
{
place = "{20, 62}";
type = Stem;
},
{
place = "{259, 62}";
type = Stem;
}
);
layerId = "52A54639-B708-4391-8FEC-DE0E18BC7F23";
paths = (
{
closed = 1;
nodes = (
"255 408 OFFCURVE",
"321 477 OFFCURVE",
"321 561 CURVE SMOOTH",
"321 640 OFFCURVE",
"258 709 OFFCURVE",
"172 709 CURVE SMOOTH",
"84 709 OFFCURVE",
"20 641 OFFCURVE",
"20 558 CURVE SMOOTH",
"20 475 OFFCURVE",
"83 408 OFFCURVE",
"170 408 CURVE SMOOTH"
);
},
{
closed = 1;
nodes = (
"120 464 OFFCURVE",
"82 505 OFFCURVE",
"82 561 CURVE SMOOTH",
"82 609 OFFCURVE",
"115 653 OFFCURVE",
"170 653 CURVE SMOOTH",
"221 653 OFFCURVE",
"259 613 OFFCURVE",
"259 558 CURVE SMOOTH",
"259 505 OFFCURVE",
"224 464 OFFCURVE",
"172 464 CURVE SMOOTH"
);
},
{
closed = 1;
nodes = (
"27 288 LINE",
"315 288 LINE",
"315 340 LINE",
"27 340 LINE"
);
}
);
width = 342;
}
);
unicode = 00BA;
},
{
glyphname = guillemotright;
layers = (
{
hints = (
{
horizontal = 1;
place = "{39, 425}";
type = Stem;
},
{
place = "{24, 456}";
type = Stem;
}
);
layerId = "52A54639-B708-4391-8FEC-DE0E18BC7F23";
paths = (
{
closed = 1;
nodes = (
"26 73 LINE",
"105 39 LINE",
"261 250 LINE",
"105 464 LINE",
"24 434 LINE",
"154 252 LINE"
);
},
{
closed = 1;
nodes = (
"245 73 LINE",
"325 39 LINE",
"480 250 LINE",
"324 464 LINE",
"243 434 LINE",
"373 252 LINE"
);
}
);
width = 510;
}
);
unicode = 00BB;
},
{
glyphname = onequarter;
layers = (
{
hints = (
{
place = "{102, 78}";
type = Stem;
},
{
place = "{602, 76}";
type = Stem;
},
{
horizontal = 1;
place = "{0, 132}";
type = Stem;
},
{
horizontal = 1;
place = "{-16, 21}";
target = up;
type = BottomGhost;
},
{
horizontal = 1;
place = "{71, 61}";
type = Stem;
},
{
horizontal = 1;
place = "{706, -20}";
target = down;
type = TopGhost;
},
{
horizontal = 1;
place = "{716, -20}";
target = down;
type = TopGhost;
}
);
layerId = "52A54639-B708-4391-8FEC-DE0E18BC7F23";
paths = (
{
closed = 1;
nodes = (
"104 -16 LINE",
"158 -43 LINE",
"591 716 LINE",
"534 745 LINE"
);
},
{
closed = 1;
nodes = (
"102 278 LINE",
"180 278 LINE",
"180 706 LINE",
"120 705 LINE",
"100 683 OFFCURVE",
"74 659 OFFCURVE",
"43 636 CURVE",
"43 561 LINE",
"62 572 OFFCURVE",
"83 590 OFFCURVE",
"102 609 CURVE"
);
},
{
closed = 1;
nodes = (
"409 71 LINE",
"482 71 OFFCURVE",
"542 72 OFFCURVE",
"602 72 CURVE",
"602 0 LINE",
"678 0 LINE",
"678 72 LINE",
"693 71 LINE",
"707 71 LINE",
"722 133 LINE",
"678 132 LINE",
"678 428 LINE",
"618 428 LINE",
"409 113 LINE"
);
},
{
closed = 1;
nodes = (
"500 132 LINE",
"498 132 LINE",
"529 178 LINE",
"560 227 OFFCURVE",
"591 275 OFFCURVE",
"601 291 CURVE",
"602 291 OFFCURVE",
"603 292 OFFCURVE",
"603 292 CURVE",
"603 286 LINE",
"601 274 OFFCURVE",
"602 188 OFFCURVE",
"602 132 CURVE",
"548 132 LINE"
);
}
);
width = 759;
}
);
unicode = 00BC;
},
{
glyphname = onehalf;
layers = (
{
hints = (
{
horizontal = 1;
place = "{1, 63}";
type = Stem;
},
{
horizontal = 1;
place = "{-16, 21}";
target = up;
type = BottomGhost;
},
{
horizontal = 1;
place = "{372, 63}";
type = Stem;
},
{
horizontal = 1;
place = "{706, -20}";
target = down;
type = TopGhost;
},
{
horizontal = 1;
place = "{716, -20}";
target = down;
type = TopGhost;
},
{
place = "{87, 78}";
type = Stem;
},
{
place = "{635, 78}";
type = Stem;
}
);
layerId = "52A54639-B708-4391-8FEC-DE0E18BC7F23";
paths = (
{
closed = 1;
nodes = (
"76 -16 LINE",
"129 -43 LINE",
"564 716 LINE",
"507 745 LINE"
);
},
{
closed = 1;
nodes = (
"87 278 LINE",
"165 278 LINE",
"165 706 LINE",
"103 705 LINE",
"86 682 OFFCURVE",
"61 659 OFFCURVE",
"29 636 CURVE",
"29 561 LINE",
"50 577 OFFCURVE",
"70 590 OFFCURVE",
"87 609 CURVE"
);
},
{
closed = 1;
nodes = (
"411 1 LINE",
"689 1 LINE",
"715 65 LINE",
"551 64 LINE",
"606 127 LINE",
"685 214 OFFCURVE",
"713 256 OFFCURVE",
"713 310 CURVE SMOOTH",
"713 383 OFFCURVE",
"652 435 OFFCURVE",
"576 435 CURVE SMOOTH",
"521 435 OFFCURVE",
"482 413 OFFCURVE",
"450 366 CURVE",
"504 326 LINE",
"525 358 OFFCURVE",
"549 372 OFFCURVE",
"573 372 CURVE SMOOTH",
"609 372 OFFCURVE",
"635 345 OFFCURVE",
"635 309 CURVE SMOOTH",
"635 278 OFFCURVE",
"611 238 OFFCURVE",
"556 175 CURVE"
);
}
);
width = 764;
}
);
unicode = 00BD;
},
{
glyphname = threequarters;
layers = (
{
hints = (
{
place = "{212, 74}";
type = Stem;
},
{
place = "{233, 75}";
type = Stem;
},
{
place = "{609, 74}";
type = Stem;
},
{
horizontal = 1;
place = "{0, 133}";
type = Stem;
},
{
horizontal = 1;
place = "{-16, 21}";
target = up;
type = BottomGhost;
},
{
horizontal = 1;
place = "{71, 62}";
type = Stem;
},
{
horizontal = 1;
place = "{272, 61}";
type = Stem;
},
{
horizontal = 1;
place = "{486, 59}";
type = Stem;
},
{
horizontal = 1;
place = "{655, 61}";
type = Stem;
}
);
layerId = "52A54639-B708-4391-8FEC-DE0E18BC7F23";
paths = (
{
closed = 1;
nodes = (
"152 -16 LINE",
"207 -42 LINE",
"641 717 LINE",
"584 745 LINE"
);
},
{
closed = 1;
nodes = (
"30 310 LINE",
"59 284 OFFCURVE",
"105 272 OFFCURVE",
"148 272 CURVE SMOOTH",
"231 272 OFFCURVE",
"308 320 OFFCURVE",
"308 411 CURVE SMOOTH",
"308 464 OFFCURVE",
"277 499 OFFCURVE",
"228 519 CURVE",
"261 540 OFFCURVE",
"286 569 OFFCURVE",
"286 610 CURVE SMOOTH",
"286 687 OFFCURVE",
"216 716 OFFCURVE",
"151 716 CURVE SMOOTH",
"111 716 OFFCURVE",
"79 703 OFFCURVE",
"56 680 CURVE",
"74 629 LINE",
"97 644 OFFCURVE",
"123 655 OFFCURVE",
"152 655 CURVE SMOOTH",
"183 655 OFFCURVE",
"212 637 OFFCURVE",
"212 605 CURVE SMOOTH",
"212 553 OFFCURVE",
"151 545 OFFCURVE",
"114 545 CURVE",
"114 486 LINE",
"168 486 OFFCURVE",
"233 479 OFFCURVE",
"233 412 CURVE SMOOTH",
"233 363 OFFCURVE",
"191 333 OFFCURVE",
"146 333 CURVE SMOOTH",
"113 333 OFFCURVE",
"80 348 OFFCURVE",
"52 363 CURVE"
);
},
{
closed = 1;
nodes = (
"418 71 LINE",
"491 71 OFFCURVE",
"566 72 OFFCURVE",
"610 72 CURVE",
"609 0 LINE",
"683 0 LINE",
"683 72 LINE",
"696 71 LINE",
"713 71 LINE",
"728 133 LINE",
"683 133 LINE",
"683 430 LINE",
"625 430 LINE",
"418 115 LINE"
);
},
{
closed = 1;
nodes = (
"506 133 LINE",
"541 188 OFFCURVE",
"575 238 OFFCURVE",
"610 293 CURVE",
"611 274 LINE",
"610 261 OFFCURVE",
"609 245 OFFCURVE",
"609 226 CURVE SMOOTH",
"609 217 OFFCURVE",
"610 186 OFFCURVE",
"610 133 CURVE",
"514 133 LINE"
);
}
);
width = 753;
}
);
unicode = 00BE;
},
{
glyphname = questiondown;
layers = (
{
hints = (
{
place = "{55, 100}";
type = Stem;
},
{
place = "{192, 137}";
type = Stem;
},
{
place = "{218, 97}";
type = Stem;
},
{
horizontal = 1;
place = "{-191, 90}";
type = Stem;
},
{
horizontal = 1;
place = "{404, 130}";
type = Stem;
}
);
layerId = "52A54639-B708-4391-8FEC-DE0E18BC7F23";
paths = (
{
closed = 1;
nodes = (
"329 510 OFFCURVE",
"297 534 OFFCURVE",
"261 534 CURVE SMOOTH",
"224 534 OFFCURVE",
"192 510 OFFCURVE",
"192 469 CURVE SMOOTH",
"192 433 OFFCURVE",
"224 404 OFFCURVE",
"261 404 CURVE SMOOTH",
"297 404 OFFCURVE",
"329 433 OFFCURVE",
"329 469 CURVE SMOOTH"
);
},
{
closed = 1;
nodes = (
"191 -101 OFFCURVE",
"155 -57 OFFCURVE",
"155 -11 CURVE SMOOTH",
"155 34 OFFCURVE",
"186 66 OFFCURVE",
"222 98 CURVE SMOOTH",
"267 137 OFFCURVE",
"315 187 OFFCURVE",
"315 271 CURVE SMOOTH",
"315 330 LINE",
"218 330 LINE",
"218 298 LINE SMOOTH",
"218 232 OFFCURVE",
"197 202 OFFCURVE",
"149 159 CURVE",
"95 113 OFFCURVE",
"55 59 OFFCURVE",
"55 -19 CURVE SMOOTH",
"55 -123 OFFCURVE",
"131 -191 OFFCURVE",
"242 -191 CURVE SMOOTH",
"313 -191 OFFCURVE",
"373 -163 OFFCURVE",
"408 -118 CURVE",
"408 -11 LINE",
"363 -75 OFFCURVE",
"306 -101 OFFCURVE",
"256 -101 CURVE SMOOTH"
);
}
);
width = 451;
}
);
unicode = 00BF;
},
{
glyphname = germandbls;
layers = (
{
hints = (
{
place = "{73, 98}";
type = Stem;
},
{
place = "{414, 100}";
type = Stem;
},
{
place = "{459, 100}";
type = Stem;
},
{
horizontal = 1;
place = "{-3, 77}";
type = Stem;
},
{
horizontal = 1;
place = "{0, 21}";
target = up;
type = BottomGhost;
},
{
horizontal = 1;
place = "{663, 88}";
type = Stem;
}
);
layerId = "52A54639-B708-4391-8FEC-DE0E18BC7F23";
paths = (
{
closed = 1;
nodes = (
"171 513 LINE SMOOTH",
"171 590 OFFCURVE",
"213 663 OFFCURVE",
"300 663 CURVE SMOOTH",
"368 663 OFFCURVE",
"414 623 OFFCURVE",
"414 554 CURVE SMOOTH",
"414 477 OFFCURVE",
"356 448 OFFCURVE",
"282 418 CURVE",
"282 350 LINE",
"388 334 OFFCURVE",
"459 303 OFFCURVE",
"459 210 CURVE SMOOTH",
"459 115 OFFCURVE",
"381 74 OFFCURVE",
"273 74 CURVE",
"273 -3 LINE",
"282 -3 LINE SMOOTH",
"426 -3 OFFCURVE",
"559 61 OFFCURVE",
"559 207 CURVE SMOOTH",
"559 309 OFFCURVE",
"485 377 OFFCURVE",
"394 393 CURVE",
"463 424 OFFCURVE",
"514 480 OFFCURVE",
"514 565 CURVE SMOOTH",
"514 675 OFFCURVE",
"428 751 OFFCURVE",
"304 751 CURVE SMOOTH",
"145 751 OFFCURVE",
"73 643 OFFCURVE",
"73 513 CURVE SMOOTH",
"73 0 LINE",
"171 0 LINE"
);
}
);
width = 601;
}
);
unicode = 00DF;
},
{
glyphname = divide;
layers = (
{
hints = (
{
horizontal = 1;
place = "{85, 119}";
type = Stem;
},
{
horizontal = 1;
place = "{268, 71}";
type = Stem;
},
{
horizontal = 1;
place = "{403, 120}";
type = Stem;
},
{
place = "{237, 122}";
type = Stem;
}
);
layerId = "52A54639-B708-4391-8FEC-DE0E18BC7F23";
paths = (
{
closed = 1;
nodes = (
"359 494 OFFCURVE",
"334 523 OFFCURVE",
"297 523 CURVE SMOOTH",
"261 523 OFFCURVE",
"237 494 OFFCURVE",
"237 462 CURVE SMOOTH",
"237 430 OFFCURVE",
"261 403 OFFCURVE",
"297 403 CURVE SMOOTH",
"334 403 OFFCURVE",
"359 430 OFFCURVE",
"359 462 CURVE SMOOTH"
);
},
{
closed = 1;
nodes = (
"554 339 LINE",
"42 339 LINE",
"42 268 LINE",
"554 268 LINE"
);
},
{
closed = 1;
nodes = (
"359 181 OFFCURVE",
"334 204 OFFCURVE",
"297 204 CURVE SMOOTH",
"261 204 OFFCURVE",
"237 181 OFFCURVE",
"237 146 CURVE SMOOTH",
"237 114 OFFCURVE",
"261 85 OFFCURVE",
"297 85 CURVE SMOOTH",
"334 85 OFFCURVE",
"359 114 OFFCURVE",
"359 146 CURVE SMOOTH"
);
}
);
width = 596;
}
);
unicode = 00F7;
},
{
glyphname = oslash;
layers = (
{
hints = (
{
horizontal = 1;
place = "{-12, 80}";
type = Stem;
},
{
horizontal = 1;
place = "{415, 80}";
type = Stem;
},
{
place = "{50, 97}";
type = Stem;
},
{
place = "{473, 96}";
type = Stem;
}
);
layerId = "52A54639-B708-4391-8FEC-DE0E18BC7F23";
paths = (
{
closed = 1;
nodes = (
"39 3 LINE",
"83 -41 LINE",
"155 37 LINE",
"198 4 OFFCURVE",
"245 -12 OFFCURVE",
"308 -12 CURVE SMOOTH",
"460 -12 OFFCURVE",
"569 98 OFFCURVE",
"569 242 CURVE SMOOTH",
"569 310 OFFCURVE",
"546 363 OFFCURVE",
"510 407 CURVE",
"565 467 LINE",
"523 509 LINE",
"464 448 LINE",
"421 481 OFFCURVE",
"368 495 OFFCURVE",
"309 495 CURVE SMOOTH",
"158 495 OFFCURVE",
"50 385 OFFCURVE",
"50 242 CURVE SMOOTH",
"50 178 OFFCURVE",
"71 124 OFFCURVE",
"110 76 CURVE"
);
},
{
closed = 1;
nodes = (
"173 142 LINE",
"153 170 OFFCURVE",
"147 201 OFFCURVE",
"147 242 CURVE SMOOTH",
"147 338 OFFCURVE",
"208 415 OFFCURVE",
"309 415 CURVE SMOOTH",
"350 415 OFFCURVE",
"381 404 OFFCURVE",
"405 384 CURVE"
);
},
{
closed = 1;
nodes = (
"446 340 LINE",
"462 312 OFFCURVE",
"473 281 OFFCURVE",
"473 242 CURVE SMOOTH",
"473 144 OFFCURVE",
"407 68 OFFCURVE",
"307 68 CURVE SMOOTH",
"268 68 OFFCURVE",
"239 78 OFFCURVE",
"212 98 CURVE"
);
}
);
width = 611;
}
);
unicode = 00F8;
},
{
glyphname = fraction;
layers = (
{
hints = (
{
horizontal = 1;
place = "{-42, 838}";
type = Stem;
},
{
place = "{-140, 537}";
type = Stem;
}
);
layerId = "52A54639-B708-4391-8FEC-DE0E18BC7F23";
paths = (
{
closed = 1;
nodes = (
"397 784 LINE",
"313 796 LINE",
"-140 -32 LINE",
"-57 -42 LINE"
);
}
);
width = 257;
}
);
unicode = 2044;
},
{
glyphname = fi;
layers = (
{
hints = (
{
place = "{111, 97}";
type = Stem;
},
{
place = "{379, 136}";
type = Stem;
},
{
place = "{398, 100}";
type = Stem;
},
{
horizontal = 1;
place = "{0, 21}";
target = up;
type = BottomGhost;
},
{
horizontal = 1;
place = "{409, 82}";
type = Stem;
},
{
horizontal = 1;
place = "{409, 83}";
type = Stem;
},
{
horizontal = 1;
place = "{580, 132}";
type = Stem;
},
{
horizontal = 1;
place = "{657, 79}";
type = Stem;
}
);
layerId = "52A54639-B708-4391-8FEC-DE0E18BC7F23";
paths = (
{
closed = 1;
nodes = (
"342 725 LINE",
"325 732 OFFCURVE",
"300 736 OFFCURVE",
"272 736 CURVE SMOOTH",
"173 736 OFFCURVE",
"111 684 OFFCURVE",
"111 556 CURVE SMOOTH",
"111 493 LINE",
"15 409 LINE",
"111 409 LINE",
"111 0 LINE",
"208 0 LINE",
"208 409 LINE",
"329 409 LINE",
"329 491 LINE",
"202 491 LINE",
"202 552 LINE SMOOTH",
"202 620 OFFCURVE",
"230 657 OFFCURVE",
"287 657 CURVE SMOOTH",
"306 657 OFFCURVE",
"325 653 OFFCURVE",
"342 646 CURVE"
);
},
{
closed = 1;
nodes = (
"379 609 OFFCURVE",
"410 580 OFFCURVE",
"447 580 CURVE SMOOTH",
"486 580 OFFCURVE",
"515 609 OFFCURVE",
"515 645 CURVE SMOOTH",
"515 685 OFFCURVE",
"486 712 OFFCURVE",
"447 712 CURVE SMOOTH",
"410 712 OFFCURVE",
"379 685 OFFCURVE",
"379 645 CURVE SMOOTH"
);
},
{
closed = 1;
nodes = (
"498 492 LINE",
"398 492 LINE",
"398 0 LINE",
"498 0 LINE"
);
}
);
width = 589;
}
);
unicode = FB01;
},
{
glyphname = fl;
layers = (
{
hints = (
{
horizontal = 1;
place = "{0, 21}";
target = up;
type = BottomGhost;
},
{
horizontal = 1;
place = "{409, 82}";
type = Stem;
},
{
horizontal = 1;
place = "{657, 79}";
type = Stem;
},
{
place = "{111, 97}";
type = Stem;
},
{
place = "{383, 99}";
type = Stem;
}
);
layerId = "52A54639-B708-4391-8FEC-DE0E18BC7F23";
paths = (
{
closed = 1;
nodes = (
"342 725 LINE",
"325 732 OFFCURVE",
"300 736 OFFCURVE",
"272 736 CURVE SMOOTH",
"173 736 OFFCURVE",
"111 684 OFFCURVE",
"111 556 CURVE SMOOTH",
"111 493 LINE",
"15 409 LINE",
"111 409 LINE",
"111 0 LINE",
"208 0 LINE",
"208 409 LINE",
"329 409 LINE",
"329 491 LINE",
"202 491 LINE",
"202 552 LINE SMOOTH",
"202 620 OFFCURVE",
"230 657 OFFCURVE",
"287 657 CURVE SMOOTH",
"306 657 OFFCURVE",
"325 653 OFFCURVE",
"342 646 CURVE"
);
},
{
closed = 1;
nodes = (
"482 732 LINE",
"383 732 LINE",
"383 0 LINE",
"482 0 LINE"
);
}
);
width = 556;
}
);
unicode = FB02;
},
{
glyphname = breve;
layers = (
{
hints = (
{
horizontal = 1;
place = "{573, 75}";
type = Stem;
},
{
place = "{23, 306}";
type = Stem;
}
);
layerId = "52A54639-B708-4391-8FEC-DE0E18BC7F23";
paths = (
{
closed = 1;
nodes = (
"267 720 LINE",
"255 673 OFFCURVE",
"222 648 OFFCURVE",
"178 648 CURVE SMOOTH",
"131 648 OFFCURVE",
"98 673 OFFCURVE",
"86 720 CURVE",
"23 720 LINE",
"34 631 OFFCURVE",
"91 573 OFFCURVE",
"175 573 CURVE SMOOTH",
"260 573 OFFCURVE",
"321 631 OFFCURVE",
"329 720 CURVE"
);
}
);
width = 352;
}
);
unicode = 02D8;
},
{
glyphname = dotaccent;
layers = (
{
hints = (
{
horizontal = 1;
place = "{583, 111}";
type = Stem;
},
{
place = "{84, 110}";
type = Stem;
}
);
layerId = "52A54639-B708-4391-8FEC-DE0E18BC7F23";
paths = (
{
closed = 1;
nodes = (
"194 671 OFFCURVE",
"167 694 OFFCURVE",
"138 694 CURVE SMOOTH",
"110 694 OFFCURVE",
"84 671 OFFCURVE",
"84 639 CURVE SMOOTH",
"84 606 OFFCURVE",
"110 583 OFFCURVE",
"138 583 CURVE SMOOTH",
"167 583 OFFCURVE",
"194 606 OFFCURVE",
"194 639 CURVE SMOOTH"
);
}
);
width = 310;
}
);
unicode = 02D9;
},
{
glyphname = ring;
layers = (
{
hints = (
{
horizontal = 1;
place = "{563, 53}";
type = Stem;
},
{
horizontal = 1;
place = "{717, 53}";
type = Stem;
},
{
place = "{50, 53}";
type = Stem;
},
{
place = "{207, 53}";
type = Stem;
}
);
layerId = "52A54639-B708-4391-8FEC-DE0E18BC7F23";
paths = (
{
closed = 1;
nodes = (
"260 724 OFFCURVE",
"214 770 OFFCURVE",
"154 770 CURVE SMOOTH",
"99 770 OFFCURVE",
"50 725 OFFCURVE",
"50 666 CURVE SMOOTH",
"50 608 OFFCURVE",
"99 563 OFFCURVE",
"154 563 CURVE SMOOTH",
"214 563 OFFCURVE",
"260 607 OFFCURVE",
"260 664 CURVE SMOOTH"
);
},
{
closed = 1;
nodes = (
"207 638 OFFCURVE",
"187 616 OFFCURVE",
"155 616 CURVE SMOOTH",
"127 616 OFFCURVE",
"103 635 OFFCURVE",
"103 667 CURVE SMOOTH",
"103 695 OFFCURVE",
"126 717 OFFCURVE",
"155 717 CURVE SMOOTH",
"186 717 OFFCURVE",
"207 694 OFFCURVE",
"207 666 CURVE SMOOTH"
);
}
);
width = 325;
}
);
unicode = 02DA;
},
{
glyphname = hungarumlaut;
layers = (
{
hints = (
{
horizontal = 1;
place = "{706, -20}";
target = down;
type = TopGhost;
},
{
horizontal = 1;
place = "{707, -20}";
target = down;
type = TopGhost;
},
{
place = "{35, 372}";
type = Stem;
}
);
layerId = "52A54639-B708-4391-8FEC-DE0E18BC7F23";
paths = (
{
closed = 1;
nodes = (
"241 707 LINE",
"141 725 LINE",
"35 568 LINE",
"111 568 LINE"
);
},
{
closed = 1;
nodes = (
"407 706 LINE",
"307 725 LINE",
"201 568 LINE",
"276 568 LINE"
);
}
);
width = 351;
}
);
unicode = 02DD;
},
{
glyphname = ogonek;
layers = (
{
hints = (
{
horizontal = 1;
place = "{-183, 59}";
type = Stem;
},
{
place = "{61, 77}";
type = Stem;
}
);
layerId = "52A54639-B708-4391-8FEC-DE0E18BC7F23";
paths = (
{
closed = 1;
nodes = (
"238 -115 LINE",
"217 -120 OFFCURVE",
"204 -124 OFFCURVE",
"192 -124 CURVE SMOOTH",
"160 -124 OFFCURVE",
"138 -103 OFFCURVE",
"138 -74 CURVE SMOOTH",
"138 -46 OFFCURVE",
"154 -21 OFFCURVE",
"183 21 CURVE",
"112 21 LINE",
"88 -10 OFFCURVE",
"61 -47 OFFCURVE",
"61 -87 CURVE SMOOTH",
"61 -148 OFFCURVE",
"111 -183 OFFCURVE",
"176 -183 CURVE SMOOTH",
"199 -183 OFFCURVE",
"223 -178 OFFCURVE",
"250 -166 CURVE"
);
}
);
width = 311;
}
);
unicode = 02DB;
},
{
glyphname = caron;
layers = (
{
hints = (
{
horizontal = 1;
place = "{568, 151}";
type = Stem;
},
{
place = "{18, 313}";
type = Stem;
}
);
layerId = "52A54639-B708-4391-8FEC-DE0E18BC7F23";
paths = (
{
closed = 1;
nodes = (
"249 719 LINE",
"175 637 LINE",
"101 719 LINE",
"18 719 LINE",
"136 568 LINE",
"215 568 LINE",
"331 719 LINE"
);
}
);
width = 349;
}
);
unicode = 02C7;
},
{
glyphname = dotlessi;
layers = (
{
hints = (
{
horizontal = 1;
place = "{0, 21}";
target = up;
type = BottomGhost;
},
{
horizontal = 1;
place = "{492, -20}";
target = down;
type = TopGhost;
},
{
place = "{73, 99}";
type = Stem;
}
);
layerId = "52A54639-B708-4391-8FEC-DE0E18BC7F23";
paths = (
{
closed = 1;
nodes = (
"172 492 LINE",
"73 492 LINE",
"73 0 LINE",
"172 0 LINE"
);
}
);
width = 245;
}
);
unicode = 0131;
},
{
glyphname = greaterequal;
layers = (
{
hints = (
{
horizontal = 1;
place = "{5, 77}";
type = Stem;
},
{
place = "{67, 505}";
type = Stem;
}
);
layerId = "52A54639-B708-4391-8FEC-DE0E18BC7F23";
paths = (
{
closed = 1;
nodes = (
"572 307 LINE",
"572 381 LINE",
"67 572 LINE",
"67 489 LINE",
"457 344 LINE",
"67 201 LINE",
"67 117 LINE"
);
},
{
closed = 1;
nodes = (
"572 5 LINE",
"572 82 LINE",
"67 82 LINE",
"67 5 LINE"
);
}
);
width = 639;
}
);
unicode = 2265;
},
{
glyphname = radical;
layers = (
{
hints = (
{
horizontal = 1;
place = "{-211, 994}";
type = Stem;
},
{
place = "{31, 520}";
type = Stem;
}
);
layerId = "52A54639-B708-4391-8FEC-DE0E18BC7F23";
paths = (
{
closed = 1;
nodes = (
"551 783 LINE",
"468 783 LINE",
"290 -89 LINE",
"147 214 LINE",
"31 162 LINE",
"62 95 LINE",
"107 116 LINE",
"264 -211 LINE",
"344 -211 LINE"
);
}
);
width = 533;
}
);
unicode = 221A;
},
{
glyphname = notequal;
layers = (
{
hints = (
{
horizontal = 1;
place = "{115, 76}";
type = Stem;
},
{
horizontal = 1;
place = "{305, 77}";
type = Stem;
},
{
place = "{42, 508}";
type = Stem;
}
);
layerId = "52A54639-B708-4391-8FEC-DE0E18BC7F23";
paths = (
{
closed = 1;
nodes = (
"547 115 LINE",
"547 191 LINE",
"309 191 LINE",
"367 305 LINE",
"550 305 LINE",
"550 382 LINE",
"409 382 LINE",
"466 488 LINE",
"398 526 LINE",
"322 382 LINE",
"44 382 LINE",
"44 305 LINE",
"281 305 LINE",
"222 191 LINE",
"42 191 LINE",
"42 115 LINE",
"182 115 LINE",
"125 10 LINE",
"193 -28 LINE",
"267 115 LINE"
);
}
);
width = 592;
}
);
unicode = 2260;
},
{
glyphname = product;
layers = (
{
hints = (
{
horizontal = 1;
place = "{705, 78}";
type = Stem;
},
{
place = "{10, 84}";
type = Stem;
},
{
place = "{497, 84}";
type = Stem;
}
);
layerId = "52A54639-B708-4391-8FEC-DE0E18BC7F23";
paths = (
{
closed = 1;
nodes = (
"581 -211 LINE",
"581 783 LINE",
"10 783 LINE",
"10 -211 LINE",
"94 -211 LINE",
"94 705 LINE",
"497 705 LINE",
"497 -211 LINE"
);
}
);
width = 592;
}
);
unicode = 220F;
},
{
glyphname = summation;
layers = (
{
hints = (
{
horizontal = 1;
place = "{-211, 79}";
type = Stem;
},
{
horizontal = 1;
place = "{705, 78}";
type = Stem;
},
{
place = "{11, 555}";
type = Stem;
}
);
layerId = "52A54639-B708-4391-8FEC-DE0E18BC7F23";
paths = (
{
closed = 1;
nodes = (
"566 -211 LINE",
"566 -132 LINE",
"117 -132 LINE",
"428 291 LINE",
"134 705 LINE",
"555 705 LINE",
"555 783 LINE",
"23 783 LINE",
"23 718 LINE",
"327 291 LINE",
"11 -145 LINE",
"11 -211 LINE"
);
}
);
width = 562;
}
);
unicode = 2211;
},
{
glyphname = lessequal;
layers = (
{
hints = (
{
horizontal = 1;
place = "{5, 76}";
type = Stem;
},
{
place = "{67, 505}";
type = Stem;
}
);
layerId = "52A54639-B708-4391-8FEC-DE0E18BC7F23";
paths = (
{
closed = 1;
nodes = (
"572 117 LINE",
"572 201 LINE",
"187 343 LINE",
"572 489 LINE",
"572 572 LINE",
"67 381 LINE",
"67 307 LINE"
);
},
{
closed = 1;
nodes = (
"572 5 LINE",
"572 81 LINE",
"67 81 LINE",
"67 5 LINE"
);
}
);
width = 639;
}
);
unicode = 2264;
},
{
glyphname = uni02C9;
layers = (
{
hints = (
{
horizontal = 1;
place = "{776, 73}";
type = Stem;
},
{
place = "{26, 282}";
type = Stem;
}
);
layerId = "52A54639-B708-4391-8FEC-DE0E18BC7F23";
paths = (
{
closed = 1;
nodes = (
"308 849 LINE",
"26 849 LINE",
"26 776 LINE",
"308 776 LINE"
);
}
);
width = 335;
}
);
unicode = 02C9;
},
{
glyphname = lozenge;
layers = (
{
hints = (
{
horizontal = 1;
place = "{-35, 780}";
type = Stem;
},
{
place = "{46, 413}";
type = Stem;
}
);
layerId = "52A54639-B708-4391-8FEC-DE0E18BC7F23";
paths = (
{
closed = 1;
nodes = (
"459 355 LINE",
"288 745 LINE",
"215 745 LINE",
"46 355 LINE",
"215 -35 LINE",
"288 -35 LINE"
);
},
{
closed = 1;
nodes = (
"374 356 LINE",
"252 66 LINE",
"130 355 LINE",
"252 644 LINE"
);
}
);
width = 505;
}
);
unicode = 25CA;
},
{
glyphname = minus;
layers = (
{
hints = (
{
horizontal = 1;
place = "{265, 77}";
type = Stem;
},
{
place = "{42, 513}";
type = Stem;
}
);
layerId = "52A54639-B708-4391-8FEC-DE0E18BC7F23";
paths = (
{
closed = 1;
nodes = (
"555 342 LINE",
"42 342 LINE",
"42 265 LINE",
"555 265 LINE"
);
}
);
width = 597;
}
);
unicode = 2212;
},
{
glyphname = uni2215;
layers = (
{
hints = (
{
horizontal = 1;
place = "{-31, 816}";
type = Stem;
},
{
place = "{-163, 518}";
type = Stem;
}
);
layerId = "52A54639-B708-4391-8FEC-DE0E18BC7F23";
paths = (
{
closed = 1;
nodes = (
"355 748 LINE",
"282 785 LINE",
"-163 5 LINE",
"-92 -31 LINE"
);
}
);
width = 195;
}
);
unicode = 2215;
},
{
glyphname = approxequal;
layers = (
{
hints = (
{
place = "{491, 63}";
type = Stem;
},
{
horizontal = 1;
place = "{85, 76}";
type = Stem;
},
{
horizontal = 1;
place = "{157, 76}";
type = Stem;
},
{
horizontal = 1;
place = "{262, 75}";
type = Stem;
},
{
horizontal = 1;
place = "{334, 75}";
type = Stem;
}
);
layerId = "52A54639-B708-4391-8FEC-DE0E18BC7F23";
paths = (
{
closed = 1;
nodes = (
"491 416 LINE",
"484 372 OFFCURVE",
"464 337 OFFCURVE",
"419 337 CURVE SMOOTH",
"344 337 OFFCURVE",
"249 409 OFFCURVE",
"162 409 CURVE SMOOTH",
"72 409 OFFCURVE",
"34 333 OFFCURVE",
"23 255 CURVE",
"86 255 LINE",
"93 298 OFFCURVE",
"116 334 OFFCURVE",
"165 334 CURVE SMOOTH",
"233 334 OFFCURVE",
"330 262 OFFCURVE",
"414 262 CURVE SMOOTH",
"505 262 OFFCURVE",
"549 339 OFFCURVE",
"554 416 CURVE"
);
},
{
closed = 1;
nodes = (
"491 240 LINE",
"484 196 OFFCURVE",
"464 161 OFFCURVE",
"419 161 CURVE SMOOTH",
"344 161 OFFCURVE",
"249 233 OFFCURVE",
"162 233 CURVE SMOOTH",
"72 233 OFFCURVE",
"34 157 OFFCURVE",
"23 78 CURVE",
"86 78 LINE",
"93 122 OFFCURVE",
"116 157 OFFCURVE",
"165 157 CURVE SMOOTH",
"233 157 OFFCURVE",
"330 85 OFFCURVE",
"414 85 CURVE SMOOTH",
"505 85 OFFCURVE",
"549 164 OFFCURVE",
"554 240 CURVE"
);
}
);
width = 576;
}
);
unicode = 2248;
},
{
glyphname = integral;
layers = (
{
hints = (
{
horizontal = 1;
place = "{-210, 95}";
type = Stem;
},
{
horizontal = 1;
place = "{683, 100}";
type = Stem;
},
{
place = "{122, 85}";
type = Stem;
}
);
layerId = "52A54639-B708-4391-8FEC-DE0E18BC7F23";
paths = (
{
closed = 1;
nodes = (
"82 -134 OFFCURVE",
"73 -115 OFFCURVE",
"48 -115 CURVE SMOOTH",
"25 -115 OFFCURVE",
"10 -133 OFFCURVE",
"10 -154 CURVE SMOOTH",
"10 -194 OFFCURVE",
"60 -210 OFFCURVE",
"91 -210 CURVE SMOOTH",
"206 -210 OFFCURVE",
"207 -39 OFFCURVE",
"207 41 CURVE SMOOTH",
"207 612 LINE SMOOTH",
"207 633 OFFCURVE",
"206 709 OFFCURVE",
"231 717 CURVE",
"250 706 OFFCURVE",
"255 683 OFFCURVE",
"286 683 CURVE SMOOTH",
"311 683 OFFCURVE",
"328 700 OFFCURVE",
"328 725 CURVE SMOOTH",
"328 768 OFFCURVE",
"279 783 OFFCURVE",
"241 783 CURVE SMOOTH",
"133 783 OFFCURVE",
"122 651 OFFCURVE",
"122 569 CURVE SMOOTH",
"122 -33 LINE SMOOTH",
"122 -59 OFFCURVE",
"123 -136 OFFCURVE",
"97 -149 CURVE"
);
}
);
width = 338;
}
);
unicode = 222B;
},
{
glyphname = uni2113;
layers = (
{
hints = (
{
horizontal = 1;
place = "{-14, 69}";
type = Stem;
},
{
horizontal = 1;
place = "{652, 63}";
type = Stem;
},
{
place = "{147, 84}";
type = Stem;
},
{
place = "{320, 74}";
type = Stem;
}
);
layerId = "52A54639-B708-4391-8FEC-DE0E18BC7F23";
paths = (
{
closed = 1;
nodes = (
"382 97 LINE",
"346 68 OFFCURVE",
"316 55 OFFCURVE",
"292 55 CURVE SMOOTH",
"271 55 OFFCURVE",
"243 65 OFFCURVE",
"234 102 CURVE",
"233 111 OFFCURVE",
"231 119 OFFCURVE",
"231 130 CURVE SMOOTH",
"231 271 LINE",
"323 370 OFFCURVE",
"385 471 OFFCURVE",
"393 564 CURVE",
"394 566 OFFCURVE",
"394 568 OFFCURVE",
"394 571 CURVE SMOOTH",
"394 574 OFFCURVE",
"393 579 OFFCURVE",
"393 586 CURVE",
"392 669 OFFCURVE",
"346 715 OFFCURVE",
"279 715 CURVE SMOOTH",
"202 715 OFFCURVE",
"147 655 OFFCURVE",
"147 536 CURVE SMOOTH",
"147 289 LINE",
"61 205 LINE",
"97 157 LINE",
"147 206 LINE",
"147 141 LINE",
"147 115 LINE",
"150 30 OFFCURVE",
"201 -14 OFFCURVE",
"277 -14 CURVE SMOOTH",
"321 -14 OFFCURVE",
"369 4 OFFCURVE",
"413 45 CURVE",
"416 45 LINE"
);
},
{
closed = 1;
nodes = (
"320 507 OFFCURVE",
"292 434 OFFCURVE",
"231 357 CURVE",
"231 547 LINE SMOOTH",
"231 622 OFFCURVE",
"254 652 OFFCURVE",
"279 652 CURVE SMOOTH",
"302 652 OFFCURVE",
"320 616 OFFCURVE",
"320 567 CURVE SMOOTH"
);
}
);
width = 491;
}
);
unicode = 2113;
},
{
glyphname = partialdiff;
layers = (
{
hints = (
{
horizontal = 1;
place = "{-11, 71}";
type = Stem;
},
{
horizontal = 1;
place = "{357, 74}";
type = Stem;
},
{
horizontal = 1;
place = "{645, 74}";
type = Stem;
},
{
place = "{26, 81}";
type = Stem;
},
{
place = "{377, 80}";
type = Stem;
}
);
layerId = "52A54639-B708-4391-8FEC-DE0E18BC7F23";
paths = (
{
closed = 1;
nodes = (
"457 517 OFFCURVE",
"401 719 OFFCURVE",
"210 719 CURVE SMOOTH",
"150 719 OFFCURVE",
"104 698 OFFCURVE",
"56 653 CURVE",
"103 599 LINE",
"135 631 OFFCURVE",
"169 645 OFFCURVE",
"212 645 CURVE SMOOTH",
"355 645 OFFCURVE",
"377 470 OFFCURVE",
"377 387 CURVE SMOOTH",
"377 379 OFFCURVE",
"377 371 OFFCURVE",
"376 364 CURVE",
"332 407 OFFCURVE",
"285 431 OFFCURVE",
"224 431 CURVE SMOOTH",
"99 431 OFFCURVE",
"26 332 OFFCURVE",
"26 215 CURVE SMOOTH",
"26 97 OFFCURVE",
"100 -11 OFFCURVE",
"229 -11 CURVE SMOOTH",
"424 -11 OFFCURVE",
"457 214 OFFCURVE",
"457 361 CURVE SMOOTH"
);
},
{
closed = 1;
nodes = (
"366 193 OFFCURVE",
"333 60 OFFCURVE",
"230 60 CURVE SMOOTH",
"147 60 OFFCURVE",
"107 140 OFFCURVE",
"107 213 CURVE SMOOTH",
"107 288 OFFCURVE",
"151 357 OFFCURVE",
"230 357 CURVE SMOOTH",
"286 357 OFFCURVE",
"335 321 OFFCURVE",
"371 277 CURVE"
);
}
);
width = 493;
}
);
unicode = 2202;
},
{
glyphname = uni2206;
layers = (
{
hints = (
{
place = "{25, 673}";
type = Stem;
},
{
horizontal = 1;
place = "{0, 88}";
type = Stem;
},
{
horizontal = 1;
place = "{600, 110}";
type = Stem;
},
{
horizontal = 1;
place = "{710, -20}";
target = down;
type = TopGhost;
}
);
layerId = "52A54639-B708-4391-8FEC-DE0E18BC7F23";
paths = (
{
closed = 1;
nodes = (
"698 0 LINE",
"410 710 LINE",
"309 710 LINE",
"25 0 LINE"
);
},
{
closed = 1;
nodes = (
"557 88 LINE",
"162 88 LINE",
"208 213 LINE SMOOTH",
"255 344 OFFCURVE",
"310 482 OFFCURVE",
"358 600 CURVE"
);
}
);
width = 722;
}
);
unicode = 2206;
},
{
glyphname = infinity;
layers = (
{
hints = (
{
horizontal = 1;
place = "{101, 76}";
type = Stem;
},
{
horizontal = 1;
place = "{330, 76}";
type = Stem;
},
{
place = "{35, 76}";
type = Stem;
},
{
place = "{619, 76}";
type = Stem;
}
);
layerId = "52A54639-B708-4391-8FEC-DE0E18BC7F23";
paths = (
{
closed = 1;
nodes = (
"695 335 OFFCURVE",
"640 406 OFFCURVE",
"556 406 CURVE SMOOTH",
"477 406 OFFCURVE",
"411 349 OFFCURVE",
"365 298 CURVE",
"323 343 OFFCURVE",
"255 405 OFFCURVE",
"178 405 CURVE SMOOTH",
"92 405 OFFCURVE",
"35 334 OFFCURVE",
"35 251 CURVE SMOOTH",
"35 167 OFFCURVE",
"94 101 OFFCURVE",
"180 101 CURVE SMOOTH",
"254 101 OFFCURVE",
"313 154 OFFCURVE",
"363 201 CURVE",
"415 155 OFFCURVE",
"474 101 OFFCURVE",
"550 101 CURVE SMOOTH",
"639 101 OFFCURVE",
"695 171 OFFCURVE",
"695 252 CURVE SMOOTH"
);
},
{
closed = 1;
nodes = (
"619 208 OFFCURVE",
"594 177 OFFCURVE",
"551 177 CURVE SMOOTH",
"499 177 OFFCURVE",
"453 213 OFFCURVE",
"416 249 CURVE",
"450 283 OFFCURVE",
"498 330 OFFCURVE",
"549 330 CURVE SMOOTH",
"596 330 OFFCURVE",
"619 296 OFFCURVE",
"619 252 CURVE SMOOTH"
);
},
{
closed = 1;
nodes = (
"281 218 OFFCURVE",
"232 177 OFFCURVE",
"181 177 CURVE SMOOTH",
"134 177 OFFCURVE",
"111 208 OFFCURVE",
"111 252 CURVE SMOOTH",
"111 295 OFFCURVE",
"134 329 OFFCURVE",
"177 329 CURVE SMOOTH",
"229 329 OFFCURVE",
"281 282 OFFCURVE",
"314 251 CURVE"
);
}
);
width = 730;
}
);
unicode = 221E;
},
{
glyphname = uni2126;
layers = (
{
hints = (
{
horizontal = 1;
place = "{0, 85}";
type = Stem;
},
{
horizontal = 1;
place = "{628, 90}";
type = Stem;
},
{
place = "{32, 100}";
type = Stem;
},
{
place = "{203, 104}";
type = Stem;
},
{
place = "{421, 104}";
type = Stem;
},
{
place = "{596, 100}";
type = Stem;
}
);
layerId = "52A54639-B708-4391-8FEC-DE0E18BC7F23";
paths = (
{
closed = 1;
nodes = (
"696 0 LINE",
"696 85 LINE",
"526 85 LINE",
"524 135 LINE",
"622 172 OFFCURVE",
"696 292 OFFCURVE",
"696 409 CURVE SMOOTH",
"696 592 OFFCURVE",
"548 718 OFFCURVE",
"365 718 CURVE SMOOTH",
"179 718 OFFCURVE",
"32 592 OFFCURVE",
"32 409 CURVE SMOOTH",
"32 294 OFFCURVE",
"97 172 OFFCURVE",
"204 135 CURVE",
"202 85 LINE",
"32 85 LINE",
"32 0 LINE",
"307 0 LINE",
"307 182 LINE",
"191 198 OFFCURVE",
"132 298 OFFCURVE",
"132 403 CURVE SMOOTH",
"132 529 OFFCURVE",
"232 628 OFFCURVE",
"365 628 CURVE SMOOTH",
"498 628 OFFCURVE",
"596 535 OFFCURVE",
"596 403 CURVE SMOOTH",
"596 296 OFFCURVE",
"537 201 OFFCURVE",
"421 182 CURVE",
"421 0 LINE"
);
}
);
width = 728;
}
);
unicode = 2126;
},
{
glyphname = uni2219;
layers = (
{
hints = (
{
horizontal = 1;
place = "{253, 124}";
type = Stem;
},
{
place = "{44, 122}";
type = Stem;
}
);
layerId = "52A54639-B708-4391-8FEC-DE0E18BC7F23";
paths = (
{
closed = 1;
nodes = (
"166 349 OFFCURVE",
"145 377 OFFCURVE",
"105 377 CURVE SMOOTH",
"69 377 OFFCURVE",
"44 349 OFFCURVE",
"44 314 CURVE SMOOTH",
"44 282 OFFCURVE",
"69 253 OFFCURVE",
"105 253 CURVE SMOOTH",
"145 253 OFFCURVE",
"166 282 OFFCURVE",
"166 314 CURVE SMOOTH"
);
}
);
width = 213;
}
);
unicode = 2219;
},
{
glyphname = estimated;
layers = (
{
hints = (
{
horizontal = 1;
place = "{-17, 55}";
type = Stem;
},
{
horizontal = 1;
place = "{252, 55}";
type = Stem;
},
{
horizontal = 1;
place = "{486, 52}";
type = Stem;
},
{
place = "{37, 129}";
type = Stem;
},
{
place = "{429, 129}";
type = Stem;
}
);
layerId = "52A54639-B708-4391-8FEC-DE0E18BC7F23";
paths = (
{
closed = 1;
nodes = (
"558 252 LINE",
"558 422 OFFCURVE",
"453 538 OFFCURVE",
"298 538 CURVE SMOOTH",
"141 538 OFFCURVE",
"37 418 OFFCURVE",
"37 262 CURVE SMOOTH",
"37 107 OFFCURVE",
"141 -17 OFFCURVE",
"298 -17 CURVE SMOOTH",
"401 -17 OFFCURVE",
"469 26 OFFCURVE",
"533 128 CURVE",
"480 160 LINE",
"429 71 OFFCURVE",
"374 38 OFFCURVE",
"298 38 CURVE SMOOTH",
"245 38 OFFCURVE",
"201 57 OFFCURVE",
"166 90 CURVE",
"166 252 LINE"
);
},
{
closed = 1;
nodes = (
"166 307 LINE",
"166 434 LINE",
"202 467 OFFCURVE",
"248 486 OFFCURVE",
"297 486 CURVE SMOOTH",
"349 486 OFFCURVE",
"389 470 OFFCURVE",
"429 434 CURVE",
"429 307 LINE"
);
}
);
width = 595;
}
);
unicode = 212E;
},
{
glyphname = exclam;
layers = (
{
hints = (
{
place = "{56, 135}";
type = Stem;
},
{
place = "{80, 87}";
type = Stem;
},
{
horizontal = 1;
place = "{-11, 132}";
type = Stem;
},
{
horizontal = 1;
place = "{704, -20}";
target = down;
type = TopGhost;
}
);
layerId = "52A54639-B708-4391-8FEC-DE0E18BC7F23";
paths = (
{
closed = 1;
nodes = (
"64 704 LINE",
"68 620 LINE",
"92 207 LINE",
"155 207 LINE",
"179 620 LINE",
"182 704 LINE"
);
},
{
closed = 1;
nodes = (
"56 15 OFFCURVE",
"87 -11 OFFCURVE",
"124 -11 CURVE SMOOTH",
"161 -11 OFFCURVE",
"191 15 OFFCURVE",
"191 56 CURVE SMOOTH",
"191 92 OFFCURVE",
"161 121 OFFCURVE",
"124 121 CURVE SMOOTH",
"87 121 OFFCURVE",
"56 92 OFFCURVE",
"56 56 CURVE SMOOTH"
);
}
);
width = 247;
}
);
unicode = 0021;
},
{
glyphname = Alpha;
layers = (
{
hints = (
{
horizontal = 1;
place = "{0, 21}";
target = up;
type = BottomGhost;
},
{
horizontal = 1;
place = "{185, 88}";
type = Stem;
},
{
horizontal = 1;
place = "{705, -20}";
target = down;
type = TopGhost;
},
{
place = "{24, 703}";
type = Stem;
}
);
layerId = "52A54639-B708-4391-8FEC-DE0E18BC7F23";
paths = (
{
closed = 1;
nodes = (
"537 185 LINE",
"615 0 LINE",
"727 0 LINE",
"420 705 LINE",
"331 705 LINE",
"24 0 LINE",
"134 0 LINE",
"213 185 LINE"
);
},
{
closed = 1;
nodes = (
"375 584 LINE",
"501 273 LINE",
"249 273 LINE"
);
}
);
width = 751;
}
);
unicode = 0391;
},
{
glyphname = Epsilon;
layers = (
{
hints = (
{
horizontal = 1;
place = "{0, 91}";
type = Stem;
},
{
horizontal = 1;
place = "{314, 88}";
type = Stem;
},
{
horizontal = 1;
place = "{613, 91}";
type = Stem;
},
{
place = "{78, 103}";
type = Stem;
}
);
layerId = "52A54639-B708-4391-8FEC-DE0E18BC7F23";
paths = (
{
closed = 1;
nodes = (
"181 314 LINE",
"525 314 LINE",
"525 402 LINE",
"181 402 LINE",
"181 613 LINE",
"555 613 LINE",
"555 704 LINE",
"78 704 LINE",
"78 0 LINE",
"565 0 LINE",
"565 91 LINE",
"181 91 LINE"
);
}
);
width = 603;
}
);
unicode = 0395;
},
{
glyphname = Eta;
layers = (
{
hints = (
{
horizontal = 1;
place = "{0, 21}";
target = up;
type = BottomGhost;
},
{
horizontal = 1;
place = "{311, 94}";
type = Stem;
},
{
horizontal = 1;
place = "{705, -20}";
target = down;
type = TopGhost;
},
{
place = "{78, 102}";
type = Stem;
},
{
place = "{540, 102}";
type = Stem;
}
);
layerId = "52A54639-B708-4391-8FEC-DE0E18BC7F23";
paths = (
{
closed = 1;
nodes = (
"78 0 LINE",
"180 0 LINE",
"180 311 LINE",
"540 311 LINE",
"540 0 LINE",
"642 0 LINE",
"642 705 LINE",
"540 705 LINE",
"540 405 LINE",
"180 405 LINE",
"180 705 LINE",
"78 705 LINE"
);
}
);
width = 719;
}
);
unicode = 0397;
},
{
glyphname = Iota;
layers = (
{
hints = (
{
horizontal = 1;
place = "{0, 21}";
target = up;
type = BottomGhost;
},
{
horizontal = 1;
place = "{704, -20}";
target = down;
type = TopGhost;
},
{
place = "{78, 102}";
type = Stem;
}
);
layerId = "52A54639-B708-4391-8FEC-DE0E18BC7F23";
paths = (
{
closed = 1;
nodes = (
"180 704 LINE",
"78 704 LINE",
"78 0 LINE",
"180 0 LINE"
);
}
);
width = 257;
}
);
unicode = 0399;
},
{
glyphname = Kappa;
layers = (
{
hints = (
{
horizontal = 1;
place = "{0, 21}";
target = up;
type = BottomGhost;
},
{
horizontal = 1;
place = "{704, -20}";
target = down;
type = TopGhost;
},
{
place = "{78, 102}";
type = Stem;
}
);
layerId = "52A54639-B708-4391-8FEC-DE0E18BC7F23";
paths = (
{
closed = 1;
nodes = (
"180 704 LINE",
"78 704 LINE",
"78 0 LINE",
"180 0 LINE",
"180 336 LINE",
"467 0 LINE",
"596 0 LINE",
"274 379 LINE",
"571 704 LINE",
"443 704 LINE",
"180 410 LINE"
);
}
);
width = 587;
}
);
unicode = 039A;
},
{
glyphname = Mu;
layers = (
{
hints = (
{
horizontal = 1;
place = "{0, 21}";
target = up;
type = BottomGhost;
},
{
place = "{59, 102}";
type = Stem;
},
{
place = "{676, 102}";
type = Stem;
}
);
layerId = "52A54639-B708-4391-8FEC-DE0E18BC7F23";
paths = (
{
closed = 1;
nodes = (
"418 149 LINE",
"676 538 LINE",
"676 0 LINE",
"778 0 LINE",
"778 700 LINE",
"676 700 LINE",
"419 304 LINE",
"162 700 LINE",
"59 700 LINE",
"59 0 LINE",
"161 0 LINE",
"161 538 LINE"
);
}
);
width = 838;
}
);
unicode = 039C;
},
{
glyphname = Nu;
layers = (
{
hints = (
{
horizontal = 1;
place = "{0, 21}";
target = up;
type = BottomGhost;
},
{
horizontal = 1;
place = "{704, -20}";
target = down;
type = TopGhost;
},
{
place = "{78, 100}";
type = Stem;
},
{
place = "{576, 100}";
type = Stem;
}
);
layerId = "52A54639-B708-4391-8FEC-DE0E18BC7F23";
paths = (
{
closed = 1;
nodes = (
"179 700 LINE",
"78 700 LINE",
"78 0 LINE",
"178 0 LINE",
"178 545 LINE",
"578 0 LINE",
"676 0 LINE",
"676 704 LINE",
"576 704 LINE",
"576 160 LINE"
);
}
);
width = 753;
}
);
unicode = 039D;
},
{
glyphname = Omicron;
layers = (
{
hints = (
{
horizontal = 1;
place = "{-14, 93}";
type = Stem;
},
{
horizontal = 1;
place = "{625, 93}";
type = Stem;
},
{
place = "{38, 105}";
type = Stem;
},
{
place = "{667, 106}";
type = Stem;
}
);
layerId = "52A54639-B708-4391-8FEC-DE0E18BC7F23";
paths = (
{
closed = 1;
nodes = (
"773 553 OFFCURVE",
"618 718 OFFCURVE",
"407 718 CURVE SMOOTH",
"194 718 OFFCURVE",
"38 554 OFFCURVE",
"38 351 CURVE SMOOTH",
"38 148 OFFCURVE",
"192 -14 OFFCURVE",
"405 -14 CURVE SMOOTH",
"616 -14 OFFCURVE",
"773 151 OFFCURVE",
"773 354 CURVE SMOOTH"
);
},
{
closed = 1;
nodes = (
"667 202 OFFCURVE",
"558 79 OFFCURVE",
"406 79 CURVE SMOOTH",
"251 79 OFFCURVE",
"143 201 OFFCURVE",
"143 354 CURVE SMOOTH",
"143 503 OFFCURVE",
"251 625 OFFCURVE",
"406 625 CURVE SMOOTH",
"558 625 OFFCURVE",
"667 501 OFFCURVE",
"667 350 CURVE SMOOTH"
);
}
);
width = 811;
}
);
unicode = 039F;
},
{
glyphname = Chi;
layers = (
{
hints = (
{
horizontal = 1;
place = "{0, 21}";
target = up;
type = BottomGhost;
},
{
horizontal = 1;
place = "{704, -20}";
target = down;
type = TopGhost;
},
{
place = "{24, 623}";
type = Stem;
}
);
layerId = "52A54639-B708-4391-8FEC-DE0E18BC7F23";
paths = (
{
closed = 1;
nodes = (
"36 704 LINE",
"277 360 LINE",
"24 0 LINE",
"143 0 LINE",
"335 282 LINE",
"529 0 LINE",
"647 0 LINE",
"397 362 LINE",
"635 704 LINE",
"519 704 LINE",
"339 439 LINE",
"155 704 LINE"
);
}
);
width = 671;
}
);
unicode = 03A7;
},
{
glyphname = Tau;
layers = (
{
hints = (
{
horizontal = 1;
place = "{0, 21}";
target = up;
type = BottomGhost;
},
{
horizontal = 1;
place = "{613, 91}";
type = Stem;
},
{
place = "{213, 102}";
type = Stem;
}
);
layerId = "52A54639-B708-4391-8FEC-DE0E18BC7F23";
paths = (
{
closed = 1;
nodes = (
"315 613 LINE",
"525 613 LINE",
"525 704 LINE",
"3 704 LINE",
"3 613 LINE",
"213 613 LINE",
"213 0 LINE",
"315 0 LINE"
);
}
);
width = 528;
}
);
unicode = 03A4;
},
{
glyphname = Rho;
layers = (
{
hints = (
{
horizontal = 1;
place = "{-2, 21}";
target = up;
type = BottomGhost;
},
{
horizontal = 1;
place = "{266, 89}";
type = Stem;
},
{
horizontal = 1;
place = "{614, 90}";
type = Stem;
},
{
place = "{78, 104}";
type = Stem;
},
{
place = "{470, 104}";
type = Stem;
}
);
layerId = "52A54639-B708-4391-8FEC-DE0E18BC7F23";
paths = (
{
closed = 1;
nodes = (
"78 -2 LINE",
"182 -2 LINE",
"182 266 LINE",
"309 266 LINE SMOOTH",
"459 266 OFFCURVE",
"574 347 OFFCURVE",
"574 490 CURVE SMOOTH",
"574 624 OFFCURVE",
"472 704 OFFCURVE",
"317 704 CURVE SMOOTH",
"78 704 LINE"
);
},
{
closed = 1;
nodes = (
"182 614 LINE",
"308 614 LINE SMOOTH",
"412 614 OFFCURVE",
"470 570 OFFCURVE",
"470 485 CURVE SMOOTH",
"470 404 OFFCURVE",
"410 355 OFFCURVE",
"307 355 CURVE SMOOTH",
"182 355 LINE"
);
}
);
width = 615;
}
);
unicode = 03A1;
},
{
glyphname = Upsilon;
layers = (
{
hints = (
{
horizontal = 1;
place = "{0, 21}";
target = up;
type = BottomGhost;
},
{
horizontal = 1;
place = "{704, -20}";
target = down;
type = TopGhost;
},
{
place = "{280, 102}";
type = Stem;
}
);
layerId = "52A54639-B708-4391-8FEC-DE0E18BC7F23";
paths = (
{
closed = 1;
nodes = (
"382 278 LINE",
"652 704 LINE",
"536 704 LINE",
"334 373 LINE",
"130 704 LINE",
"10 704 LINE",
"280 277 LINE",
"280 0 LINE",
"382 0 LINE"
);
}
);
width = 656;
}
);
unicode = 03A5;
},
{
glyphname = uni0394;
layers = (
{
hints = (
{
horizontal = 1;
place = "{0, 88}";
type = Stem;
},
{
horizontal = 1;
place = "{705, -20}";
target = down;
type = TopGhost;
},
{
place = "{23, 714}";
type = Stem;
}
);
layerId = "52A54639-B708-4391-8FEC-DE0E18BC7F23";
paths = (
{
closed = 1;
nodes = (
"737 0 LINE",
"424 705 LINE",
"335 705 LINE",
"23 0 LINE"
);
},
{
closed = 1;
nodes = (
"169 88 LINE",
"379 586 LINE",
"590 88 LINE"
);
}
);
width = 763;
}
);
unicode = 0394;
},
{
glyphname = uni03A9;
layers = (
{
hints = (
{
horizontal = 1;
place = "{0, 91}";
type = Stem;
},
{
horizontal = 1;
place = "{625, 93}";
type = Stem;
},
{
place = "{25, 105}";
type = Stem;
},
{
place = "{620, 106}";
type = Stem;
}
);
layerId = "52A54639-B708-4391-8FEC-DE0E18BC7F23";
paths = (
{
closed = 1;
nodes = (
"440 0 LINE",
"743 0 LINE",
"743 91 LINE",
"569 91 LINE",
"668 152 OFFCURVE",
"726 262 OFFCURVE",
"726 378 CURVE SMOOTH",
"726 582 OFFCURVE",
"578 718 OFFCURVE",
"377 718 CURVE SMOOTH",
"183 718 OFFCURVE",
"25 582 OFFCURVE",
"25 381 CURVE SMOOTH",
"25 264 OFFCURVE",
"82 152 OFFCURVE",
"182 91 CURVE",
"7 91 LINE",
"7 0 LINE",
"315 0 LINE",
"315 93 LINE",
"206 152 OFFCURVE",
"130 243 OFFCURVE",
"130 372 CURVE SMOOTH",
"130 521 OFFCURVE",
"227 625 OFFCURVE",
"376 625 CURVE SMOOTH",
"526 625 OFFCURVE",
"620 519 OFFCURVE",
"620 372 CURVE SMOOTH",
"620 241 OFFCURVE",
"548 156 OFFCURVE",
"440 93 CURVE"
);
}
);
width = 801;
}
);
unicode = 03A9;
},
{
glyphname = Lambda;
layers = (
{
hints = (
{
horizontal = 1;
place = "{0, 21}";
target = up;
type = BottomGhost;
},
{
horizontal = 1;
place = "{705, -20}";
target = down;
type = TopGhost;
},
{
place = "{24, 685}";
type = Stem;
}
);
layerId = "52A54639-B708-4391-8FEC-DE0E18BC7F23";
paths = (
{
closed = 1;
nodes = (
"597 0 LINE",
"709 0 LINE",
"411 705 LINE",
"321 705 LINE",
"24 0 LINE",
"134 0 LINE",
"366 584 LINE"
);
}
);
width = 728;
}
);
unicode = 039B;
},
{
glyphname = Beta;
layers = (
{
hints = (
{
place = "{78, 101}";
type = Stem;
},
{
place = "{447, 102}";
type = Stem;
},
{
place = "{505, 103}";
type = Stem;
},
{
horizontal = 1;
place = "{0, 88}";
type = Stem;
},
{
horizontal = 1;
place = "{316, 84}";
type = Stem;
},
{
horizontal = 1;
place = "{617, 87}";
type = Stem;
}
);
layerId = "52A54639-B708-4391-8FEC-DE0E18BC7F23";
paths = (
{
closed = 1;
nodes = (
"78 0 LINE",
"328 0 LINE SMOOTH",
"525 0 OFFCURVE",
"608 86 OFFCURVE",
"608 194 CURVE SMOOTH",
"608 282 OFFCURVE",
"558 347 OFFCURVE",
"446 366 CURVE",
"514 391 OFFCURVE",
"549 451 OFFCURVE",
"549 527 CURVE SMOOTH",
"549 656 OFFCURVE",
"432 704 OFFCURVE",
"305 704 CURVE SMOOTH",
"78 704 LINE"
);
},
{
closed = 1;
nodes = (
"179 617 LINE",
"306 617 LINE SMOOTH",
"391 617 OFFCURVE",
"447 583 OFFCURVE",
"447 510 CURVE SMOOTH",
"447 447 OFFCURVE",
"402 400 OFFCURVE",
"305 400 CURVE SMOOTH",
"179 400 LINE"
);
},
{
closed = 1;
nodes = (
"179 316 LINE",
"309 316 LINE SMOOTH",
"453 316 OFFCURVE",
"505 275 OFFCURVE",
"505 202 CURVE SMOOTH",
"505 129 OFFCURVE",
"453 88 OFFCURVE",
"336 88 CURVE SMOOTH",
"179 88 LINE"
);
}
);
width = 650;
}
);
unicode = 0392;
},
{
glyphname = Zeta;
layers = (
{
hints = (
{
horizontal = 1;
place = "{0, 90}";
type = Stem;
},
{
horizontal = 1;
place = "{614, 90}";
type = Stem;
},
{
place = "{30, 605}";
type = Stem;
}
);
layerId = "52A54639-B708-4391-8FEC-DE0E18BC7F23";
paths = (
{
closed = 1;
nodes = (
"635 620 LINE",
"635 704 LINE",
"55 704 LINE",
"55 614 LINE",
"505 614 LINE",
"30 84 LINE",
"30 0 LINE",
"618 0 LINE",
"618 90 LINE",
"166 90 LINE"
);
}
);
width = 667;
}
);
unicode = 0396;
},
{
glyphname = Pi;
layers = (
{
hints = (
{
horizontal = 1;
place = "{0, 21}";
target = up;
type = BottomGhost;
},
{
horizontal = 1;
place = "{611, 94}";
type = Stem;
},
{
place = "{78, 102}";
type = Stem;
},
{
place = "{521, 103}";
type = Stem;
}
);
layerId = "52A54639-B708-4391-8FEC-DE0E18BC7F23";
paths = (
{
closed = 1;
nodes = (
"78 0 LINE",
"180 0 LINE",
"180 611 LINE",
"521 611 LINE",
"521 0 LINE",
"624 0 LINE",
"624 705 LINE",
"78 705 LINE"
);
}
);
width = 701;
}
);
unicode = 03A0;
},
{
glyphname = Xi;
layers = (
{
hints = (
{
horizontal = 1;
place = "{0, 101}";
type = Stem;
},
{
horizontal = 1;
place = "{309, 98}";
type = Stem;
},
{
horizontal = 1;
place = "{603, 101}";
type = Stem;
},
{
place = "{45, 488}";
type = Stem;
}
);
layerId = "52A54639-B708-4391-8FEC-DE0E18BC7F23";
paths = (
{
closed = 1;
nodes = (
"523 603 LINE",
"523 704 LINE",
"55 704 LINE",
"55 603 LINE"
);
},
{
closed = 1;
nodes = (
"493 309 LINE",
"493 407 LINE",
"85 407 LINE",
"85 309 LINE"
);
},
{
closed = 1;
nodes = (
"533 0 LINE",
"533 101 LINE",
"45 101 LINE",
"45 0 LINE"
);
}
);
width = 570;
}
);
unicode = 039E;
},
{
glyphname = Sigma;
layers = (
{
hints = (
{
horizontal = 1;
place = "{0, 90}";
type = Stem;
},
{
horizontal = 1;
place = "{614, 90}";
type = Stem;
},
{
place = "{28, 582}";
type = Stem;
}
);
layerId = "52A54639-B708-4391-8FEC-DE0E18BC7F23";
paths = (
{
closed = 1;
nodes = (
"274 354 LINE",
"28 84 LINE",
"28 0 LINE",
"610 0 LINE",
"610 90 LINE",
"165 90 LINE",
"402 354 LINE",
"171 614 LINE",
"604 614 LINE",
"604 704 LINE",
"41 704 LINE",
"41 620 LINE"
);
}
);
width = 640;
}
);
unicode = 03A3;
},
{
glyphname = Psi;
layers = (
{
hints = (
{
horizontal = 1;
place = "{0, 21}";
target = up;
type = BottomGhost;
},
{
horizontal = 1;
place = "{134, 94}";
type = Stem;
},
{
horizontal = 1;
place = "{704, -20}";
target = down;
type = TopGhost;
},
{
place = "{48, 102}";
type = Stem;
},
{
place = "{336, 102}";
type = Stem;
},
{
place = "{625, 102}";
type = Stem;
}
);
layerId = "52A54639-B708-4391-8FEC-DE0E18BC7F23";
paths = (
{
closed = 1;
nodes = (
"625 440 LINE SMOOTH",
"625 316 OFFCURVE",
"567 228 OFFCURVE",
"438 228 CURVE",
"438 704 LINE",
"336 704 LINE",
"336 228 LINE",
"207 228 OFFCURVE",
"150 316 OFFCURVE",
"150 440 CURVE SMOOTH",
"150 704 LINE",
"48 704 LINE",
"48 444 LINE SMOOTH",
"48 241 OFFCURVE",
"162 134 OFFCURVE",
"336 134 CURVE",
"336 0 LINE",
"439 0 LINE",
"439 134 LINE",
"616 134 OFFCURVE",
"727 240 OFFCURVE",
"727 445 CURVE SMOOTH",
"727 704 LINE",
"625 704 LINE"
);
}
);
width = 772;
}
);
unicode = 03A8;
},
{
glyphname = omicron;
layers = (
{
hints = (
{
horizontal = 1;
place = "{-11, 85}";
type = Stem;
},
{
horizontal = 1;
place = "{420, 84}";
type = Stem;
},
{
place = "{39, 100}";
type = Stem;
},
{
place = "{468, 100}";
type = Stem;
}
);
layerId = "52A54639-B708-4391-8FEC-DE0E18BC7F23";
paths = (
{
closed = 1;
nodes = (
"568 391 OFFCURVE",
"457 504 OFFCURVE",
"303 504 CURVE SMOOTH",
"150 504 OFFCURVE",
"39 390 OFFCURVE",
"39 245 CURVE SMOOTH",
"39 102 OFFCURVE",
"150 -11 OFFCURVE",
"302 -11 CURVE SMOOTH",
"456 -11 OFFCURVE",
"568 106 OFFCURVE",
"568 247 CURVE SMOOTH"
);
},
{
closed = 1;
nodes = (
"468 153 OFFCURVE",
"400 74 OFFCURVE",
"303 74 CURVE SMOOTH",
"210 74 OFFCURVE",
"139 149 OFFCURVE",
"139 247 CURVE SMOOTH",
"139 342 OFFCURVE",
"203 420 OFFCURVE",
"302 420 CURVE SMOOTH",
"400 420 OFFCURVE",
"468 341 OFFCURVE",
"468 246 CURVE SMOOTH"
);
}
);
width = 607;
}
);
unicode = 03BF;
},
{
glyphname = kappa;
layers = (
{
hints = (
{
horizontal = 1;
place = "{0, 21}";
target = up;
type = BottomGhost;
},
{
horizontal = 1;
place = "{492, -20}";
target = down;
type = TopGhost;
},
{
place = "{61, 100}";
type = Stem;
}
);
layerId = "52A54639-B708-4391-8FEC-DE0E18BC7F23";
paths = (
{
closed = 1;
nodes = (
"161 492 LINE",
"61 492 LINE",
"61 0 LINE",
"161 0 LINE",
"161 227 LINE",
"352 0 LINE",
"471 0 LINE",
"249 266 LINE",
"463 492 LINE",
"339 492 LINE",
"161 294 LINE"
);
}
);
width = 477;
}
);
unicode = 03BA;
},
{
glyphname = nu;
layers = (
{
hints = (
{
place = "{3, 505}";
type = Stem;
},
{
horizontal = 1;
place = "{-1, 114}";
type = Stem;
},
{
horizontal = 1;
place = "{-1, 21}";
target = up;
type = BottomGhost;
}
);
layerId = "52A54639-B708-4391-8FEC-DE0E18BC7F23";
paths = (
{
closed = 1;
nodes = (
"508 491 LINE",
"403 491 LINE",
"257 113 LINE",
"111 491 LINE",
"3 491 LINE",
"207 -1 LINE",
"304 -1 LINE"
);
}
);
width = 532;
}
);
unicode = 03BD;
},
{
glyphname = tonos;
layers = (
{
hints = (
{
horizontal = 1;
place = "{567, 155}";
type = Stem;
},
{
place = "{88, 229}";
type = Stem;
}
);
layerId = "52A54639-B708-4391-8FEC-DE0E18BC7F23";
paths = (
{
closed = 1;
nodes = (
"88 567 LINE",
"160 567 LINE",
"317 722 LINE",
"181 722 LINE"
);
}
);
width = 386;
}
);
unicode = 0384;
},
{
glyphname = Alphatonos;
layers = (
{
hints = (
{
horizontal = 1;
place = "{0, 21}";
target = up;
type = BottomGhost;
},
{
horizontal = 1;
place = "{185, 88}";
type = Stem;
},
{
horizontal = 1;
place = "{550, 155}";
type = Stem;
},
{
place = "{36, 703}";
type = Stem;
}
);
layerId = "52A54639-B708-4391-8FEC-DE0E18BC7F23";
paths = (
{
closed = 1;
nodes = (
"549 185 LINE",
"627 0 LINE",
"739 0 LINE",
"432 705 LINE",
"343 705 LINE",
"36 0 LINE",
"146 0 LINE",
"225 185 LINE"
);
},
{
closed = 1;
nodes = (
"36 550 LINE",
"108 550 LINE",
"265 705 LINE",
"129 705 LINE"
);
},
{
closed = 1;
nodes = (
"387 584 LINE",
"513 273 LINE",
"261 273 LINE"
);
}
);
width = 764;
}
);
unicode = 0386;
},
{
glyphname = Epsilontonos;
layers = (
{
hints = (
{
horizontal = 1;
place = "{0, 91}";
type = Stem;
},
{
horizontal = 1;
place = "{314, 88}";
type = Stem;
},
{
horizontal = 1;
place = "{613, 91}";
type = Stem;
},
{
place = "{297, 103}";
type = Stem;
}
);
layerId = "52A54639-B708-4391-8FEC-DE0E18BC7F23";
paths = (
{
closed = 1;
nodes = (
"400 314 LINE",
"744 314 LINE",
"744 402 LINE",
"400 402 LINE",
"400 613 LINE",
"774 613 LINE",
"774 704 LINE",
"297 704 LINE",
"297 0 LINE",
"784 0 LINE",
"784 91 LINE",
"400 91 LINE"
);
},
{
closed = 1;
nodes = (
"0 549 LINE",
"72 549 LINE",
"229 704 LINE",
"93 704 LINE"
);
}
);
width = 822;
}
);
unicode = 0388;
},
{
glyphname = Etatonos;
layers = (
{
hints = (
{
horizontal = 1;
place = "{0, 21}";
target = up;
type = BottomGhost;
},
{
horizontal = 1;
place = "{311, 94}";
type = Stem;
},
{
horizontal = 1;
place = "{549, 155}";
type = Stem;
},
{
place = "{298, 102}";
type = Stem;
},
{
place = "{760, 102}";
type = Stem;
}
);
layerId = "52A54639-B708-4391-8FEC-DE0E18BC7F23";
paths = (
{
closed = 1;
nodes = (
"298 0 LINE",
"400 0 LINE",
"400 311 LINE",
"760 311 LINE",
"760 0 LINE",
"862 0 LINE",
"862 705 LINE",
"760 705 LINE",
"760 405 LINE",
"400 405 LINE",
"400 705 LINE",
"298 705 LINE"
);
},
{
closed = 1;
nodes = (
"0 549 LINE",
"72 549 LINE",
"229 704 LINE",
"93 704 LINE"
);
}
);
width = 939;
}
);
unicode = 0389;
},
{
glyphname = Iotatonos;
layers = (
{
hints = (
{
horizontal = 1;
place = "{0, 21}";
target = up;
type = BottomGhost;
},
{
horizontal = 1;
place = "{549, 155}";
type = Stem;
},
{
place = "{301, 102}";
type = Stem;
}
);
layerId = "52A54639-B708-4391-8FEC-DE0E18BC7F23";
paths = (
{
closed = 1;
nodes = (
"403 704 LINE",
"301 704 LINE",
"301 0 LINE",
"403 0 LINE"
);
},
{
closed = 1;
nodes = (
"0 549 LINE",
"72 549 LINE",
"229 704 LINE",
"93 704 LINE"
);
}
);
width = 481;
}
);
unicode = 038A;
},
{
glyphname = Omicrontonos;
layers = (
{
hints = (
{
place = "{164, 105}";
type = Stem;
},
{
place = "{793, 106}";
type = Stem;
},
{
horizontal = 1;
place = "{-14, 93}";
type = Stem;
},
{
horizontal = 1;
place = "{549, 155}";
type = Stem;
},
{
horizontal = 1;
place = "{625, 93}";
type = Stem;
}
);
layerId = "52A54639-B708-4391-8FEC-DE0E18BC7F23";
paths = (
{
closed = 1;
nodes = (
"899 553 OFFCURVE",
"744 718 OFFCURVE",
"533 718 CURVE SMOOTH",
"320 718 OFFCURVE",
"164 554 OFFCURVE",
"164 351 CURVE SMOOTH",
"164 148 OFFCURVE",
"318 -14 OFFCURVE",
"531 -14 CURVE SMOOTH",
"742 -14 OFFCURVE",
"899 151 OFFCURVE",
"899 354 CURVE SMOOTH"
);
},
{
closed = 1;
nodes = (
"0 549 LINE",
"72 549 LINE",
"229 704 LINE",
"93 704 LINE"
);
},
{
closed = 1;
nodes = (
"793 202 OFFCURVE",
"684 79 OFFCURVE",
"532 79 CURVE SMOOTH",
"377 79 OFFCURVE",
"269 201 OFFCURVE",
"269 354 CURVE SMOOTH",
"269 503 OFFCURVE",
"377 625 OFFCURVE",
"532 625 CURVE SMOOTH",
"684 625 OFFCURVE",
"793 501 OFFCURVE",
"793 350 CURVE SMOOTH"
);
}
);
width = 936;
}
);
unicode = 038C;
},
{
glyphname = Upsilontonos;
layers = (
{
hints = (
{
horizontal = 1;
place = "{0, 21}";
target = up;
type = BottomGhost;
},
{
horizontal = 1;
place = "{549, 155}";
type = Stem;
},
{
place = "{567, 102}";
type = Stem;
}
);
layerId = "52A54639-B708-4391-8FEC-DE0E18BC7F23";
paths = (
{
closed = 1;
nodes = (
"669 278 LINE",
"939 704 LINE",
"823 704 LINE",
"621 373 LINE",
"417 704 LINE",
"297 704 LINE",
"567 277 LINE",
"567 0 LINE",
"669 0 LINE"
);
},
{
closed = 1;
nodes = (
"0 549 LINE",
"72 549 LINE",
"229 704 LINE",
"93 704 LINE"
);
}
);
width = 946;
}
);
unicode = 038E;
},
{
glyphname = Gamma;
layers = (
{
hints = (
{
horizontal = 1;
place = "{0, 21}";
target = up;
type = BottomGhost;
},
{
horizontal = 1;
place = "{613, 91}";
type = Stem;
},
{
place = "{78, 103}";
type = Stem;
}
);
layerId = "52A54639-B708-4391-8FEC-DE0E18BC7F23";
paths = (
{
closed = 1;
nodes = (
"181 613 LINE",
"552 613 LINE",
"552 704 LINE",
"78 704 LINE",
"78 0 LINE",
"181 0 LINE"
);
}
);
width = 564;
}
);
unicode = 0393;
},
{
glyphname = Theta;
layers = (
{
hints = (
{
horizontal = 1;
place = "{-14, 93}";
type = Stem;
},
{
horizontal = 1;
place = "{308, 97}";
type = Stem;
},
{
horizontal = 1;
place = "{625, 93}";
type = Stem;
},
{
place = "{38, 105}";
type = Stem;
},
{
place = "{667, 106}";
type = Stem;
}
);
layerId = "52A54639-B708-4391-8FEC-DE0E18BC7F23";
paths = (
{
closed = 1;
nodes = (
"773 553 OFFCURVE",
"618 718 OFFCURVE",
"407 718 CURVE SMOOTH",
"194 718 OFFCURVE",
"38 554 OFFCURVE",
"38 351 CURVE SMOOTH",
"38 148 OFFCURVE",
"192 -14 OFFCURVE",
"405 -14 CURVE SMOOTH",
"616 -14 OFFCURVE",
"773 151 OFFCURVE",
"773 354 CURVE SMOOTH"
);
},
{
closed = 1;
nodes = (
"667 202 OFFCURVE",
"558 79 OFFCURVE",
"407 79 CURVE SMOOTH",
"251 79 OFFCURVE",
"143 201 OFFCURVE",
"143 354 CURVE SMOOTH",
"143 503 OFFCURVE",
"251 625 OFFCURVE",
"406 625 CURVE SMOOTH",
"558 625 OFFCURVE",
"667 501 OFFCURVE",
"667 350 CURVE SMOOTH"
);
},
{
closed = 1;
nodes = (
"572 308 LINE",
"572 405 LINE",
"238 405 LINE",
"238 308 LINE"
);
}
);
width = 810;
}
);
unicode = 0398;
},
{
glyphname = Iotadieresis;
layers = (
{
hints = (
{
place = "{86, 102}";
type = Stem;
},
{
place = "{174, 126}";
type = Stem;
},
{
horizontal = 1;
place = "{0, 21}";
target = up;
type = BottomGhost;
},
{
horizontal = 1;
place = "{704, -20}";
target = down;
type = TopGhost;
},
{
horizontal = 1;
place = "{709, 127}";
type = Stem;
}
);
layerId = "52A54639-B708-4391-8FEC-DE0E18BC7F23";
paths = (
{
closed = 1;
nodes = (
"-24 736 OFFCURVE",
"3 709 OFFCURVE",
"40 709 CURVE SMOOTH",
"75 709 OFFCURVE",
"104 736 OFFCURVE",
"104 773 CURVE SMOOTH",
"104 809 OFFCURVE",
"75 836 OFFCURVE",
"40 836 CURVE SMOOTH",
"3 836 OFFCURVE",
"-24 809 OFFCURVE",
"-24 773 CURVE SMOOTH"
);
},
{
closed = 1;
nodes = (
"174 736 OFFCURVE",
"201 709 OFFCURVE",
"236 709 CURVE SMOOTH",
"273 709 OFFCURVE",
"300 736 OFFCURVE",
"300 773 CURVE SMOOTH",
"300 809 OFFCURVE",
"273 836 OFFCURVE",
"236 836 CURVE SMOOTH",
"201 836 OFFCURVE",
"174 809 OFFCURVE",
"174 773 CURVE SMOOTH"
);
},
{
closed = 1;
nodes = (
"188 704 LINE",
"86 704 LINE",
"86 0 LINE",
"188 0 LINE"
);
}
);
width = 276;
}
);
unicode = 03AA;
},
{
glyphname = Upsilondieresis;
layers = (
{
hints = (
{
place = "{170, 128}";
type = Stem;
},
{
place = "{280, 102}";
type = Stem;
},
{
place = "{368, 126}";
type = Stem;
},
{
horizontal = 1;
place = "{0, 21}";
target = up;
type = BottomGhost;
},
{
horizontal = 1;
place = "{704, -20}";
target = down;
type = TopGhost;
},
{
horizontal = 1;
place = "{709, 127}";
type = Stem;
}
);
layerId = "52A54639-B708-4391-8FEC-DE0E18BC7F23";
paths = (
{
closed = 1;
nodes = (
"170 736 OFFCURVE",
"197 709 OFFCURVE",
"234 709 CURVE SMOOTH",
"269 709 OFFCURVE",
"298 736 OFFCURVE",
"298 773 CURVE SMOOTH",
"298 809 OFFCURVE",
"269 836 OFFCURVE",
"234 836 CURVE SMOOTH",
"197 836 OFFCURVE",
"170 809 OFFCURVE",
"170 773 CURVE SMOOTH"
);
},
{
closed = 1;
nodes = (
"368 736 OFFCURVE",
"395 709 OFFCURVE",
"430 709 CURVE SMOOTH",
"467 709 OFFCURVE",
"494 736 OFFCURVE",
"494 773 CURVE SMOOTH",
"494 809 OFFCURVE",
"467 836 OFFCURVE",
"430 836 CURVE SMOOTH",
"395 836 OFFCURVE",
"368 809 OFFCURVE",
"368 773 CURVE SMOOTH"
);
},
{
closed = 1;
nodes = (
"382 278 LINE",
"652 704 LINE",
"536 704 LINE",
"334 373 LINE",
"130 704 LINE",
"10 704 LINE",
"280 277 LINE",
"280 0 LINE",
"382 0 LINE"
);
}
);
width = 656;
}
);
unicode = 03AB;
},
{
glyphname = dieresistonos;
layers = (
{
hints = (
{
place = "{4, 125}";
type = Stem;
},
{
place = "{306, 122}";
type = Stem;
},
{
horizontal = 1;
place = "{511, 124}";
type = Stem;
},
{
horizontal = 1;
place = "{513, 155}";
type = Stem;
}
);
layerId = "52A54639-B708-4391-8FEC-DE0E18BC7F23";
paths = (
{
closed = 1;
nodes = (
"129 513 LINE",
"199 513 LINE",
"346 668 LINE",
"215 668 LINE"
);
},
{
closed = 1;
nodes = (
"402 511 OFFCURVE",
"428 538 OFFCURVE",
"428 573 CURVE SMOOTH",
"428 606 OFFCURVE",
"402 635 OFFCURVE",
"366 635 CURVE SMOOTH",
"331 635 OFFCURVE",
"306 606 OFFCURVE",
"306 573 CURVE SMOOTH",
"306 538 OFFCURVE",
"331 511 OFFCURVE",
"366 511 CURVE SMOOTH"
);
},
{
closed = 1;
nodes = (
"4 537 OFFCURVE",
"31 510 OFFCURVE",
"66 510 CURVE SMOOTH",
"99 510 OFFCURVE",
"129 537 OFFCURVE",
"129 572 CURVE SMOOTH",
"129 607 OFFCURVE",
"99 634 OFFCURVE",
"66 634 CURVE SMOOTH",
"31 634 OFFCURVE",
"4 607 OFFCURVE",
"4 572 CURVE SMOOTH"
);
}
);
width = 436;
}
);
unicode = 0385;
},
{
glyphname = alpha;
layers = (
{
hints = (
{
place = "{29, 100}";
type = Stem;
},
{
place = "{447, 100}";
type = Stem;
},
{
horizontal = 1;
place = "{-11, 85}";
type = Stem;
},
{
horizontal = 1;
place = "{0, 21}";
target = up;
type = BottomGhost;
},
{
horizontal = 1;
place = "{419, 85}";
type = Stem;
},
{
horizontal = 1;
place = "{492, -20}";
target = down;
type = TopGhost;
}
);
layerId = "52A54639-B708-4391-8FEC-DE0E18BC7F23";
paths = (
{
closed = 1;
nodes = (
"547 0 LINE",
"547 492 LINE",
"447 492 LINE",
"447 409 LINE",
"402 469 OFFCURVE",
"345 504 OFFCURVE",
"268 504 CURVE SMOOTH",
"122 504 OFFCURVE",
"29 387 OFFCURVE",
"29 246 CURVE SMOOTH",
"29 107 OFFCURVE",
"124 -11 OFFCURVE",
"268 -11 CURVE SMOOTH",
"349 -11 OFFCURVE",
"398 26 OFFCURVE",
"447 85 CURVE"
);
},
{
closed = 1;
nodes = (
"384 419 OFFCURVE",
"452 338 OFFCURVE",
"452 247 CURVE SMOOTH",
"452 155 OFFCURVE",
"384 74 OFFCURVE",
"288 74 CURVE SMOOTH",
"194 74 OFFCURVE",
"129 155 OFFCURVE",
"129 246 CURVE SMOOTH",
"129 341 OFFCURVE",
"189 419 OFFCURVE",
"289 419 CURVE SMOOTH"
);
}
);
width = 583;
}
);
unicode = 03B1;
},
{
glyphname = rho;
layers = (
{
hints = (
{
horizontal = 1;
place = "{-10, 84}";
type = Stem;
},
{
horizontal = 1;
place = "{417, 87}";
type = Stem;
},
{
place = "{68, 100}";
type = Stem;
},
{
place = "{488, 100}";
type = Stem;
}
);
layerId = "52A54639-B708-4391-8FEC-DE0E18BC7F23";
paths = (
{
closed = 1;
nodes = (
"68 -183 LINE",
"168 -183 LINE",
"168 81 LINE",
"212 22 OFFCURVE",
"272 -10 OFFCURVE",
"348 -10 CURVE SMOOTH",
"495 -10 OFFCURVE",
"588 108 OFFCURVE",
"588 247 CURVE SMOOTH",
"588 399 OFFCURVE",
"477 504 OFFCURVE",
"329 504 CURVE SMOOTH",
"179 504 OFFCURVE",
"68 401 OFFCURVE",
"68 247 CURVE SMOOTH"
);
},
{
closed = 1;
nodes = (
"488 155 OFFCURVE",
"428 74 OFFCURVE",
"330 74 CURVE SMOOTH",
"234 74 OFFCURVE",
"164 144 OFFCURVE",
"164 241 CURVE SMOOTH",
"164 344 OFFCURVE",
"235 417 OFFCURVE",
"327 417 CURVE SMOOTH",
"424 417 OFFCURVE",
"488 342 OFFCURVE",
"488 247 CURVE SMOOTH"
);
}
);
width = 627;
}
);
unicode = 03C1;
},
{
glyphname = iota;
layers = (
{
hints = (
{
horizontal = 1;
place = "{0, 21}";
target = up;
type = BottomGhost;
},
{
horizontal = 1;
place = "{492, -20}";
target = down;
type = TopGhost;
},
{
place = "{73, 99}";
type = Stem;
}
);
layerId = "52A54639-B708-4391-8FEC-DE0E18BC7F23";
paths = (
{
closed = 1;
nodes = (
"172 492 LINE",
"73 492 LINE",
"73 0 LINE",
"172 0 LINE"
);
}
);
width = 200;
}
);
unicode = 03B9;
},
{
glyphname = eta;
layers = (
{
hints = (
{
place = "{59, 100}";
type = Stem;
},
{
place = "{393, 100}";
type = Stem;
},
{
horizontal = 1;
place = "{0, 21}";
target = up;
type = BottomGhost;
},
{
horizontal = 1;
place = "{415, 88}";
type = Stem;
},
{
horizontal = 1;
place = "{492, -20}";
target = down;
type = TopGhost;
}
);
layerId = "52A54639-B708-4391-8FEC-DE0E18BC7F23";
paths = (
{
closed = 1;
nodes = (
"246 503 OFFCURVE",
"196 472 OFFCURVE",
"160 428 CURVE",
"59 492 LINE",
"59 0 LINE",
"159 0 LINE",
"159 282 LINE SMOOTH",
"159 384 OFFCURVE",
"229 415 OFFCURVE",
"282 415 CURVE SMOOTH",
"337 415 OFFCURVE",
"393 383 OFFCURVE",
"393 282 CURVE SMOOTH",
"393 0 LINE",
"493 0 LINE",
"493 312 LINE SMOOTH",
"493 436 OFFCURVE",
"423 503 OFFCURVE",
"317 503 CURVE SMOOTH"
);
}
);
width = 553;
}
);
unicode = 03B7;
},
{
glyphname = gamma;
layers = (
{
hints = (
{
horizontal = 1;
place = "{-183, 674}";
type = Stem;
},
{
place = "{195, 100}";
type = Stem;
}
);
layerId = "52A54639-B708-4391-8FEC-DE0E18BC7F23";
paths = (
{
closed = 1;
nodes = (
"295 5 LINE",
"497 491 LINE",
"393 491 LINE",
"246 113 LINE",
"101 491 LINE",
"-8 491 LINE",
"195 3 LINE",
"195 -183 LINE",
"295 -183 LINE"
);
}
);
width = 518;
}
);
unicode = 03B3;
},
{
glyphname = upsilon;
layers = (
{
hints = (
{
horizontal = 1;
place = "{-11, 87}";
type = Stem;
},
{
horizontal = 1;
place = "{493, -20}";
target = down;
type = TopGhost;
},
{
place = "{44, 100}";
type = Stem;
},
{
place = "{378, 100}";
type = Stem;
}
);
layerId = "52A54639-B708-4391-8FEC-DE0E18BC7F23";
paths = (
{
closed = 1;
nodes = (
"478 493 LINE",
"378 493 LINE",
"378 202 LINE SMOOTH",
"378 133 OFFCURVE",
"333 76 OFFCURVE",
"261 76 CURVE SMOOTH",
"181 76 OFFCURVE",
"144 131 OFFCURVE",
"144 203 CURVE SMOOTH",
"144 493 LINE",
"44 493 LINE",
"44 221 LINE SMOOTH",
"44 70 OFFCURVE",
"115 -11 OFFCURVE",
"262 -11 CURVE SMOOTH",
"407 -11 OFFCURVE",
"478 76 OFFCURVE",
"478 224 CURVE SMOOTH"
);
}
);
width = 536;
}
);
unicode = 03C5;
},
{
glyphname = beta;
layers = (
{
hints = (
{
place = "{71, 100}";
type = Stem;
},
{
place = "{440, 100}";
type = Stem;
},
{
place = "{482, 100}";
type = Stem;
},
{
horizontal = 1;
place = "{-10, 86}";
type = Stem;
},
{
horizontal = 1;
place = "{649, 87}";
type = Stem;
}
);
layerId = "52A54639-B708-4391-8FEC-DE0E18BC7F23";
paths = (
{
closed = 1;
nodes = (
"482 -10 OFFCURVE",
"582 81 OFFCURVE",
"582 204 CURVE SMOOTH",
"582 302 OFFCURVE",
"521 380 OFFCURVE",
"416 390 CURVE",
"491 423 OFFCURVE",
"540 471 OFFCURVE",
"540 551 CURVE SMOOTH",
"540 661 OFFCURVE",
"453 736 OFFCURVE",
"316 736 CURVE SMOOTH",
"149 736 OFFCURVE",
"71 629 OFFCURVE",
"71 499 CURVE SMOOTH",
"71 -183 LINE",
"171 -183 LINE",
"171 82 LINE",
"214 26 OFFCURVE",
"280 -10 OFFCURVE",
"361 -10 CURVE SMOOTH"
);
},
{
closed = 1;
nodes = (
"248 76 OFFCURVE",
"171 148 OFFCURVE",
"171 246 CURVE SMOOTH",
"171 498 LINE SMOOTH",
"171 577 OFFCURVE",
"217 649 OFFCURVE",
"314 649 CURVE SMOOTH",
"387 649 OFFCURVE",
"440 611 OFFCURVE",
"440 539 CURVE SMOOTH",
"440 467 OFFCURVE",
"386 429 OFFCURVE",
"299 415 CURVE",
"299 347 LINE",
"422 342 OFFCURVE",
"482 286 OFFCURVE",
"482 209 CURVE SMOOTH",
"482 132 OFFCURVE",
"423 76 OFFCURVE",
"348 76 CURVE SMOOTH"
);
}
);
width = 621;
}
);
unicode = 03B2;
},
{
glyphname = pi;
layers = (
{
hints = (
{
horizontal = 1;
place = "{0, 21}";
target = up;
type = BottomGhost;
},
{
horizontal = 1;
place = "{410, 82}";
type = Stem;
},
{
place = "{59, 100}";
type = Stem;
},
{
place = "{383, 100}";
type = Stem;
}
);
layerId = "52A54639-B708-4391-8FEC-DE0E18BC7F23";
paths = (
{
closed = 1;
nodes = (
"59 492 LINE",
"59 0 LINE",
"159 0 LINE",
"159 410 LINE",
"383 410 LINE",
"383 0 LINE",
"483 0 LINE",
"483 492 LINE"
);
}
);
width = 543;
}
);
unicode = 03C0;
},
{
glyphname = uni03BC;
layers = (
{
hints = (
{
place = "{73, 100}";
type = Stem;
},
{
place = "{407, 100}";
type = Stem;
},
{
horizontal = 1;
place = "{-10, 87}";
type = Stem;
},
{
horizontal = 1;
place = "{0, 21}";
target = up;
type = BottomGhost;
},
{
horizontal = 1;
place = "{493, -20}";
target = down;
type = TopGhost;
}
);
layerId = "52A54639-B708-4391-8FEC-DE0E18BC7F23";
paths = (
{
closed = 1;
nodes = (
"173 59 LINE",
"197 12 OFFCURVE",
"238 -10 OFFCURVE",
"281 -10 CURVE SMOOTH",
"334 -10 OFFCURVE",
"383 24 OFFCURVE",
"407 64 CURVE",
"507 0 LINE",
"507 493 LINE",
"407 493 LINE",
"407 211 LINE SMOOTH",
"407 123 OFFCURVE",
"352 77 OFFCURVE",
"283 77 CURVE SMOOTH",
"228 77 OFFCURVE",
"173 116 OFFCURVE",
"173 211 CURVE SMOOTH",
"173 493 LINE",
"73 493 LINE",
"73 -183 LINE",
"173 -183 LINE"
);
}
);
width = 534;
}
);
unicode = 03BC;
},
{
glyphname = tau;
layers = (
{
hints = (
{
horizontal = 1;
place = "{-11, 85}";
type = Stem;
},
{
horizontal = 1;
place = "{408, 84}";
type = Stem;
},
{
place = "{121, 98}";
type = Stem;
}
);
layerId = "52A54639-B708-4391-8FEC-DE0E18BC7F23";
paths = (
{
closed = 1;
nodes = (
"-7 492 LINE",
"-7 408 LINE",
"121 408 LINE",
"121 128 LINE SMOOTH",
"121 39 OFFCURVE",
"170 -11 OFFCURVE",
"246 -11 CURVE SMOOTH",
"270 -11 OFFCURVE",
"290 -5 OFFCURVE",
"309 3 CURVE",
"309 86 LINE",
"297 78 OFFCURVE",
"281 74 OFFCURVE",
"268 74 CURVE SMOOTH",
"232 74 OFFCURVE",
"219 100 OFFCURVE",
"219 137 CURVE SMOOTH",
"219 408 LINE",
"351 408 LINE",
"351 492 LINE"
);
}
);
width = 360;
}
);
unicode = 03C4;
},
{
glyphname = Phi;
layers = (
{
hints = (
{
place = "{38, 105}";
type = Stem;
},
{
place = "{384, 101}";
type = Stem;
},
{
place = "{722, 105}";
type = Stem;
},
{
horizontal = 1;
place = "{-5, 148}";
type = Stem;
},
{
horizontal = 1;
place = "{52, 91}";
type = Stem;
},
{
horizontal = 1;
place = "{57, 86}";
type = Stem;
},
{
horizontal = 1;
place = "{560, 92}";
type = Stem;
},
{
horizontal = 1;
place = "{560, 149}";
type = Stem;
}
);
layerId = "52A54639-B708-4391-8FEC-DE0E18BC7F23";
paths = (
{
closed = 1;
nodes = (
"485 709 LINE",
"384 709 LINE",
"384 652 LINE",
"368 652 OFFCURVE",
"353 650 OFFCURVE",
"336 647 CURVE",
"140 623 OFFCURVE",
"38 501 OFFCURVE",
"38 351 CURVE SMOOTH",
"38 202 OFFCURVE",
"140 81 OFFCURVE",
"336 57 CURVE",
"353 54 OFFCURVE",
"368 53 OFFCURVE",
"384 52 CURVE",
"384 -5 LINE",
"485 -5 LINE",
"485 52 LINE",
"501 53 OFFCURVE",
"516 54 OFFCURVE",
"532 57 CURVE",
"726 84 OFFCURVE",
"827 203 OFFCURVE",
"827 353 CURVE SMOOTH",
"827 499 OFFCURVE",
"726 623 OFFCURVE",
"532 647 CURVE",
"516 650 OFFCURVE",
"501 652 OFFCURVE",
"485 652 CURVE"
);
},
{
closed = 1;
nodes = (
"485 560 LINE",
"645 549 OFFCURVE",
"722 466 OFFCURVE",
"722 350 CURVE SMOOTH",
"722 233 OFFCURVE",
"645 156 OFFCURVE",
"485 143 CURVE"
);
},
{
closed = 1;
nodes = (
"384 143 LINE",
"227 156 OFFCURVE",
"143 233 OFFCURVE",
"143 353 CURVE SMOOTH",
"143 469 OFFCURVE",
"227 552 OFFCURVE",
"384 560 CURVE"
);
}
);
width = 865;
}
);
unicode = 03A6;
},
{
glyphname = chi;
layers = (
{
hints = (
{
horizontal = 1;
place = "{-183, 674}";
type = Stem;
},
{
place = "{9, 494}";
type = Stem;
}
);
layerId = "52A54639-B708-4391-8FEC-DE0E18BC7F23";
paths = (
{
closed = 1;
nodes = (
"257 271 LINE",
"133 491 LINE",
"21 491 LINE",
"203 176 LINE",
"9 -183 LINE",
"118 -183 LINE",
"254 81 LINE",
"391 -183 LINE",
"503 -183 LINE",
"309 180 LINE",
"491 491 LINE",
"382 491 LINE"
);
}
);
width = 506;
}
);
unicode = 03C7;
},
{
glyphname = sigma;
layers = (
{
hints = (
{
horizontal = 1;
place = "{-11, 85}";
type = Stem;
},
{
horizontal = 1;
place = "{408, 84}";
type = Stem;
},
{
place = "{39, 100}";
type = Stem;
},
{
place = "{468, 100}";
type = Stem;
}
);
layerId = "52A54639-B708-4391-8FEC-DE0E18BC7F23";
paths = (
{
closed = 1;
nodes = (
"620 408 LINE",
"620 492 LINE",
"320 492 LINE SMOOTH",
"143 492 OFFCURVE",
"39 367 OFFCURVE",
"39 239 CURVE SMOOTH",
"39 105 OFFCURVE",
"149 -11 OFFCURVE",
"302 -11 CURVE SMOOTH",
"437 -11 OFFCURVE",
"568 97 OFFCURVE",
"568 238 CURVE SMOOTH",
"568 302 OFFCURVE",
"541 368 OFFCURVE",
"477 408 CURVE"
);
},
{
closed = 1;
nodes = (
"468 147 OFFCURVE",
"398 74 OFFCURVE",
"303 74 CURVE SMOOTH",
"208 74 OFFCURVE",
"139 153 OFFCURVE",
"139 241 CURVE SMOOTH",
"139 333 OFFCURVE",
"203 408 OFFCURVE",
"304 408 CURVE SMOOTH",
"404 408 OFFCURVE",
"468 338 OFFCURVE",
"468 240 CURVE SMOOTH"
);
}
);
width = 631;
}
);
unicode = 03C3;
},
{
glyphname = theta;
layers = (
{
hints = (
{
horizontal = 1;
place = "{-11, 85}";
type = Stem;
},
{
horizontal = 1;
place = "{335, 82}";
type = Stem;
},
{
horizontal = 1;
place = "{652, 84}";
type = Stem;
},
{
place = "{39, 102}";
type = Stem;
},
{
place = "{461, 103}";
type = Stem;
}
);
layerId = "52A54639-B708-4391-8FEC-DE0E18BC7F23";
paths = (
{
closed = 1;
nodes = (
"103 736 OFFCURVE",
"39 532 OFFCURVE",
"39 367 CURVE SMOOTH",
"39 357 LINE SMOOTH",
"39 338 OFFCURVE",
"40 321 OFFCURVE",
"41 304 CURVE SMOOTH",
"57 104 OFFCURVE",
"159 -11 OFFCURVE",
"300 -11 CURVE SMOOTH",
"451 -11 OFFCURVE",
"545 109 OFFCURVE",
"561 302 CURVE",
"564 322 OFFCURVE",
"564 346 OFFCURVE",
"564 367 CURVE SMOOTH",
"564 588 OFFCURVE",
"462 736 OFFCURVE",
"302 736 CURVE SMOOTH"
);
},
{
closed = 1;
nodes = (
"141 417 LINE",
"145 484 OFFCURVE",
"161 538 OFFCURVE",
"185 577 CURVE SMOOTH",
"210 620 OFFCURVE",
"251 652 OFFCURVE",
"300 652 CURVE SMOOTH",
"344 652 OFFCURVE",
"383 626 OFFCURVE",
"414 581 CURVE",
"439 541 OFFCURVE",
"457 488 OFFCURVE",
"461 417 CURVE"
);
},
{
closed = 1;
nodes = (
"461 335 LINE",
"458 270 OFFCURVE",
"446 216 OFFCURVE",
"429 175 CURVE SMOOTH",
"426 168 OFFCURVE",
"425 163 OFFCURVE",
"422 159 CURVE",
"397 112 OFFCURVE",
"357 74 OFFCURVE",
"301 74 CURVE SMOOTH",
"261 74 OFFCURVE",
"222 96 OFFCURVE",
"193 140 CURVE SMOOTH",
"165 184 OFFCURVE",
"145 248 OFFCURVE",
"141 335 CURVE"
);
}
);
width = 601;
}
);
unicode = 03B8;
},
{
glyphname = lambda;
layers = (
{
hints = (
{
horizontal = 1;
place = "{0, 21}";
target = up;
type = BottomGhost;
},
{
horizontal = 1;
place = "{659, 77}";
type = Stem;
},
{
place = "{6, 508}";
type = Stem;
}
);
layerId = "52A54639-B708-4391-8FEC-DE0E18BC7F23";
paths = (
{
closed = 1;
nodes = (
"204 512 LINE",
"6 0 LINE",
"114 0 LINE",
"255 397 LINE",
"410 0 LINE",
"514 0 LINE",
"268 593 LINE SMOOTH",
"239 662 OFFCURVE",
"208 736 OFFCURVE",
"122 736 CURVE SMOOTH",
"93 736 OFFCURVE",
"65 730 OFFCURVE",
"38 722 CURVE",
"61 642 LINE",
"77 650 OFFCURVE",
"95 659 OFFCURVE",
"112 659 CURVE SMOOTH",
"149 659 OFFCURVE",
"196 535 OFFCURVE",
"204 513 CURVE"
);
}
);
width = 527;
}
);
unicode = 03BB;
},
{
glyphname = psi;
layers = (
{
hints = (
{
horizontal = 1;
place = "{-10, 86}";
type = Stem;
},
{
horizontal = 1;
place = "{493, -20}";
target = down;
type = TopGhost;
},
{
place = "{59, 100}";
type = Stem;
},
{
place = "{316, 101}";
type = Stem;
},
{
place = "{573, 100}";
type = Stem;
}
);
layerId = "52A54639-B708-4391-8FEC-DE0E18BC7F23";
paths = (
{
closed = 1;
nodes = (
"317 -183 LINE",
"417 -183 LINE",
"417 -10 LINE",
"556 -10 OFFCURVE",
"673 56 OFFCURVE",
"673 235 CURVE SMOOTH",
"673 493 LINE",
"573 493 LINE",
"573 234 LINE SMOOTH",
"573 113 OFFCURVE",
"486 76 OFFCURVE",
"417 76 CURVE",
"417 732 LINE",
"316 732 LINE",
"316 76 LINE",
"244 76 OFFCURVE",
"159 103 OFFCURVE",
"159 236 CURVE SMOOTH",
"159 493 LINE",
"59 493 LINE",
"59 233 LINE SMOOTH",
"59 72 OFFCURVE",
"162 -10 OFFCURVE",
"317 -10 CURVE"
);
}
);
width = 719;
}
);
unicode = 03C8;
},
{
glyphname = epsilon;
layers = (
{
hints = (
{
place = "{40, 100}";
type = Stem;
},
{
place = "{60, 100}";
type = Stem;
},
{
horizontal = 1;
place = "{-11, 85}";
type = Stem;
},
{
horizontal = 1;
place = "{220, 79}";
type = Stem;
},
{
horizontal = 1;
place = "{420, 84}";
type = Stem;
}
);
layerId = "52A54639-B708-4391-8FEC-DE0E18BC7F23";
paths = (
{
closed = 1;
nodes = (
"188 74 OFFCURVE",
"140 103 OFFCURVE",
"140 146 CURVE SMOOTH",
"140 185 OFFCURVE",
"178 220 OFFCURVE",
"269 220 CURVE SMOOTH",
"309 220 LINE",
"309 299 LINE",
"272 299 LINE SMOOTH",
"203 299 OFFCURVE",
"160 324 OFFCURVE",
"160 364 CURVE SMOOTH",
"160 400 OFFCURVE",
"197 420 OFFCURVE",
"248 420 CURVE SMOOTH",
"283 420 OFFCURVE",
"324 410 OFFCURVE",
"364 385 CURVE",
"389 471 LINE",
"342 492 OFFCURVE",
"294 504 OFFCURVE",
"243 504 CURVE SMOOTH",
"143 504 OFFCURVE",
"60 458 OFFCURVE",
"60 375 CURVE SMOOTH",
"60 326 OFFCURVE",
"91 281 OFFCURVE",
"154 258 CURVE",
"81 241 OFFCURVE",
"40 194 OFFCURVE",
"40 137 CURVE SMOOTH",
"40 51 OFFCURVE",
"134 -11 OFFCURVE",
"245 -11 CURVE SMOOTH",
"296 -11 OFFCURVE",
"348 2 OFFCURVE",
"399 23 CURVE",
"379 107 LINE",
"328 82 OFFCURVE",
"285 74 OFFCURVE",
"252 74 CURVE SMOOTH"
);
}
);
width = 421;
}
);
unicode = 03B5;
},
{
glyphname = delta;
layers = (
{
hints = (
{
horizontal = 1;
place = "{-11, 85}";
type = Stem;
},
{
horizontal = 1;
place = "{400, 81}";
type = Stem;
},
{
horizontal = 1;
place = "{652, 84}";
type = Stem;
},
{
place = "{39, 100}";
type = Stem;
},
{
place = "{467, 100}";
type = Stem;
}
);
layerId = "52A54639-B708-4391-8FEC-DE0E18BC7F23";
paths = (
{
closed = 1;
nodes = (
"240 652 LINE",
"496 652 LINE",
"496 736 LINE",
"90 736 LINE",
"90 652 LINE",
"303 480 LINE",
"294 481 OFFCURVE",
"286 481 OFFCURVE",
"278 481 CURVE SMOOTH",
"222 481 OFFCURVE",
"163 462 OFFCURVE",
"115 419 CURVE SMOOTH",
"67 375 OFFCURVE",
"39 312 OFFCURVE",
"39 243 CURVE SMOOTH",
"39 99 OFFCURVE",
"155 -11 OFFCURVE",
"301 -11 CURVE SMOOTH",
"450 -11 OFFCURVE",
"567 103 OFFCURVE",
"567 244 CURVE SMOOTH",
"567 358 OFFCURVE",
"496 431 OFFCURVE",
"418 498 CURVE SMOOTH"
);
},
{
closed = 1;
nodes = (
"467 158 OFFCURVE",
"402 74 OFFCURVE",
"302 74 CURVE SMOOTH",
"204 74 OFFCURVE",
"139 153 OFFCURVE",
"139 243 CURVE SMOOTH",
"139 335 OFFCURVE",
"210 400 OFFCURVE",
"309 400 CURVE SMOOTH",
"412 400 OFFCURVE",
"467 324 OFFCURVE",
"467 242 CURVE SMOOTH"
);
}
);
width = 606;
}
);
unicode = 03B4;
},
{
glyphname = alphatonos;
layers = (
{
hints = (
{
place = "{29, 100}";
type = Stem;
},
{
place = "{447, 100}";
type = Stem;
},
{
horizontal = 1;
place = "{-11, 85}";
type = Stem;
},
{
horizontal = 1;
place = "{0, 21}";
target = up;
type = BottomGhost;
},
{
horizontal = 1;
place = "{419, 85}";
type = Stem;
},
{
horizontal = 1;
place = "{492, -20}";
target = down;
type = TopGhost;
},
{
horizontal = 1;
place = "{567, 155}";
type = Stem;
}
);
layerId = "52A54639-B708-4391-8FEC-DE0E18BC7F23";
paths = (
{
closed = 1;
nodes = (
"261 567 LINE",
"333 567 LINE",
"490 722 LINE",
"354 722 LINE"
);
},
{
closed = 1;
nodes = (
"547 0 LINE",
"547 492 LINE",
"447 492 LINE",
"447 409 LINE",
"402 469 OFFCURVE",
"345 504 OFFCURVE",
"268 504 CURVE SMOOTH",
"122 504 OFFCURVE",
"29 387 OFFCURVE",
"29 246 CURVE SMOOTH",
"29 107 OFFCURVE",
"124 -11 OFFCURVE",
"268 -11 CURVE SMOOTH",
"349 -11 OFFCURVE",
"398 26 OFFCURVE",
"447 85 CURVE"
);
},
{
closed = 1;
nodes = (
"384 419 OFFCURVE",
"452 338 OFFCURVE",
"452 247 CURVE SMOOTH",
"452 155 OFFCURVE",
"384 74 OFFCURVE",
"288 74 CURVE SMOOTH",
"194 74 OFFCURVE",
"129 155 OFFCURVE",
"129 246 CURVE SMOOTH",
"129 341 OFFCURVE",
"189 419 OFFCURVE",
"289 419 CURVE SMOOTH"
);
}
);
width = 583;
}
);
unicode = 03AC;
},
{
glyphname = etatonos;
layers = (
{
hints = (
{
place = "{59, 100}";
type = Stem;
},
{
place = "{393, 100}";
type = Stem;
},
{
horizontal = 1;
place = "{0, 21}";
target = up;
type = BottomGhost;
},
{
horizontal = 1;
place = "{415, 88}";
type = Stem;
},
{
horizontal = 1;
place = "{492, -20}";
target = down;
type = TopGhost;
},
{
horizontal = 1;
place = "{567, 155}";
type = Stem;
}
);
layerId = "52A54639-B708-4391-8FEC-DE0E18BC7F23";
paths = (
{
closed = 1;
nodes = (
"230 567 LINE",
"302 567 LINE",
"459 722 LINE",
"323 722 LINE"
);
},
{
closed = 1;
nodes = (
"246 503 OFFCURVE",
"196 472 OFFCURVE",
"160 428 CURVE",
"59 492 LINE",
"59 0 LINE",
"159 0 LINE",
"159 282 LINE SMOOTH",
"159 384 OFFCURVE",
"229 415 OFFCURVE",
"282 415 CURVE SMOOTH",
"337 415 OFFCURVE",
"393 383 OFFCURVE",
"393 282 CURVE SMOOTH",
"393 0 LINE",
"493 0 LINE",
"493 312 LINE SMOOTH",
"493 436 OFFCURVE",
"423 503 OFFCURVE",
"317 503 CURVE SMOOTH"
);
}
);
width = 553;
}
);
unicode = 03AE;
},
{
glyphname = iotatonos;
layers = (
{
hints = (
{
horizontal = 1;
place = "{0, 21}";
target = up;
type = BottomGhost;
},
{
horizontal = 1;
place = "{492, -20}";
target = down;
type = TopGhost;
},
{
horizontal = 1;
place = "{567, 155}";
type = Stem;
},
{
place = "{73, 99}";
type = Stem;
}
);
layerId = "52A54639-B708-4391-8FEC-DE0E18BC7F23";
paths = (
{
closed = 1;
nodes = (
"83 567 LINE",
"155 567 LINE",
"312 722 LINE",
"176 722 LINE"
);
},
{
closed = 1;
nodes = (
"172 492 LINE",
"73 492 LINE",
"73 0 LINE",
"172 0 LINE"
);
}
);
width = 297;
}
);
unicode = 03AF;
},
{
glyphname = omicrontonos;
layers = (
{
hints = (
{
horizontal = 1;
place = "{-11, 85}";
type = Stem;
},
{
horizontal = 1;
place = "{420, 84}";
type = Stem;
},
{
horizontal = 1;
place = "{567, 155}";
type = Stem;
},
{
place = "{39, 100}";
type = Stem;
},
{
place = "{468, 100}";
type = Stem;
}
);
layerId = "52A54639-B708-4391-8FEC-DE0E18BC7F23";
paths = (
{
closed = 1;
nodes = (
"274 567 LINE",
"346 567 LINE",
"503 722 LINE",
"367 722 LINE"
);
},
{
closed = 1;
nodes = (
"568 391 OFFCURVE",
"457 504 OFFCURVE",
"303 504 CURVE SMOOTH",
"150 504 OFFCURVE",
"39 390 OFFCURVE",
"39 245 CURVE SMOOTH",
"39 102 OFFCURVE",
"150 -11 OFFCURVE",
"302 -11 CURVE SMOOTH",
"456 -11 OFFCURVE",
"568 106 OFFCURVE",
"568 247 CURVE SMOOTH"
);
},
{
closed = 1;
nodes = (
"468 153 OFFCURVE",
"400 74 OFFCURVE",
"303 74 CURVE SMOOTH",
"210 74 OFFCURVE",
"139 149 OFFCURVE",
"139 247 CURVE SMOOTH",
"139 342 OFFCURVE",
"203 420 OFFCURVE",
"302 420 CURVE SMOOTH",
"400 420 OFFCURVE",
"468 341 OFFCURVE",
"468 246 CURVE SMOOTH"
);
}
);
width = 607;
}
);
unicode = 03CC;
},
{
glyphname = upsilontonos;
layers = (
{
hints = (
{
horizontal = 1;
place = "{-11, 87}";
type = Stem;
},
{
horizontal = 1;
place = "{493, -20}";
target = down;
type = TopGhost;
},
{
horizontal = 1;
place = "{567, 155}";
type = Stem;
},
{
place = "{44, 100}";
type = Stem;
},
{
place = "{378, 100}";
type = Stem;
}
);
layerId = "52A54639-B708-4391-8FEC-DE0E18BC7F23";
paths = (
{
closed = 1;
nodes = (
"234 567 LINE",
"306 567 LINE",
"463 722 LINE",
"327 722 LINE"
);
},
{
closed = 1;
nodes = (
"478 493 LINE",
"378 493 LINE",
"378 202 LINE SMOOTH",
"378 133 OFFCURVE",
"333 76 OFFCURVE",
"261 76 CURVE SMOOTH",
"181 76 OFFCURVE",
"144 131 OFFCURVE",
"144 203 CURVE SMOOTH",
"144 493 LINE",
"44 493 LINE",
"44 221 LINE SMOOTH",
"44 70 OFFCURVE",
"115 -11 OFFCURVE",
"262 -11 CURVE SMOOTH",
"407 -11 OFFCURVE",
"478 76 OFFCURVE",
"478 224 CURVE SMOOTH"
);
}
);
width = 536;
}
);
unicode = 03CD;
},
{
glyphname = iotadieresistonos;
layers = (
{
hints = (
{
place = "{-49, 125}";
type = Stem;
},
{
place = "{111, 99}";
type = Stem;
},
{
place = "{253, 122}";
type = Stem;
},
{
horizontal = 1;
place = "{0, 21}";
target = up;
type = BottomGhost;
},
{
horizontal = 1;
place = "{492, -20}";
target = down;
type = TopGhost;
},
{
horizontal = 1;
place = "{557, 124}";
type = Stem;
},
{
horizontal = 1;
place = "{559, 155}";
type = Stem;
}
);
layerId = "52A54639-B708-4391-8FEC-DE0E18BC7F23";
paths = (
{
closed = 1;
nodes = (
"76 559 LINE",
"146 559 LINE",
"293 714 LINE",
"162 714 LINE"
);
},
{
closed = 1;
nodes = (
"349 557 OFFCURVE",
"375 584 OFFCURVE",
"375 619 CURVE SMOOTH",
"375 652 OFFCURVE",
"349 681 OFFCURVE",
"313 681 CURVE SMOOTH",
"278 681 OFFCURVE",
"253 652 OFFCURVE",
"253 619 CURVE SMOOTH",
"253 584 OFFCURVE",
"278 557 OFFCURVE",
"313 557 CURVE SMOOTH"
);
},
{
closed = 1;
nodes = (
"-49 583 OFFCURVE",
"-22 556 OFFCURVE",
"13 556 CURVE SMOOTH",
"46 556 OFFCURVE",
"76 583 OFFCURVE",
"76 618 CURVE SMOOTH",
"76 653 OFFCURVE",
"46 680 OFFCURVE",
"13 680 CURVE SMOOTH",
"-22 680 OFFCURVE",
"-49 653 OFFCURVE",
"-49 618 CURVE SMOOTH"
);
},
{
closed = 1;
nodes = (
"210 492 LINE",
"111 492 LINE",
"111 0 LINE",
"210 0 LINE"
);
}
);
width = 312;
}
);
unicode = 0390;
},
{
glyphname = iotadieresis;
layers = (
{
hints = (
{
place = "{-24, 128}";
type = Stem;
},
{
place = "{88, 99}";
type = Stem;
},
{
place = "{174, 126}";
type = Stem;
},
{
horizontal = 1;
place = "{0, 21}";
target = up;
type = BottomGhost;
},
{
horizontal = 1;
place = "{492, -20}";
target = down;
type = TopGhost;
},
{
horizontal = 1;
place = "{524, 127}";
type = Stem;
}
);
layerId = "52A54639-B708-4391-8FEC-DE0E18BC7F23";
paths = (
{
closed = 1;
nodes = (
"-24 551 OFFCURVE",
"3 524 OFFCURVE",
"40 524 CURVE SMOOTH",
"75 524 OFFCURVE",
"104 551 OFFCURVE",
"104 588 CURVE SMOOTH",
"104 624 OFFCURVE",
"75 651 OFFCURVE",
"40 651 CURVE SMOOTH",
"3 651 OFFCURVE",
"-24 624 OFFCURVE",
"-24 588 CURVE SMOOTH"
);
},
{
closed = 1;
nodes = (
"174 551 OFFCURVE",
"201 524 OFFCURVE",
"236 524 CURVE SMOOTH",
"273 524 OFFCURVE",
"300 551 OFFCURVE",
"300 588 CURVE SMOOTH",
"300 624 OFFCURVE",
"273 651 OFFCURVE",
"236 651 CURVE SMOOTH",
"201 651 OFFCURVE",
"174 624 OFFCURVE",
"174 588 CURVE SMOOTH"
);
},
{
closed = 1;
nodes = (
"187 492 LINE",
"88 492 LINE",
"88 0 LINE",
"187 0 LINE"
);
}
);
width = 272;
}
);
unicode = 03CA;
},
{
glyphname = upsilondieresis;
layers = (
{
hints = (
{
place = "{44, 100}";
type = Stem;
},
{
place = "{99, 128}";
type = Stem;
},
{
place = "{297, 126}";
type = Stem;
},
{
place = "{378, 100}";
type = Stem;
},
{
horizontal = 1;
place = "{-11, 87}";
type = Stem;
},
{
horizontal = 1;
place = "{493, -20}";
target = down;
type = TopGhost;
},
{
horizontal = 1;
place = "{524, 127}";
type = Stem;
}
);
layerId = "52A54639-B708-4391-8FEC-DE0E18BC7F23";
paths = (
{
closed = 1;
nodes = (
"99 551 OFFCURVE",
"126 524 OFFCURVE",
"163 524 CURVE SMOOTH",
"198 524 OFFCURVE",
"227 551 OFFCURVE",
"227 588 CURVE SMOOTH",
"227 624 OFFCURVE",
"198 651 OFFCURVE",
"163 651 CURVE SMOOTH",
"126 651 OFFCURVE",
"99 624 OFFCURVE",
"99 588 CURVE SMOOTH"
);
},
{
closed = 1;
nodes = (
"297 551 OFFCURVE",
"324 524 OFFCURVE",
"359 524 CURVE SMOOTH",
"396 524 OFFCURVE",
"423 551 OFFCURVE",
"423 588 CURVE SMOOTH",
"423 624 OFFCURVE",
"396 651 OFFCURVE",
"359 651 CURVE SMOOTH",
"324 651 OFFCURVE",
"297 624 OFFCURVE",
"297 588 CURVE SMOOTH"
);
},
{
closed = 1;
nodes = (
"478 493 LINE",
"378 493 LINE",
"378 202 LINE SMOOTH",
"378 133 OFFCURVE",
"333 76 OFFCURVE",
"261 76 CURVE SMOOTH",
"181 76 OFFCURVE",
"144 131 OFFCURVE",
"144 203 CURVE SMOOTH",
"144 493 LINE",
"44 493 LINE",
"44 221 LINE SMOOTH",
"44 70 OFFCURVE",
"115 -11 OFFCURVE",
"262 -11 CURVE SMOOTH",
"407 -11 OFFCURVE",
"478 76 OFFCURVE",
"478 224 CURVE SMOOTH"
);
}
);
width = 536;
}
);
unicode = 03CB;
},
{
glyphname = upsilondieresistonos;
layers = (
{
hints = (
{
place = "{46, 100}";
type = Stem;
},
{
place = "{62, 125}";
type = Stem;
},
{
place = "{364, 122}";
type = Stem;
},
{
place = "{380, 100}";
type = Stem;
},
{
horizontal = 1;
place = "{-11, 87}";
type = Stem;
},
{
horizontal = 1;
place = "{493, -20}";
target = down;
type = TopGhost;
},
{
horizontal = 1;
place = "{558, 124}";
type = Stem;
},
{
horizontal = 1;
place = "{560, 155}";
type = Stem;
}
);
layerId = "52A54639-B708-4391-8FEC-DE0E18BC7F23";
paths = (
{
closed = 1;
nodes = (
"187 560 LINE",
"257 560 LINE",
"404 715 LINE",
"273 715 LINE"
);
},
{
closed = 1;
nodes = (
"460 558 OFFCURVE",
"486 585 OFFCURVE",
"486 620 CURVE SMOOTH",
"486 653 OFFCURVE",
"460 682 OFFCURVE",
"424 682 CURVE SMOOTH",
"389 682 OFFCURVE",
"364 653 OFFCURVE",
"364 620 CURVE SMOOTH",
"364 585 OFFCURVE",
"389 558 OFFCURVE",
"424 558 CURVE SMOOTH"
);
},
{
closed = 1;
nodes = (
"62 584 OFFCURVE",
"89 557 OFFCURVE",
"124 557 CURVE SMOOTH",
"157 557 OFFCURVE",
"187 584 OFFCURVE",
"187 619 CURVE SMOOTH",
"187 654 OFFCURVE",
"157 681 OFFCURVE",
"124 681 CURVE SMOOTH",
"89 681 OFFCURVE",
"62 654 OFFCURVE",
"62 619 CURVE SMOOTH"
);
},
{
closed = 1;
nodes = (
"480 493 LINE",
"380 493 LINE",
"380 202 LINE SMOOTH",
"380 133 OFFCURVE",
"335 76 OFFCURVE",
"263 76 CURVE SMOOTH",
"183 76 OFFCURVE",
"146 131 OFFCURVE",
"146 203 CURVE SMOOTH",
"146 493 LINE",
"46 493 LINE",
"46 221 LINE SMOOTH",
"46 70 OFFCURVE",
"117 -11 OFFCURVE",
"264 -11 CURVE SMOOTH",
"409 -11 OFFCURVE",
"480 76 OFFCURVE",
"480 224 CURVE SMOOTH"
);
}
);
width = 538;
}
);
unicode = 03B0;
},
{
glyphname = Omegatonos;
layers = (
{
hints = (
{
place = "{145, 105}";
type = Stem;
},
{
place = "{740, 106}";
type = Stem;
},
{
horizontal = 1;
place = "{0, 91}";
type = Stem;
},
{
horizontal = 1;
place = "{549, 155}";
type = Stem;
},
{
horizontal = 1;
place = "{625, 93}";
type = Stem;
}
);
layerId = "52A54639-B708-4391-8FEC-DE0E18BC7F23";
paths = (
{
closed = 1;
nodes = (
"560 0 LINE",
"863 0 LINE",
"863 91 LINE",
"689 91 LINE",
"788 152 OFFCURVE",
"846 262 OFFCURVE",
"846 378 CURVE SMOOTH",
"846 582 OFFCURVE",
"698 718 OFFCURVE",
"497 718 CURVE SMOOTH",
"303 718 OFFCURVE",
"145 582 OFFCURVE",
"145 381 CURVE SMOOTH",
"145 264 OFFCURVE",
"202 152 OFFCURVE",
"302 91 CURVE",
"127 91 LINE",
"127 0 LINE",
"435 0 LINE",
"435 93 LINE",
"326 152 OFFCURVE",
"250 243 OFFCURVE",
"250 372 CURVE SMOOTH",
"250 521 OFFCURVE",
"347 625 OFFCURVE",
"496 625 CURVE SMOOTH",
"646 625 OFFCURVE",
"740 519 OFFCURVE",
"740 372 CURVE SMOOTH",
"740 241 OFFCURVE",
"668 156 OFFCURVE",
"560 93 CURVE"
);
},
{
closed = 1;
nodes = (
"0 549 LINE",
"72 549 LINE",
"229 704 LINE",
"93 704 LINE"
);
}
);
width = 920;
}
);
unicode = 038F;
},
{
glyphname = omega;
layers = (
{
hints = (
{
horizontal = 1;
place = "{-11, 78}";
type = Stem;
},
{
place = "{39, 100}";
type = Stem;
},
{
place = "{346, 101}";
type = Stem;
},
{
place = "{655, 100}";
type = Stem;
}
);
layerId = "52A54639-B708-4391-8FEC-DE0E18BC7F23";
paths = (
{
closed = 1;
nodes = (
"447 366 LINE",
"346 366 LINE",
"346 248 LINE SMOOTH",
"346 178 OFFCURVE",
"327 67 OFFCURVE",
"245 67 CURVE SMOOTH",
"181 67 OFFCURVE",
"139 147 OFFCURVE",
"139 248 CURVE SMOOTH",
"139 342 OFFCURVE",
"171 421 OFFCURVE",
"262 509 CURVE",
"153 509 LINE",
"81 441 OFFCURVE",
"39 354 OFFCURVE",
"39 249 CURVE SMOOTH",
"39 103 OFFCURVE",
"115 -11 OFFCURVE",
"243 -11 CURVE SMOOTH",
"316 -11 OFFCURVE",
"369 27 OFFCURVE",
"396 79 CURVE",
"425 27 OFFCURVE",
"476 -11 OFFCURVE",
"549 -11 CURVE SMOOTH",
"678 -11 OFFCURVE",
"755 101 OFFCURVE",
"755 249 CURVE SMOOTH",
"755 356 OFFCURVE",
"711 442 OFFCURVE",
"642 509 CURVE",
"532 509 LINE",
"621 420 OFFCURVE",
"655 340 OFFCURVE",
"655 248 CURVE SMOOTH",
"655 145 OFFCURVE",
"614 67 OFFCURVE",
"546 67 CURVE SMOOTH",
"496 67 OFFCURVE",
"447 110 OFFCURVE",
"447 248 CURVE SMOOTH"
);
}
);
width = 794;
}
);
unicode = 03C9;
},
{
glyphname = omegatonos;
layers = (
{
hints = (
{
horizontal = 1;
place = "{-11, 78}";
type = Stem;
},
{
horizontal = 1;
place = "{567, 155}";
type = Stem;
},
{
place = "{39, 100}";
type = Stem;
},
{
place = "{346, 101}";
type = Stem;
},
{
place = "{655, 100}";
type = Stem;
}
);
layerId = "52A54639-B708-4391-8FEC-DE0E18BC7F23";
paths = (
{
closed = 1;
nodes = (
"355 567 LINE",
"427 567 LINE",
"584 722 LINE",
"448 722 LINE"
);
},
{
closed = 1;
nodes = (
"447 366 LINE",
"346 366 LINE",
"346 248 LINE SMOOTH",
"346 178 OFFCURVE",
"327 67 OFFCURVE",
"245 67 CURVE SMOOTH",
"181 67 OFFCURVE",
"139 147 OFFCURVE",
"139 248 CURVE SMOOTH",
"139 342 OFFCURVE",
"171 421 OFFCURVE",
"262 509 CURVE",
"153 509 LINE",
"81 441 OFFCURVE",
"39 354 OFFCURVE",
"39 249 CURVE SMOOTH",
"39 103 OFFCURVE",
"115 -11 OFFCURVE",
"243 -11 CURVE SMOOTH",
"316 -11 OFFCURVE",
"369 27 OFFCURVE",
"396 79 CURVE",
"425 27 OFFCURVE",
"476 -11 OFFCURVE",
"549 -11 CURVE SMOOTH",
"678 -11 OFFCURVE",
"755 101 OFFCURVE",
"755 249 CURVE SMOOTH",
"755 356 OFFCURVE",
"711 442 OFFCURVE",
"642 509 CURVE",
"532 509 LINE",
"621 420 OFFCURVE",
"655 340 OFFCURVE",
"655 248 CURVE SMOOTH",
"655 145 OFFCURVE",
"614 67 OFFCURVE",
"546 67 CURVE SMOOTH",
"496 67 OFFCURVE",
"447 110 OFFCURVE",
"447 248 CURVE SMOOTH"
);
}
);
width = 794;
}
);
unicode = 03CE;
},
{
glyphname = epsilontonos;
layers = (
{
hints = (
{
place = "{40, 100}";
type = Stem;
},
{
place = "{60, 100}";
type = Stem;
},
{
horizontal = 1;
place = "{-11, 85}";
type = Stem;
},
{
horizontal = 1;
place = "{220, 79}";
type = Stem;
},
{
horizontal = 1;
place = "{420, 84}";
type = Stem;
},
{
horizontal = 1;
place = "{567, 155}";
type = Stem;
}
);
layerId = "52A54639-B708-4391-8FEC-DE0E18BC7F23";
paths = (
{
closed = 1;
nodes = (
"182 567 LINE",
"254 567 LINE",
"411 722 LINE",
"275 722 LINE"
);
},
{
closed = 1;
nodes = (
"188 74 OFFCURVE",
"140 103 OFFCURVE",
"140 146 CURVE SMOOTH",
"140 185 OFFCURVE",
"178 220 OFFCURVE",
"269 220 CURVE SMOOTH",
"309 220 LINE",
"309 299 LINE",
"272 299 LINE SMOOTH",
"203 299 OFFCURVE",
"160 324 OFFCURVE",
"160 364 CURVE SMOOTH",
"160 400 OFFCURVE",
"197 420 OFFCURVE",
"248 420 CURVE SMOOTH",
"283 420 OFFCURVE",
"324 410 OFFCURVE",
"364 385 CURVE",
"389 471 LINE",
"342 492 OFFCURVE",
"294 504 OFFCURVE",
"243 504 CURVE SMOOTH",
"143 504 OFFCURVE",
"60 458 OFFCURVE",
"60 375 CURVE SMOOTH",
"60 326 OFFCURVE",
"91 281 OFFCURVE",
"154 258 CURVE",
"81 241 OFFCURVE",
"40 194 OFFCURVE",
"40 137 CURVE SMOOTH",
"40 51 OFFCURVE",
"134 -11 OFFCURVE",
"245 -11 CURVE SMOOTH",
"296 -11 OFFCURVE",
"348 2 OFFCURVE",
"399 23 CURVE",
"379 107 LINE",
"328 82 OFFCURVE",
"285 74 OFFCURVE",
"252 74 CURVE SMOOTH"
);
}
);
width = 432;
}
);
unicode = 03AD;
},
{
glyphname = xi;
layers = (
{
hints = (
{
place = "{39, 99}";
type = Stem;
},
{
place = "{84, 100}";
type = Stem;
},
{
place = "{314, 97}";
type = Stem;
},
{
horizontal = 1;
place = "{338, 83}";
type = Stem;
},
{
horizontal = 1;
place = "{652, 84}";
type = Stem;
}
);
layerId = "52A54639-B708-4391-8FEC-DE0E18BC7F23";
paths = (
{
closed = 1;
nodes = (
"312 -21 OFFCURVE",
"314 -66 OFFCURVE",
"314 -87 CURVE SMOOTH",
"314 -108 OFFCURVE",
"309 -131 OFFCURVE",
"297 -158 CURVE",
"390 -167 LINE",
"399 -140 OFFCURVE",
"411 -105 OFFCURVE",
"411 -68 CURVE SMOOTH",
"411 -11 OFFCURVE",
"382 51 OFFCURVE",
"269 72 CURVE SMOOTH",
"186 88 OFFCURVE",
"138 131 OFFCURVE",
"138 204 CURVE SMOOTH",
"138 304 OFFCURVE",
"221 338 OFFCURVE",
"345 338 CURVE",
"345 421 LINE",
"229 421 OFFCURVE",
"184 461 OFFCURVE",
"184 524 CURVE SMOOTH",
"184 628 OFFCURVE",
"304 649 OFFCURVE",
"408 649 CURVE",
"408 736 LINE",
"71 736 LINE",
"71 652 LINE",
"195 652 LINE",
"123 631 OFFCURVE",
"84 578 OFFCURVE",
"84 518 CURVE SMOOTH",
"84 455 OFFCURVE",
"124 407 OFFCURVE",
"192 380 CURVE",
"104 364 OFFCURVE",
"39 283 OFFCURVE",
"39 192 CURVE SMOOTH",
"39 105 OFFCURVE",
"97 13 OFFCURVE",
"233 -8 CURVE SMOOTH"
);
}
);
width = 419;
}
);
unicode = 03BE;
},
{
glyphname = zeta;
layers = (
{
hints = (
{
horizontal = 1;
place = "{653, 83}";
type = Stem;
},
{
place = "{40, 100}";
type = Stem;
},
{
place = "{320, 97}";
type = Stem;
}
);
layerId = "52A54639-B708-4391-8FEC-DE0E18BC7F23";
paths = (
{
closed = 1;
nodes = (
"422 736 LINE",
"85 736 LINE",
"85 653 LINE",
"320 653 LINE",
"137 525 OFFCURVE",
"40 371 OFFCURVE",
"40 220 CURVE SMOOTH",
"40 84 OFFCURVE",
"121 13 OFFCURVE",
"241 -8 CURVE",
"308 -21 OFFCURVE",
"320 -52 OFFCURVE",
"320 -84 CURVE SMOOTH",
"320 -104 OFFCURVE",
"315 -131 OFFCURVE",
"303 -158 CURVE",
"396 -167 LINE",
"405 -140 OFFCURVE",
"417 -107 OFFCURVE",
"417 -70 CURVE SMOOTH",
"417 -3 OFFCURVE",
"380 53 OFFCURVE",
"277 72 CURVE SMOOTH",
"176 91 OFFCURVE",
"140 145 OFFCURVE",
"140 224 CURVE SMOOTH",
"140 373 OFFCURVE",
"264 544 OFFCURVE",
"422 641 CURVE"
);
}
);
width = 424;
}
);
unicode = 03B6;
},
{
glyphname = uni03C2;
layers = (
{
hints = (
{
horizontal = 1;
place = "{418, 84}";
type = Stem;
},
{
place = "{48, 99}";
type = Stem;
},
{
place = "{323, 96}";
type = Stem;
}
);
layerId = "52A54639-B708-4391-8FEC-DE0E18BC7F23";
paths = (
{
closed = 1;
nodes = (
"397 -167 LINE",
"410 -138 OFFCURVE",
"419 -106 OFFCURVE",
"419 -71 CURVE SMOOTH",
"419 7 OFFCURVE",
"365 40 OFFCURVE",
"294 69 CURVE",
"210 101 OFFCURVE",
"147 150 OFFCURVE",
"147 253 CURVE SMOOTH",
"147 336 OFFCURVE",
"195 418 OFFCURVE",
"286 418 CURVE SMOOTH",
"323 418 OFFCURVE",
"369 405 OFFCURVE",
"401 388 CURVE",
"426 464 LINE",
"385 491 OFFCURVE",
"336 502 OFFCURVE",
"285 502 CURVE SMOOTH",
"141 502 OFFCURVE",
"48 394 OFFCURVE",
"48 251 CURVE SMOOTH",
"48 126 OFFCURVE",
"116 36 OFFCURVE",
"229 -4 CURVE SMOOTH",
"290 -25 OFFCURVE",
"323 -44 OFFCURVE",
"323 -79 CURVE SMOOTH",
"323 -107 OFFCURVE",
"315 -133 OFFCURVE",
"304 -158 CURVE"
);
}
);
width = 501;
}
);
unicode = 03C2;
},
{
glyphname = phi;
layers = (
{
hints = (
{
place = "{39, 98}";
type = Stem;
},
{
place = "{323, 99}";
type = Stem;
},
{
place = "{610, 99}";
type = Stem;
},
{
horizontal = 1;
place = "{-9, 83}";
type = Stem;
},
{
horizontal = 1;
place = "{-8, 83}";
type = Stem;
},
{
horizontal = 1;
place = "{426, 85}";
type = Stem;
}
);
layerId = "52A54639-B708-4391-8FEC-DE0E18BC7F23";
paths = (
{
closed = 1;
nodes = (
"323 -180 LINE",
"422 -180 LINE",
"422 -8 LINE",
"594 3 OFFCURVE",
"709 105 OFFCURVE",
"709 277 CURVE SMOOTH",
"709 418 OFFCURVE",
"635 511 OFFCURVE",
"510 511 CURVE SMOOTH",
"332 511 OFFCURVE",
"323 357 OFFCURVE",
"323 221 CURVE SMOOTH",
"323 74 LINE",
"208 82 OFFCURVE",
"137 160 OFFCURVE",
"137 277 CURVE SMOOTH",
"137 350 OFFCURVE",
"172 428 OFFCURVE",
"259 509 CURVE",
"151 509 LINE",
"82 450 OFFCURVE",
"39 362 OFFCURVE",
"39 269 CURVE SMOOTH",
"39 98 OFFCURVE",
"162 2 OFFCURVE",
"323 -9 CURVE"
);
},
{
closed = 1;
nodes = (
"422 263 LINE",
"425 387 OFFCURVE",
"461 426 OFFCURVE",
"509 426 CURVE SMOOTH",
"587 426 OFFCURVE",
"610 336 OFFCURVE",
"610 273 CURVE",
"609 148 OFFCURVE",
"545 84 OFFCURVE",
"422 75 CURVE"
);
}
);
width = 748;
}
);
unicode = 03C6;
},
{
glyphname = Agrave;
layers = (
{
hints = (
{
horizontal = 1;
place = "{0, 21}";
target = up;
type = BottomGhost;
},
{
horizontal = 1;
place = "{185, 88}";
type = Stem;
},
{
horizontal = 1;
place = "{705, -20}";
target = down;
type = TopGhost;
},
{
place = "{24, 703}";
type = Stem;
}
);
layerId = "52A54639-B708-4391-8FEC-DE0E18BC7F23";
paths = (
{
closed = 1;
nodes = (
"364 760 LINE",
"439 760 LINE",
"342 915 LINE",
"235 889 LINE"
);
},
{
closed = 1;
nodes = (
"537 185 LINE",
"615 0 LINE",
"727 0 LINE",
"420 705 LINE",
"331 705 LINE",
"24 0 LINE",
"134 0 LINE",
"213 185 LINE"
);
},
{
closed = 1;
nodes = (
"375 584 LINE",
"501 273 LINE",
"249 273 LINE"
);
}
);
width = 751;
}
);
unicode = 00C0;
},
{
glyphname = Aacute;
layers = (
{
hints = (
{
horizontal = 1;
place = "{0, 21}";
target = up;
type = BottomGhost;
},
{
horizontal = 1;
place = "{185, 88}";
type = Stem;
},
{
horizontal = 1;
place = "{705, -20}";
target = down;
type = TopGhost;
},
{
place = "{24, 703}";
type = Stem;
}
);
layerId = "52A54639-B708-4391-8FEC-DE0E18BC7F23";
paths = (
{
closed = 1;
nodes = (
"516 889 LINE",
"407 915 LINE",
"314 760 LINE",
"385 760 LINE"
);
},
{
closed = 1;
nodes = (
"537 185 LINE",
"615 0 LINE",
"727 0 LINE",
"420 705 LINE",
"331 705 LINE",
"24 0 LINE",
"134 0 LINE",
"213 185 LINE"
);
},
{
closed = 1;
nodes = (
"375 584 LINE",
"501 273 LINE",
"249 273 LINE"
);
}
);
width = 751;
}
);
unicode = 00C1;
},
{
glyphname = Acircumflex;
layers = (
{
hints = (
{
horizontal = 1;
place = "{0, 21}";
target = up;
type = BottomGhost;
},
{
horizontal = 1;
place = "{185, 88}";
type = Stem;
},
{
horizontal = 1;
place = "{705, -20}";
target = down;
type = TopGhost;
},
{
horizontal = 1;
place = "{758, 148}";
type = Stem;
},
{
place = "{24, 703}";
type = Stem;
}
);
layerId = "52A54639-B708-4391-8FEC-DE0E18BC7F23";
paths = (
{
closed = 1;
nodes = (
"417 906 LINE",
"339 906 LINE",
"227 758 LINE",
"304 758 LINE",
"377 836 LINE",
"452 758 LINE",
"528 758 LINE"
);
},
{
closed = 1;
nodes = (
"537 185 LINE",
"615 0 LINE",
"727 0 LINE",
"420 705 LINE",
"331 705 LINE",
"24 0 LINE",
"134 0 LINE",
"213 185 LINE"
);
},
{
closed = 1;
nodes = (
"375 584 LINE",
"501 273 LINE",
"249 273 LINE"
);
}
);
width = 751;
}
);
unicode = 00C2;
},
{
glyphname = Atilde;
layers = (
{
hints = (
{
place = "{24, 703}";
type = Stem;
},
{
horizontal = 1;
place = "{0, 21}";
target = up;
type = BottomGhost;
},
{
horizontal = 1;
place = "{185, 88}";
type = Stem;
},
{
horizontal = 1;
place = "{705, -20}";
target = down;
type = TopGhost;
},
{
horizontal = 1;
place = "{767, 77}";
type = Stem;
},
{
horizontal = 1;
place = "{804, 77}";
type = Stem;
}
);
layerId = "52A54639-B708-4391-8FEC-DE0E18BC7F23";
paths = (
{
closed = 1;
nodes = (
"270 758 LINE",
"281 791 OFFCURVE",
"302 804 OFFCURVE",
"325 804 CURVE SMOOTH",
"365 804 OFFCURVE",
"402 767 OFFCURVE",
"447 767 CURVE SMOOTH",
"496 767 OFFCURVE",
"526 810 OFFCURVE",
"546 877 CURVE",
"485 889 LINE",
"474 858 OFFCURVE",
"461 844 OFFCURVE",
"441 844 CURVE SMOOTH",
"407 844 OFFCURVE",
"366 881 OFFCURVE",
"318 881 CURVE SMOOTH",
"265 881 OFFCURVE",
"228 836 OFFCURVE",
"208 769 CURVE"
);
},
{
closed = 1;
nodes = (
"537 185 LINE",
"615 0 LINE",
"727 0 LINE",
"420 705 LINE",
"331 705 LINE",
"24 0 LINE",
"134 0 LINE",
"213 185 LINE"
);
},
{
closed = 1;
nodes = (
"375 584 LINE",
"501 273 LINE",
"249 273 LINE"
);
}
);
width = 751;
}
);
unicode = 00C3;
},
{
glyphname = Adieresis;
layers = (
{
hints = (
{
horizontal = 1;
place = "{0, 21}";
target = up;
type = BottomGhost;
},
{
horizontal = 1;
place = "{185, 88}";
type = Stem;
},
{
horizontal = 1;
place = "{705, -20}";
target = down;
type = TopGhost;
},
{
horizontal = 1;
place = "{765, 127}";
type = Stem;
},
{
place = "{215, 128}";
type = Stem;
},
{
place = "{413, 126}";
type = Stem;
}
);
layerId = "52A54639-B708-4391-8FEC-DE0E18BC7F23";
paths = (
{
closed = 1;
nodes = (
"215 792 OFFCURVE",
"242 765 OFFCURVE",
"279 765 CURVE SMOOTH",
"314 765 OFFCURVE",
"343 792 OFFCURVE",
"343 829 CURVE SMOOTH",
"343 865 OFFCURVE",
"314 892 OFFCURVE",
"279 892 CURVE SMOOTH",
"242 892 OFFCURVE",
"215 865 OFFCURVE",
"215 829 CURVE SMOOTH"
);
},
{
closed = 1;
nodes = (
"413 792 OFFCURVE",
"440 765 OFFCURVE",
"475 765 CURVE SMOOTH",
"512 765 OFFCURVE",
"539 792 OFFCURVE",
"539 829 CURVE SMOOTH",
"539 865 OFFCURVE",
"512 892 OFFCURVE",
"475 892 CURVE SMOOTH",
"440 892 OFFCURVE",
"413 865 OFFCURVE",
"413 829 CURVE SMOOTH"
);
},
{
closed = 1;
nodes = (
"537 185 LINE",
"615 0 LINE",
"727 0 LINE",
"420 705 LINE",
"331 705 LINE",
"24 0 LINE",
"134 0 LINE",
"213 185 LINE"
);
},
{
closed = 1;
nodes = (
"375 584 LINE",
"501 273 LINE",
"249 273 LINE"
);
}
);
width = 751;
}
);
unicode = 00C4;
},
